<svg id="Layer_1" data-name="Layer 1" xmlns="http://www.w3.org/2000/svg" xmlns:xlink="http://www.w3.org/1999/xlink" viewBox="0 0 16 16"><defs><style>.cls-1,.cls-10,.cls-11,.cls-13,.cls-5{fill:none;}.cls-2{fill:#13091e;}.cls-3{clip-path:url(#clip-path);}.cls-4{fill:url(#linear-gradient);}.cls-10,.cls-11,.cls-13,.cls-5{stroke-miterlimit:10;}.cls-5{stroke-width:2.89px;stroke:url(#linear-gradient-2);}.cls-6{clip-path:url(#clip-path-2);}.cls-7{fill:url(#linear-gradient-3);}.cls-8{clip-path:url(#clip-path-3);}.cls-9{fill:url(#linear-gradient-4);}.cls-10,.cls-11,.cls-13{stroke-width:0.26px;}.cls-10{stroke:url(#linear-gradient-5);}.cls-11{stroke:url(#linear-gradient-6);}.cls-12{fill:#070606;}.cls-13{stroke:url(#linear-gradient-7);}</style><clipPath id="clip-path"><rect class="cls-1" x="69.45" y="-163.91" width="179.91" height="179.91"/></clipPath><linearGradient id="linear-gradient" x1="-20.51" y1="-78.44" x2="260.85" y2="202.92" gradientUnits="userSpaceOnUse"><stop offset="0" stop-color="#050823"/><stop offset="0.01" stop-color="#050927"/><stop offset="0.02" stop-color="#070a33"/><stop offset="0.03" stop-color="#090d48"/><stop offset="0.04" stop-color="#0d1064"/><stop offset="0.05" stop-color="#101480"/><stop offset="0.09" stop-color="#131983"/><stop offset="0.13" stop-color="#1d288a"/><stop offset="0.18" stop-color="#2d4196"/><stop offset="0.24" stop-color="#4363a8"/><stop offset="0.29" stop-color="#608fbe"/><stop offset="0.35" stop-color="#83c4d9"/><stop offset="0.35" stop-color="#86c9db"/><stop offset="0.37" stop-color="#8dccdc"/><stop offset="0.41" stop-color="#a0d6de"/><stop offset="0.44" stop-color="#bee6e1"/><stop offset="0.45" stop-color="#c2e8e1"/><stop offset="0.46" stop-color="#c7eae4"/><stop offset="0.49" stop-color="#d7f0eb"/><stop offset="0.51" stop-color="#f0f9f7"/><stop offset="0.53" stop-color="#fffffe"/><stop offset="0.53" stop-color="#d9e4e8"/><stop offset="0.54" stop-color="#a3bdc8"/><stop offset="0.55" stop-color="#779dae"/><stop offset="0.56" stop-color="#54849a"/><stop offset="0.56" stop-color="#3b728b"/><stop offset="0.57" stop-color="#2c6782"/><stop offset="0.58" stop-color="#27637f"/><stop offset="0.59" stop-color="#36758b"/><stop offset="0.62" stop-color="#5195a2"/><stop offset="0.64" stop-color="#67afb4"/><stop offset="0.67" stop-color="#76c1c1"/><stop offset="0.7" stop-color="#7fccc9"/><stop offset="0.74" stop-color="#82cfcb"/><stop offset="0.83" stop-color="#85d0cc"/><stop offset="0.89" stop-color="#8ed4cd"/><stop offset="0.94" stop-color="#9dd9d0"/><stop offset="0.99" stop-color="#b3e2d5"/><stop offset="1" stop-color="#b9e4d6"/></linearGradient><linearGradient id="linear-gradient-2" x1="6.69" y1="-19.63" x2="90.57" y2="64.26" xlink:href="#linear-gradient"/><clipPath id="clip-path-2"><rect class="cls-1" x="28" y="-16" width="32" height="32"/></clipPath><linearGradient id="linear-gradient-3" x1="12" y1="-0.8" x2="62.04" y2="49.25" xlink:href="#linear-gradient"/><clipPath id="clip-path-3"><rect class="cls-1" width="16" height="16"/></clipPath><linearGradient id="linear-gradient-4" x1="-8" y1="7.6" x2="17.02" y2="32.62" xlink:href="#linear-gradient"/><linearGradient id="linear-gradient-5" x1="-5.58" y1="12.83" x2="1.88" y2="20.29" xlink:href="#linear-gradient"/><linearGradient id="linear-gradient-6" x1="-0.01" y1="12.5" x2="10.89" y2="23.41" xlink:href="#linear-gradient"/><linearGradient id="linear-gradient-7" x1="0.78" y1="-1.82" x2="11.64" y2="9.05" xlink:href="#linear-gradient"/></defs><rect class="cls-2" x="-61.76" y="-289.53" width="822.95" height="318.62"/><g class="cls-3"><path class="cls-4" d="M81.44-45.25A2.72,2.72,0,0,0,84.16-48a2.72,2.72,0,0,0-2.72-2.72A2.72,2.72,0,0,0,78.72-48,2.72,2.72,0,0,0,81.44-45.25Zm31.7,0A2.72,2.72,0,0,0,115.86-48a2.72,2.72,0,0,0-2.72-2.72A2.72,2.72,0,0,0,110.42-48,2.72,2.72,0,0,0,113.14-45.25ZM66,46.74a2.72,2.72,0,1,0,2.73,2.72A2.72,2.72,0,0,0,66,46.74ZM90.55-80.74A42.46,42.46,0,0,1,130-41.55,42.24,42.24,0,0,1,115-6.17V31.6L99.9,47.6V-10.92a30.25,30.25,0,0,0,18-27.62c0-.74,0-1.47-.11-2.2a8.62,8.62,0,0,0,3.74-9.11,8.59,8.59,0,0,0-6.62-6.55,8.62,8.62,0,0,0-9.87,5.49H89.52a8.62,8.62,0,0,0-8.08-5.67,8.62,8.62,0,0,0-8.08,5.67h-6.8L35.84-18.44l3-20.1S51.42-60.21,52-61.15v0h0A42.27,42.27,0,0,1,90.55-80.74Zm-36,51.06L34.3-8.23,30.47,17,54.59-8.5ZM60.48-6.16,28.93,27.2l-4.39,29,33.8-35.73a8.61,8.61,0,1,1,4.28,4.06L23,66.36l-4.38,29,39.73-42a8.62,8.62,0,1,1,4.28,4L17.06,105.52l-5.41,35.75L94,53.85V-15l1.95-.7A24.33,24.33,0,0,0,112-38.53l-.81-1A8.65,8.65,0,0,1,105.05-45H89.52a8.62,8.62,0,0,1-8.08,5.67A8.62,8.62,0,0,1,73.36-45H69.1l-8.62,9.11Zm5.55,20a2.73,2.73,0,1,0,2.73,2.73A2.72,2.72,0,0,0,66,13.85ZM193.34,211.31a17.12,17.12,0,0,1,17.12,17.12H6.29a17.11,17.11,0,0,1,17.12-17.12Zm-194.06,35H217.47a11,11,0,0,0-11-11H10.3A11,11,0,0,0-.72,246.31ZM30,194.36a10.05,10.05,0,0,0-10,10v0H196.75v0a10,10,0,0,0-10-10Zm-2.16-7.24v.41h161v-.41a8.63,8.63,0,0,0-4.58-7.53c-14.33-7.88-24.38-26.35-24.38-43.48v0H56.84c0,17.15-10.05,35.62-24.38,43.5A8.63,8.63,0,0,0,27.88,187.12Zm93-155.82v2.34l-1.6,1.7-62.18,66v27.3H160.53c6.1-6.44,11.2-13.86,16-21.3,4-6.13,7.79-12.32,11.38-18.66,3.78-6.68,8-13.11,11.79-19.77a129.66,129.66,0,0,0,7.06-14.34,122,122,0,0,0,9.37-48.44,137.58,137.58,0,0,0-6.64-40c-.52-1.63-1.07-3.26-1.64-4.87q-1.22-3.4-2.58-6.75-1.25-3-2.61-6c-1-2.08-2-4.13-3-6.17H176.51L162.25-71.93H122.72a48,48,0,0,1,13.21,33.09,48.06,48.06,0,0,1-15.08,35ZM220.22-97a14.36,14.36,0,0,1,3.3,8.39s15.66-23.5,11.86-37-33.69-12-33.69-12h-10l-9-9.53a12.61,12.61,0,0,0-9.14-4H52.23l47.45,25.53L72.23-97.52l20.25-.8L80.16-86.41A49,49,0,0,1,87.74-87,47.87,47.87,0,0,1,116-77.82h48.67L179-63.56H196.4v0c-.69-1.18-1.4-2.35-2.14-3.5s-1.44-2.34-2.07-3.56l-.8-1.57-2-4-2.66-5.26-3.14-6.27q-1.76-3.51-3.5-7a31,31,0,0,1,15-10A22.84,22.84,0,0,1,220.22-97Z"/><path class="cls-5" d="M87.74-81.14A42.3,42.3,0,0,1,130-38.84,42.2,42.2,0,0,1,115-6.47V31.3l-15.07,16V-11.22a30.26,30.26,0,0,0,18-27.62c0-.74-.06-1.47-.11-2.21a8.62,8.62,0,0,0,3.94-7.22,8.63,8.63,0,0,0-8.62-8.61A8.62,8.62,0,0,0,105-51.22H89.51a8.62,8.62,0,0,0-8.08-5.66,8.62,8.62,0,0,0-8.09,5.66H66.55L35.83-18.74l3-20.1S51.41-60.51,52-61.45v0h0A42.24,42.24,0,0,1,87.74-81.14ZM81.43-45.55a2.72,2.72,0,0,0,2.72-2.72A2.72,2.72,0,0,0,81.43-51a2.72,2.72,0,0,0-2.73,2.72A2.72,2.72,0,0,0,81.43-45.55ZM54.58-30,34.28-8.53,30.46,16.69,54.58-8.8Zm58.54-15.56a2.72,2.72,0,0,0,2.73-2.72A2.72,2.72,0,0,0,113.12-51a2.72,2.72,0,0,0-2.72,2.72A2.72,2.72,0,0,0,113.12-45.55ZM66,46.44a2.72,2.72,0,1,0,2.72,2.72A2.72,2.72,0,0,0,66,46.44ZM60.47-6.46,28.91,26.9l-4.38,29,33.8-35.73a8.44,8.44,0,0,1-.92-3.85A8.61,8.61,0,1,1,66,24.88a8.51,8.51,0,0,1-3.42-.71L23,66.06,18.59,95,58.33,53a8.47,8.47,0,0,1-.92-3.85,8.61,8.61,0,1,1,5.19,7.9L17.05,105.22,11.63,141,94,53.55V-15.29l2-.7A24.32,24.32,0,0,0,112-38.84c0-.3,0-.6,0-.9A8.63,8.63,0,0,1,105-45.33H89.51a8.63,8.63,0,0,1-8.08,5.67,8.63,8.63,0,0,1-8.09-5.67H69.09l-8.62,9.11Zm5.55,20a2.72,2.72,0,1,0,2.72,2.72A2.72,2.72,0,0,0,66,13.55Z"/></g><g class="cls-6"><path class="cls-7" d="M30.13,5.11a.49.49,0,0,0,.49-.49.49.49,0,0,0-1,0A.49.49,0,0,0,30.13,5.11Zm5.64,0a.48.48,0,0,0,.48-.49.48.48,0,1,0-1,0A.48.48,0,0,0,35.77,5.11ZM27.39,21.47a.48.48,0,0,0-.48.48.49.49,0,1,0,1,0A.48.48,0,0,0,27.39,21.47ZM31.75-1.21A7.53,7.53,0,0,1,36.1,12.06v6.72l-2.68,2.84V11.21a5.38,5.38,0,0,0,3.2-4.91c0-.13,0-.26,0-.39A1.53,1.53,0,1,0,34.33,4.1H31.57a1.53,1.53,0,0,0-2.88,0h-1.2L22,9.87l.54-3.57s2.23-3.85,2.34-4h0A7.54,7.54,0,0,1,31.75-1.21ZM25.36,7.87l-3.61,3.82-.68,4.49,4.29-4.54Zm1,4.19L20.79,18,20,23.14l6-6.35a1.55,1.55,0,0,1-.09-1.13,1.49,1.49,0,0,1,1.12-1.05,1.53,1.53,0,0,1,.71,3,1.62,1.62,0,0,1-1-.08l-7,7.45L19,30.11,26,22.64a1.55,1.55,0,0,1-.09-1.13,1.49,1.49,0,0,1,1.12-1.05,1.53,1.53,0,0,1,.71,3,1.62,1.62,0,0,1-1-.08l-8.1,8.56-1,6.36L32.37,22.73V10.49l.35-.13A4.32,4.32,0,0,0,35.57,6.3l-.14-.19a1.53,1.53,0,0,1-1.1-1H31.57a1.54,1.54,0,0,1-2.88,0h-.75L26.4,6.77Zm1,3.56a.48.48,0,0,0-.48.48.49.49,0,1,0,1,0A.48.48,0,0,0,27.39,15.62ZM50,50.74a3,3,0,0,1,3,3H16.76a3,3,0,0,1,3-3ZM15.52,57H54.33a2,2,0,0,0-2-2H17.48A2,2,0,0,0,15.52,57ZM21,47.72a1.79,1.79,0,0,0-1.79,1.79H50.64a1.79,1.79,0,0,0-1.78-1.79Zm-.38-1.28v.07H49.24v-.07a1.53,1.53,0,0,0-.81-1.34,9.23,9.23,0,0,1-4.34-7.74H25.76a9.23,9.23,0,0,1-4.34,7.74A1.53,1.53,0,0,0,20.61,46.44ZM37.14,18.72v.42l-.28.3L25.8,31.18V36H44.2a25.21,25.21,0,0,0,2.85-3.79c.7-1.08,1.38-2.19,2-3.31s1.42-2.34,2.1-3.52a22.28,22.28,0,0,0,1.25-2.55,21.63,21.63,0,0,0,1.67-8.62,24.57,24.57,0,0,0-1.18-7.11c-.09-.29-.19-.58-.29-.87s-.3-.8-.46-1.2-.3-.71-.46-1.06-.35-.74-.54-1.1H47L44.51.36h-7a8.57,8.57,0,0,1-.34,12.11ZM54.82-4.1a2.53,2.53,0,0,1,.58,1.49s2.79-4.18,2.11-6.58-6-2.14-6-2.14H49.75L48.14-13a2.21,2.21,0,0,0-1.62-.71H24.94l8.44,4.54-4.89,5,3.61-.14L29.91-2.22A8.47,8.47,0,0,1,36.28-.69h8.66l2.54,2.54h3.1c-.12-.21-.25-.42-.38-.63a6.5,6.5,0,0,1-.37-.63c0-.09-.09-.19-.14-.28l-.36-.72c-.16-.31-.32-.62-.47-.93s-.38-.74-.56-1.12l-.63-1.25A5.6,5.6,0,0,1,50.34-5.5,4.07,4.07,0,0,1,54.82-4.1Z"/></g><g class="cls-8"><path class="cls-9" d="M1.07,10.55a.24.24,0,1,0-.25-.24A.24.24,0,0,0,1.07,10.55Zm2.82,0a.24.24,0,1,0-.25-.24A.24.24,0,0,0,3.89,10.55ZM-.3,18.73A.25.25,0,0,0-.55,19a.25.25,0,0,0,.25.24A.24.24,0,0,0-.06,19,.25.25,0,0,0-.3,18.73ZM1.88,7.4A3.76,3.76,0,0,1,4.05,14v3.36L2.71,18.81v-5.2a2.7,2.7,0,0,0,1.6-2.46,1.34,1.34,0,0,0,0-.2A.76.76,0,0,0,4,9.56a.76.76,0,0,0-.87.49H1.79a.77.77,0,0,0-.72-.5.76.76,0,0,0-.72.5H-.26L-3,12.94l.27-1.79,1.17-2h0A3.74,3.74,0,0,1,1.88,7.4Zm-3.2,4.54-1.81,1.91-.34,2.24,2.15-2.27ZM-.8,14l-2.8,3L-4,19.57l3-3.18A.76.76,0,0,1-1,15.83a.78.78,0,0,1,.57-.53.77.77,0,0,1,.91.92.74.74,0,0,1-.56.57.69.69,0,0,1-.49,0l-3.52,3.73-.39,2.57L-1,19.32A.79.79,0,0,1-1,18.75a.77.77,0,0,1,.57-.52.76.76,0,0,1,.91.92.76.76,0,0,1-.56.57.81.81,0,0,1-.49,0l-4,4.28-.48,3.18,7.32-7.77V13.24l.18-.06a2.16,2.16,0,0,0,1.43-2l-.08-.09a.76.76,0,0,1-.54-.49H1.79a.77.77,0,0,1-.72.51.76.76,0,0,1-.72-.51H0l-.77.81Zm.5,1.78a.25.25,0,0,0-.25.24.25.25,0,0,0,.25.24.24.24,0,0,0,.24-.24A.24.24,0,0,0-.3,15.81ZM11,33.37a1.52,1.52,0,0,1,1.52,1.52H-5.62a1.52,1.52,0,0,1,1.53-1.52ZM-6.24,36.48h19.4a1,1,0,0,0-1-1H-5.26A1,1,0,0,0-6.24,36.48Zm2.73-4.62a.89.89,0,0,0-.89.9H11.32a.89.89,0,0,0-.89-.9Zm-.19-.64v0H10.62v0a.76.76,0,0,0-.41-.67A4.62,4.62,0,0,1,8,26.68H-1.12a4.61,4.61,0,0,1-2.17,3.87A.76.76,0,0,0-3.7,31.22ZM4.57,17.36v.21l-.14.15L-1.1,23.59V26H8.1a13,13,0,0,0,1.42-1.9c.36-.54.7-1.09,1-1.66s.71-1.16,1-1.76a10,10,0,0,0,.63-1.27,11,11,0,0,0,.84-4.31,12.3,12.3,0,0,0-.6-3.56c0-.14-.09-.28-.14-.43s-.15-.4-.23-.6-.15-.36-.23-.53l-.27-.55H9.52L8.25,8.18H4.74a4.29,4.29,0,0,1,1.17,2.94,4.26,4.26,0,0,1-1.34,3.12ZM13.41,6a1.28,1.28,0,0,1,.29.75s1.39-2.09,1.06-3.3-3-1.06-3-1.06h-.89l-.8-.85a1.11,1.11,0,0,0-.81-.36H-1.53L2.69,3.4.25,5.9l1.8-.07L1,6.89a5.06,5.06,0,0,1,.68,0,4.21,4.21,0,0,1,2.51.82H8.47L9.74,8.92h1.55c-.06-.1-.12-.21-.19-.31a3.3,3.3,0,0,1-.18-.32l-.07-.13c-.07-.12-.13-.24-.19-.36l-.23-.47-.28-.56c-.11-.21-.21-.42-.31-.62a2.72,2.72,0,0,1,1.33-.9A2,2,0,0,1,13.41,6Z"/><path class="cls-10" d="M1.63,7.36a3.77,3.77,0,0,1,3.76,3.76A3.75,3.75,0,0,1,4.05,14v3.36L2.71,18.78v-5.2a2.7,2.7,0,0,0,1.6-2.46c0-.06,0-.13,0-.19a.78.78,0,0,0,.35-.65.76.76,0,0,0-.77-.76.75.75,0,0,0-.71.5H1.78a.75.75,0,0,0-.72-.5.75.75,0,0,0-.71.5H-.26L-3,12.91l.27-1.79,1.17-2h0A3.77,3.77,0,0,1,1.63,7.36Zm-.57,3.17a.25.25,0,1,0,0-.49.25.25,0,0,0,0,.49Zm-2.38,1.38-1.81,1.91-.34,2.24,2.15-2.27Zm5.2-1.38a.25.25,0,1,0,0-.49.25.25,0,0,0,0,.49ZM-.31,18.71A.24.24,0,0,0-.55,19a.24.24,0,0,0,.24.24A.25.25,0,0,0-.06,19,.25.25,0,0,0-.31,18.71ZM-.8,14l-2.81,3L-4,19.54l3-3.17A.82.82,0,0,1-1.07,16a.76.76,0,0,1,.76-.76A.76.76,0,0,1,.46,16a.76.76,0,0,1-.77.77.77.77,0,0,1-.3-.06l-3.52,3.72L-4.52,23-1,19.29A.77.77,0,0,1-1.07,19a.77.77,0,0,1,.76-.77A.77.77,0,0,1,.46,19a.76.76,0,0,1-.77.76.77.77,0,0,1-.3-.06l-4,4.28-.48,3.18,7.32-7.77V13.22l.18-.06a2.18,2.18,0,0,0,1.43-2s0,0,0-.08a.76.76,0,0,1-.61-.49H1.78a.75.75,0,0,1-.72.5.75.75,0,0,1-.71-.5H0l-.77.81Zm.49,1.78A.24.24,0,0,0-.55,16a.25.25,0,0,0,.24.25A.25.25,0,0,0-.06,16,.25.25,0,0,0-.31,15.78Z"/><path class="cls-11" d="M4.57,14.24a4.26,4.26,0,0,0,1.34-3.12A4.29,4.29,0,0,0,4.74,8.18H8.25L9.52,9.45h2.06l0,.09c.08.15.16.3.23.46s.16.35.23.53.16.4.23.6.1.29.14.43a12.3,12.3,0,0,1,.6,3.56,11,11,0,0,1-.84,4.31,10,10,0,0,1-.63,1.27c-.32.57-.68,1.12-1,1.69s-.61,1-.94,1.55A14.16,14.16,0,0,1,8.1,26H-1.1V23.59l5.53-5.87.14-.15V14.24Z"/><path class="cls-12" d="M10,2.25l-.61.38L9,3.1c-.19-.09-.69-.3-1.16-.48s-1.11-.37-1.11-.37Z"/><path class="cls-13" d="M13.41,6a1.28,1.28,0,0,1,.29.75s1.39-2.09,1.06-3.3-3-1.06-3-1.06h-.89l-.8-.85a1.11,1.11,0,0,0-.81-.36H-1.53L2.69,3.4.25,5.9l1.8-.07L1,6.89a5.06,5.06,0,0,1,.68,0,4.21,4.21,0,0,1,2.51.82H8.47L9.74,8.92h1.55a.56.56,0,0,1,0-.08l-.13-.22c0-.08-.1-.15-.15-.24a2.26,2.26,0,0,1-.11-.22c-.07-.12-.13-.24-.19-.36l-.23-.47-.28-.56c-.11-.21-.21-.42-.31-.62a2.72,2.72,0,0,1,1.33-.9A2,2,0,0,1,13.41,6ZM10,2.26l-.6.37L9,3.1c-.19-.09-.69-.3-1.16-.48s-1-.32-1.08-.37H10Z"/></g></svg>