<svg id="Layer_1" data-name="Layer 1" xmlns="http://www.w3.org/2000/svg" xmlns:xlink="http://www.w3.org/1999/xlink" viewBox="0 0 150 150"><defs><style>.cls-1,.cls-5,.cls-6,.cls-8{fill:none;}.cls-2{fill:#13091e;}.cls-3{clip-path:url(#clip-path);}.cls-4{fill:url(#linear-gradient);}.cls-5,.cls-6,.cls-8{stroke-miterlimit:10;stroke-width:2px;}.cls-5{stroke:url(#linear-gradient-2);}.cls-6{stroke:url(#linear-gradient-3);}.cls-7{fill:#070606;}.cls-8{stroke:url(#linear-gradient-4);}</style><clipPath id="clip-path"><rect class="cls-1" y="0.17" width="150" height="150"/></clipPath><linearGradient id="linear-gradient" x1="-32.1" y1="57.03" x2="162.81" y2="251.95" gradientUnits="userSpaceOnUse"><stop offset="0" stop-color="#050823"/><stop offset="0.01" stop-color="#050927"/><stop offset="0.02" stop-color="#070a33"/><stop offset="0.03" stop-color="#090d48"/><stop offset="0.04" stop-color="#0d1064"/><stop offset="0.05" stop-color="#101480"/><stop offset="0.09" stop-color="#131983"/><stop offset="0.13" stop-color="#1d288a"/><stop offset="0.18" stop-color="#2d4196"/><stop offset="0.24" stop-color="#4363a8"/><stop offset="0.29" stop-color="#608fbe"/><stop offset="0.35" stop-color="#83c4d9"/><stop offset="0.35" stop-color="#86c9db"/><stop offset="0.37" stop-color="#8dccdc"/><stop offset="0.41" stop-color="#a0d6de"/><stop offset="0.44" stop-color="#bee6e1"/><stop offset="0.45" stop-color="#c2e8e1"/><stop offset="0.46" stop-color="#c7eae4"/><stop offset="0.49" stop-color="#d7f0eb"/><stop offset="0.51" stop-color="#f0f9f7"/><stop offset="0.53" stop-color="#fffffe"/><stop offset="0.53" stop-color="#d9e4e8"/><stop offset="0.54" stop-color="#a3bdc8"/><stop offset="0.55" stop-color="#779dae"/><stop offset="0.56" stop-color="#54849a"/><stop offset="0.56" stop-color="#3b728b"/><stop offset="0.57" stop-color="#2c6782"/><stop offset="0.58" stop-color="#27637f"/><stop offset="0.59" stop-color="#36758b"/><stop offset="0.62" stop-color="#5195a2"/><stop offset="0.64" stop-color="#67afb4"/><stop offset="0.67" stop-color="#76c1c1"/><stop offset="0.7" stop-color="#7fccc9"/><stop offset="0.74" stop-color="#82cfcb"/><stop offset="0.83" stop-color="#85d0cc"/><stop offset="0.89" stop-color="#8ed4cd"/><stop offset="0.94" stop-color="#9dd9d0"/><stop offset="0.99" stop-color="#b3e2d5"/><stop offset="1" stop-color="#b9e4d6"/></linearGradient><linearGradient id="linear-gradient-2" x1="-13.26" y1="97.77" x2="44.85" y2="155.89" xlink:href="#linear-gradient"/><linearGradient id="linear-gradient-3" x1="30.11" y1="95.23" x2="115.05" y2="180.18" xlink:href="#linear-gradient"/><linearGradient id="linear-gradient-4" x1="36.29" y1="-16.33" x2="120.92" y2="68.31" xlink:href="#linear-gradient"/></defs><rect class="cls-2" width="150" height="150"/><g class="cls-3"><path class="cls-4" d="M38.53,80a1.89,1.89,0,1,0-1.89-1.89A1.89,1.89,0,0,0,38.53,80Zm22,0a1.89,1.89,0,1,0-1.89-1.89A1.89,1.89,0,0,0,60.49,80ZM27.85,143.75a1.89,1.89,0,1,0,1.89,1.88A1.88,1.88,0,0,0,27.85,143.75Zm17-88.32a29.3,29.3,0,0,1,16.92,51.66v26.17L51.32,144.34V103.81A21,21,0,0,0,63.8,84.67c0-.51,0-1-.08-1.53a6,6,0,1,0-8.83-7H44.13a6,6,0,0,0-11.2,0H28.22L6.94,98.6,9.05,84.67s8.68-15,9.1-15.66v0h0A29.28,29.28,0,0,1,44.84,55.43ZM19.93,90.81,5.87,105.67,3.22,123.14l16.71-17.66ZM24,107.11,2.15,130.22l-3,20.05,23.41-24.75a6,6,0,1,1,6.78,3.13,6,6,0,0,1-3.81-.32L-2,157.34-5,177.4l27.52-29.1a6,6,0,1,1,3,2.81L-6.07,184.47l-3.75,24.77,57.06-60.56V101l1.35-.49A16.86,16.86,0,0,0,59.72,84.67L59.16,84a6,6,0,0,1-4.27-3.77H44.13a6,6,0,0,1-11.2,0H30l-6,6.31ZM27.85,121a1.89,1.89,0,1,0,1.89,1.88A1.88,1.88,0,0,0,27.85,121ZM116,257.75a11.86,11.86,0,0,1,11.86,11.86H-13.54A11.86,11.86,0,0,1-1.68,257.75ZM-18.39,282H132.76a7.64,7.64,0,0,0-7.64-7.64H-10.76A7.64,7.64,0,0,0-18.39,282ZM2.92,246a7,7,0,0,0-7,7v0H118.41v0a7,7,0,0,0-7-7Zm-1.5-5v.28H112.94V241a6,6,0,0,0-3.17-5.22c-9.93-5.46-16.89-18.26-16.89-30.12H21.49c0,11.87-7,24.67-16.89,30.13A6,6,0,0,0,1.42,241ZM65.83,133.05v1.62l-1.11,1.18L21.64,181.57v18.91H93.32a100.58,100.58,0,0,0,11.09-14.76c2.74-4.24,5.4-8.53,7.88-12.93,2.62-4.62,5.54-9.08,8.17-13.69a89.61,89.61,0,0,0,4.89-9.93,84.35,84.35,0,0,0,6.49-33.56,95.17,95.17,0,0,0-4.6-27.7c-.36-1.13-.74-2.26-1.14-3.38-.56-1.57-1.15-3.13-1.79-4.67s-1.17-2.79-1.8-4.16-1.36-2.86-2.09-4.27h-16l-9.88-9.88H67.12a33.33,33.33,0,0,1-1.29,47.17Zm68.83-88.88A9.9,9.9,0,0,1,137,50s10.85-16.28,8.22-25.65S121.83,16,121.83,16h-6.9l-6.26-6.6a8.69,8.69,0,0,0-6.32-2.76H18.29L51.16,24.33l-19,19.48,14-.55-8.54,8.25a33.81,33.81,0,0,1,5.25-.43,33.14,33.14,0,0,1,19.59,6.38H96.2l9.88,9.88h12.09c-.48-.82-1-1.63-1.48-2.43s-1-1.62-1.43-2.47l-.56-1.08-1.41-2.79c-.62-1.21-1.23-2.43-1.84-3.64l-2.18-4.34q-1.22-2.44-2.42-4.89a21.43,21.43,0,0,1,10.39-7A15.82,15.82,0,0,1,134.66,44.17Z"/><path class="cls-5" d="M42.89,55.16a29.3,29.3,0,0,1,18.86,51.72v26.17L51.31,144.13V103.6A21,21,0,0,0,63.79,84.46c0-.51,0-1-.08-1.53a6,6,0,1,0-8.83-7H44.12a6,6,0,0,0-11.2,0H28.21L6.93,98.39,9,84.46s8.68-15,9.1-15.66v0h0A29.29,29.29,0,0,1,42.89,55.16ZM38.52,79.81a1.89,1.89,0,1,0-1.89-1.88A1.88,1.88,0,0,0,38.52,79.81ZM19.92,90.59,5.86,105.46,3.21,122.93l16.71-17.66ZM60.48,79.81a1.89,1.89,0,1,0-1.89-1.88A1.88,1.88,0,0,0,60.48,79.81ZM27.84,143.54a1.89,1.89,0,1,0,1.89,1.88A1.88,1.88,0,0,0,27.84,143.54ZM24,106.89,2.14,130l-3,20.06,23.41-24.75a6,6,0,1,1,3,2.81L-2,157.13l-3,20.06,27.52-29.1a6,6,0,1,1,3,2.81L-6.08,184.26-9.83,209l57.06-60.55V100.78l1.35-.49A16.86,16.86,0,0,0,59.71,84.46c0-.21,0-.41,0-.62A6,6,0,0,1,54.88,80H44.12a6,6,0,0,1-11.2,0H30l-6,6.31Zm3.84,13.87a1.89,1.89,0,1,0,1.89,1.88A1.88,1.88,0,0,0,27.84,120.76Z"/><path class="cls-6" d="M65.83,108.71a33.33,33.33,0,0,0,1.29-47.17H94.51l9.88,9.88h16c.11.22.24.45.35.68.61,1.19,1.19,2.39,1.75,3.6.63,1.37,1.23,2.76,1.8,4.16s1.23,3.1,1.79,4.67c.4,1.12.78,2.25,1.14,3.38a95.17,95.17,0,0,1,4.6,27.7,84.35,84.35,0,0,1-6.49,33.56,89.61,89.61,0,0,1-4.89,9.93c-2.52,4.42-5.3,8.69-7.83,13.1-2.34,4.08-4.76,8.12-7.29,12.08a107.55,107.55,0,0,1-12,16.2H21.64V181.57l43.08-45.72,1.11-1.18v-26Z"/><path class="cls-7" d="M108.15,15.31l-4.78,3L100.68,22c-1.49-.67-5.44-2.35-9-3.72s-8.7-2.94-8.7-2.94Z"/><path class="cls-8" d="M134.66,44.17A9.9,9.9,0,0,1,137,50s10.85-16.28,8.22-25.65S121.83,16,121.83,16h-6.9l-6.26-6.6a8.69,8.69,0,0,0-6.32-2.76H18.29L51.16,24.33l-19,19.48,14-.55-8.54,8.25a33.81,33.81,0,0,1,5.25-.43,33.14,33.14,0,0,1,19.59,6.38H96.2l9.88,9.88h12.09c-.13-.21-.24-.43-.36-.63l-1-1.71c-.4-.62-.81-1.22-1.15-1.87s-.61-1.19-.91-1.78l-1.41-2.79c-.62-1.21-1.23-2.43-1.84-3.64l-2.18-4.34q-1.22-2.44-2.42-4.89a21.43,21.43,0,0,1,10.39-7A15.82,15.82,0,0,1,134.66,44.17ZM108,15.39l-4.65,2.9L100.68,22c-1.49-.67-5.44-2.35-9-3.72-3.17-1.21-7.42-2.54-8.46-2.87-.05,0,0-.07,0-.07H108A0,0,0,0,1,108,15.39Z"/></g></svg>