<svg id="Layer_1" data-name="Layer 1" xmlns="http://www.w3.org/2000/svg" viewBox="0 0 200 200"><defs><style>.cls-1{fill:#ef1686;}</style></defs><path class="cls-1" d="M85.62,38.11A20.35,20.35,0,0,1,98.72,74V92.22l-7.26,7.69V71.76a14.55,14.55,0,0,0,8.67-13.29c0-.36,0-.71,0-1.07a4.14,4.14,0,1,0-6.14-4.89H86.47a4.14,4.14,0,0,0-7.78,0H75.42L60.64,68.14l1.46-9.67s6-10.43,6.32-10.88v0h0A20.35,20.35,0,0,1,85.62,38.11Zm-3,17.13a1.31,1.31,0,1,0-1.31-1.31A1.31,1.31,0,0,0,82.58,55.24ZM69.66,62.73,59.89,73.05,58.05,85.19,69.66,72.92Zm28.17-7.49a1.31,1.31,0,1,0-1.31-1.31A1.31,1.31,0,0,0,97.83,55.24ZM75.17,99.5a1.31,1.31,0,1,0,1.31,1.31A1.31,1.31,0,0,0,75.17,99.5ZM72.5,74.05l-15.19,16L55.2,104,71.46,86.84a4.14,4.14,0,1,1,2.06,2L54.46,108.94l-2.11,13.93,19.11-20.21a4.1,4.1,0,0,1-.44-1.85,4.17,4.17,0,1,1,2.5,3.8L51.6,127.79,49,145l39.64-42.07V69.8l.94-.34a11.71,11.71,0,0,0,7.73-11c0-.15,0-.29,0-.44a4.15,4.15,0,0,1-3.34-2.69H86.47a4.14,4.14,0,0,1-7.78,0h-2L72.5,59.73Zm2.67,9.63A1.31,1.31,0,1,0,76.48,85,1.3,1.3,0,0,0,75.17,83.68Z"/><path class="cls-1" d="M101.55,75.31a23.15,23.15,0,0,0,.9-32.77h19l6.87,6.86h11.12l.25.48c.42.82.83,1.66,1.21,2.5s.86,1.92,1.26,2.89.85,2.15,1.24,3.24c.28.78.54,1.56.79,2.35a66.23,66.23,0,0,1,3.2,19.24,58.78,58.78,0,0,1-4.51,23.31,63.06,63.06,0,0,1-3.4,6.9c-1.75,3.07-3.68,6-5.44,9.1-1.62,2.84-3.3,5.64-5.07,8.39a73.46,73.46,0,0,1-8.34,11.25H70.86V125.92l29.92-31.76.77-.82v-18Z"/><path class="cls-1" d="M136.43,178.74a8.24,8.24,0,0,1,8.24,8.24H46.42a8.24,8.24,0,0,1,8.24-8.24Z"/><path class="cls-1" d="M48.35,190.28h94.39a5.3,5.3,0,0,1,5.3,5.31h-105A5.3,5.3,0,0,1,48.35,190.28Z"/><path class="cls-1" d="M133.24,170.59a4.84,4.84,0,0,1,4.84,4.83v0H53v0a4.83,4.83,0,0,1,4.83-4.83Z"/><path class="cls-1" d="M59,163.48c6.9-3.79,11.73-12.68,11.73-20.93h49.59c0,8.24,4.84,17.13,11.73,20.92a4.16,4.16,0,0,1,2.21,3.63v.19H56.81v-.19A4.16,4.16,0,0,1,59,163.48Z"/><path class="cls-1" d="M149.37,30.47a6.93,6.93,0,0,1,1.59,4s7.53-11.31,5.7-17.81-16.21-5.78-16.21-5.78h-4.79l-4.35-4.59a6,6,0,0,0-4.39-1.92H68.53L91.36,16.7,78.16,30.23l9.74-.39L82,35.57a24.51,24.51,0,0,1,3.65-.29,23,23,0,0,1,13.61,4.43h23.42l6.86,6.86h8.4l-.25-.44c-.24-.4-.48-.79-.73-1.18a13.48,13.48,0,0,1-.8-1.31l-.63-1.23c-.33-.65-.66-1.29-1-1.94-.43-.84-.86-1.68-1.28-2.53s-1-2-1.51-3-1.13-2.26-1.69-3.4a15,15,0,0,1,7.22-4.83A11,11,0,0,1,149.37,30.47Zm-18.51-20-3.23,2-1.87,2.56c-1-.47-3.78-1.64-6.28-2.58-2.2-.84-5.15-1.77-5.88-2a0,0,0,0,1,0-.05h17.23A0,0,0,0,1,130.86,10.49Z"/></svg>