<svg id="Layer_1" data-name="Layer 1" xmlns="http://www.w3.org/2000/svg" viewBox="0 0 150 150"><defs><style>.cls-1{fill:#ef1686;}</style></defs><path class="cls-1" d="M137,105.62v25.57a6.14,6.14,0,0,1-6.14,6.14H16.39a6.15,6.15,0,0,1-6.15-6.14V105.62a6.15,6.15,0,0,1,6.15-6.15h8.67v19.75h97.12V99.47h8.68A6.14,6.14,0,0,1,137,105.62Z"/><circle class="cls-1" cx="73.62" cy="36.06" r="18.95"/><path class="cls-1" d="M79.38,99.47V59.25a23.87,23.87,0,1,0-9.87.35V99.47H28.35v16.46h90.54V99.47ZM52.63,36.06a21,21,0,1,1,21,21A21,21,0,0,1,52.63,36.06Z"/></svg>