<svg id="Layer_1" data-name="Layer 1" xmlns="http://www.w3.org/2000/svg" xmlns:xlink="http://www.w3.org/1999/xlink" viewBox="0 0 200 200"><defs><style>.cls-1{fill:url(#linear-gradient);}.cls-2{fill:url(#linear-gradient-2);}.cls-3{fill:url(#linear-gradient-3);}.cls-4{fill:url(#linear-gradient-4);}.cls-5{fill:url(#linear-gradient-5);}.cls-6{fill:url(#linear-gradient-6);}.cls-7{fill:url(#linear-gradient-7);}.cls-8{fill:url(#linear-gradient-8);}</style><linearGradient id="linear-gradient" x1="34.14" y1="38.64" x2="169.84" y2="174.34" gradientUnits="userSpaceOnUse"><stop offset="0" stop-color="#050823"/><stop offset="0.01" stop-color="#050927"/><stop offset="0.02" stop-color="#070a33"/><stop offset="0.03" stop-color="#090d48"/><stop offset="0.04" stop-color="#0d1064"/><stop offset="0.05" stop-color="#101480"/><stop offset="0.09" stop-color="#131983"/><stop offset="0.13" stop-color="#1d288a"/><stop offset="0.18" stop-color="#2d4196"/><stop offset="0.24" stop-color="#4363a8"/><stop offset="0.29" stop-color="#608fbe"/><stop offset="0.35" stop-color="#83c4d9"/><stop offset="0.35" stop-color="#86c9db"/><stop offset="0.37" stop-color="#8dccdc"/><stop offset="0.41" stop-color="#a0d6de"/><stop offset="0.44" stop-color="#bee6e1"/><stop offset="0.45" stop-color="#c2e8e1"/><stop offset="0.46" stop-color="#c7eae4"/><stop offset="0.49" stop-color="#d7f0eb"/><stop offset="0.51" stop-color="#f0f9f7"/><stop offset="0.53" stop-color="#fffffe"/><stop offset="0.53" stop-color="#d9e4e8"/><stop offset="0.54" stop-color="#a3bdc8"/><stop offset="0.55" stop-color="#779dae"/><stop offset="0.56" stop-color="#54849a"/><stop offset="0.56" stop-color="#3b728b"/><stop offset="0.57" stop-color="#2c6782"/><stop offset="0.58" stop-color="#27637f"/><stop offset="0.59" stop-color="#36758b"/><stop offset="0.62" stop-color="#5195a2"/><stop offset="0.64" stop-color="#67afb4"/><stop offset="0.67" stop-color="#76c1c1"/><stop offset="0.7" stop-color="#7fccc9"/><stop offset="0.74" stop-color="#82cfcb"/><stop offset="0.83" stop-color="#85d0cc"/><stop offset="0.89" stop-color="#8ed4cd"/><stop offset="0.94" stop-color="#9dd9d0"/><stop offset="0.99" stop-color="#b3e2d5"/><stop offset="1" stop-color="#b9e4d6"/></linearGradient><linearGradient id="linear-gradient-2" x1="47.39" y1="66.99" x2="87.71" y2="107.32" xlink:href="#linear-gradient"/><linearGradient id="linear-gradient-3" x1="77.62" y1="65.38" x2="136.53" y2="124.29" xlink:href="#linear-gradient"/><linearGradient id="linear-gradient-4" x1="70.31" y1="159.03" x2="122.28" y2="211" xlink:href="#linear-gradient"/><linearGradient id="linear-gradient-5" x1="68.93" y1="166.87" x2="123.67" y2="221.61" xlink:href="#linear-gradient"/><linearGradient id="linear-gradient-6" x1="73.97" y1="151.81" x2="118.62" y2="196.46" xlink:href="#linear-gradient"/><linearGradient id="linear-gradient-7" x1="73.58" y1="138.68" x2="119.02" y2="184.12" xlink:href="#linear-gradient"/><linearGradient id="linear-gradient-8" x1="82.06" y1="-12.27" x2="140.64" y2="46.31" xlink:href="#linear-gradient"/></defs><path class="cls-1" d="M157.56,15.87c-1.84-6.51-16.25-5.79-16.25-5.79H136.5l-4.36-4.6a6.05,6.05,0,0,0-4.4-1.92H69.22L92.11,15.87,78.87,29.43l9.77-.38-6,5.74A23.22,23.22,0,0,1,100,38.93h23.47l6.88,6.88h8.42c0-.07-.09-.15-.14-.23s-.24-.42-.37-.63l-.48-.76-.2-.32c-.3-.48-.58-1-.83-1.46l-.4-.77c-.33-.64-.65-1.29-1-1.94l-1.28-2.53c-.51-1-1-2-1.52-3l-1.68-3.4a14.94,14.94,0,0,1,7.23-4.84,11,11,0,0,1,12.13,3.78,6.93,6.93,0,0,1,1.59,4S159.38,22.39,157.56,15.87ZM131.68,9.65l-3.22,2-1.88,2.57c-1-.47-3.78-1.64-6.29-2.59-2.21-.84-5.17-1.77-5.9-2a0,0,0,0,1,0-.06h17.26S131.71,9.63,131.68,9.65Zm13.39,50.48c-.25-.79-.51-1.57-.79-2.35-.39-1.09-.8-2.17-1.24-3.25s-.82-1.94-1.26-2.9-.95-2-1.46-3H129.16l-6.87-6.88H103.22a23.22,23.22,0,0,1-.9,32.85V92.69l-.77.82-30,31.83v13.17h49.89a69,69,0,0,0,7.72-10.28c1.91-2.95,3.76-5.94,5.5-9,1.82-3.22,3.85-6.32,5.68-9.54a62.33,62.33,0,0,0,3.4-6.91,58.71,58.71,0,0,0,4.52-23.36A66.17,66.17,0,0,0,145.07,60.13Zm-12.16,103c-6.91-3.8-11.76-12.71-11.76-21H71.44c0,8.26-4.84,17.17-11.75,21a4.17,4.17,0,0,0-2.21,3.64v.19h77.64v-.19A4.17,4.17,0,0,0,132.91,163.08Zm1.17,7.13H58.52a4.85,4.85,0,0,0-4.85,4.84v0h85.26v0A4.85,4.85,0,0,0,134.08,170.21Zm9.52,19.73H49a5.32,5.32,0,0,0-5.32,5.32H148.92A5.32,5.32,0,0,0,143.6,189.94Zm-6.32-11.56h-82a8.26,8.26,0,0,0-8.26,8.26h98.47A8.25,8.25,0,0,0,137.28,178.38ZM75.88,83.15a1.31,1.31,0,1,0,1.31,1.31A1.31,1.31,0,0,0,75.88,83.15Zm21.8-25.77a4.19,4.19,0,0,1-3-2.63H87.21a4.15,4.15,0,0,1-7.8,0h-2l-4.16,4.4V73.5L58,89.59l-2.11,14,16.3-17.23a4.09,4.09,0,0,1-.27-3.06,4.16,4.16,0,1,1,5,5.24,4.19,4.19,0,0,1-2.66-.23l-19.11,20.2-2.12,14,19.17-20.26A4.14,4.14,0,0,1,75,96.27a4.16,4.16,0,0,1,5,5,4.11,4.11,0,0,1-3.05,3.09,4.17,4.17,0,0,1-2.65-.22l-22,23.23L49.65,144.6l39.72-42.16V69.24l.94-.34a11.72,11.72,0,0,0,7.75-11C97.93,57.71,97.8,57.55,97.68,57.38ZM60.57,72.5,58.73,84.67l11.63-12.3V62.15ZM106.7,56.43a20.46,20.46,0,0,0-19-18.9c-.45,0-.9-.05-1.34-.05A20.35,20.35,0,0,0,69.13,47h0c-.29.45-6.33,10.9-6.33,10.9l-1.47,9.7L76.14,51.91h3.27a4.15,4.15,0,0,1,7.8,0H94.7a4.15,4.15,0,1,1,6.15,4.9c0,.36.05.71.05,1.07A14.58,14.58,0,0,1,92.21,71.2V99.42l7.27-7.71V73.49A20.34,20.34,0,0,0,106.7,56.43ZM75.88,99a1.31,1.31,0,1,0,1.31,1.31A1.31,1.31,0,0,0,75.88,99ZM98.6,52a1.32,1.32,0,1,0,1.31,1.31A1.31,1.31,0,0,0,98.6,52ZM83.31,52a1.32,1.32,0,1,0,1.31,1.31A1.31,1.31,0,0,0,83.31,52Z"/><path class="cls-2" d="M48.76,146.27l2.93-19.33.13-.14,22.26-23.53.38.17a3.63,3.63,0,0,0,1.41.29,3.56,3.56,0,1,0-3.55-3.55,3.5,3.5,0,0,0,.38,1.58l.19.38-20.77,22,2.43-16,.13-.14,19.4-20.5.38.16a3.47,3.47,0,0,0,1.41.3,3.56,3.56,0,1,0-3.55-3.56,3.51,3.51,0,0,0,.38,1.59l.19.38L55,105.21l2.43-16,.13-.13L72.59,73.11V58.76L77.09,54h2.73l.15.39a3.55,3.55,0,0,0,6.67,0l.14-.39h8.33l.15.39a3.51,3.51,0,0,0,2.86,2.3l.5.07,0,.66c0,.1,0,.2,0,.3a12.34,12.34,0,0,1-8.15,11.59l-.54.2v33Zm4.06-18.78-2.3,15.15,38.24-40.59V68.67l1.34-.48A11.12,11.12,0,0,0,97.45,57.8a4.73,4.73,0,0,1-3.16-2.59H87.6a4.75,4.75,0,0,1-8.6,0H77.61l-3.81,4V73.59L58.54,89.72l-1.8,11.88L71.45,86.05a4.68,4.68,0,0,1-.33-1.74,4.76,4.76,0,1,1,4.75,4.76,4.7,4.7,0,0,1-1.49-.24L55.68,108.6l-1.8,11.88,17.57-18.57a4.67,4.67,0,0,1-.33-1.73,4.76,4.76,0,1,1,4.75,4.75,4.7,4.7,0,0,1-1.49-.24Zm23.05-25.4a1.92,1.92,0,1,1,1.92-1.91A1.92,1.92,0,0,1,75.87,102.09Zm0-2.63a.72.72,0,0,0,0,1.43.72.72,0,0,0,0-1.43Zm15.74,1.33V70.66L92,70.5a14,14,0,0,0,8.33-12.77c0-.32,0-.63,0-1l0-.36.3-.19A3.55,3.55,0,1,0,95.26,52l-.15.4H86.78l-.14-.4A3.55,3.55,0,0,0,80,52l-.15.4H76.39l-16,16.86,1.77-11.7.06-.1C62.51,57,68.32,47,68.61,46.51a21,21,0,1,1,31.47,27.11V91.8Zm1.2-29.35V97.76l6.07-6.44V73.06l.21-.18A19.79,19.79,0,1,0,69.63,47.14c-.23.36-4.17,7.16-6.27,10.8l-1.17,7.68L75.87,51.16H79a4.75,4.75,0,0,1,8.6,0h6.69A4.76,4.76,0,1,1,101.47,57c0,.24,0,.5,0,.76A15.16,15.16,0,0,1,92.81,71.44Zm-35,14.88L60,72.08,71,60.49v12Zm3.29-13.69L59.6,82.71,69.75,72V63.51Zm14.74,13.6a1.92,1.92,0,1,1,1.92-1.92A1.92,1.92,0,0,1,75.87,86.23Zm0-2.63a.72.72,0,1,0,.71.71A.71.71,0,0,0,75.87,83.6ZM98.59,55.1a1.92,1.92,0,1,1,1.91-1.91A1.92,1.92,0,0,1,98.59,55.1Zm0-2.63a.72.72,0,1,0,.71.72A.71.71,0,0,0,98.59,52.47ZM83.3,55.1a1.92,1.92,0,1,1,1.92-1.91A1.92,1.92,0,0,1,83.3,55.1Zm0-2.63a.72.72,0,0,0,0,1.43.72.72,0,0,0,0-1.43Z"/><path class="cls-3" d="M121.72,139.11H71v-14l30.77-32.65V74.36l.19-.18A22.74,22.74,0,0,0,109,57.73a22.5,22.5,0,0,0-6.21-15.54l-1-1h20.71l6.88,6.88h11.27l.28.53.14.27c.42.83.83,1.68,1.22,2.53s.87,1.94,1.27,2.92.87,2.19,1.26,3.28c.27.79.54,1.58.79,2.37a66.94,66.94,0,0,1,3.24,19.46,59.81,59.81,0,0,1-4.57,23.6,61.82,61.82,0,0,1-3.44,7c-.89,1.58-1.85,3.15-2.78,4.66s-1.81,3-2.67,4.47c-1.75,3-3.41,5.8-5.09,8.43a75.33,75.33,0,0,1-8.44,11.37ZM72.16,137.9h49a75.85,75.85,0,0,0,8.12-11c1.67-2.61,3.32-5.35,5.06-8.38.87-1.52,1.79-3,2.69-4.49s1.87-3.07,2.76-4.63a62.91,62.91,0,0,0,3.37-6.85,58.71,58.71,0,0,0,4.48-23.12,66,66,0,0,0-3.18-19.12c-.25-.77-.51-1.55-.79-2.33-.38-1.07-.79-2.15-1.23-3.22s-.81-1.93-1.25-2.87-.79-1.68-1.2-2.49l-.08-.15h-11L122,42.38H104.56a23.68,23.68,0,0,1,5.63,15.35,24,24,0,0,1-7.27,17.14V92.93L72.16,125.58Z"/><path class="cls-4" d="M146.14,187.14H46.46v-.6a8.88,8.88,0,0,1,8.86-8.86h82a8.88,8.88,0,0,1,8.86,8.86Zm-98.45-1.2h97.22a7.66,7.66,0,0,0-7.63-7.05h-82A7.66,7.66,0,0,0,47.69,185.94Z"/><path class="cls-5" d="M149.52,195.77H43.08v-.6A5.93,5.93,0,0,1,49,189.25h94.6a5.93,5.93,0,0,1,5.92,5.92Zm-105.2-1.2h104a4.73,4.73,0,0,0-4.68-4.12H49A4.73,4.73,0,0,0,44.32,194.57Z"/><path class="cls-6" d="M138.93,175.57H53.07V175a5.46,5.46,0,0,1,5.45-5.46h75.56a5.46,5.46,0,0,1,5.45,5.45v.6Zm-84.62-1.2h84a4.25,4.25,0,0,0-4.2-3.66H58.52A4.27,4.27,0,0,0,54.31,174.37Z"/><path class="cls-7" d="M135.72,167.42H56.88v-.79a4.8,4.8,0,0,1,2.52-4.17h0C66,158.81,70.84,150.21,70.84,142v-.6h50.91v.6c0,8.21,4.82,16.8,11.45,20.45a4.8,4.8,0,0,1,2.52,4.17Zm-77.61-1.2h76.38a3.62,3.62,0,0,0-1.87-2.71c-6.83-3.75-11.83-12.47-12.06-20.9H72c-.23,8.43-5.23,17.15-12.06,20.9h0A3.6,3.6,0,0,0,58.11,166.22Z"/><path class="cls-8" d="M139.83,46.41h-9.74l-6.88-6.87H99.79l-.16-.12A22.4,22.4,0,0,0,86.35,35.1a23,23,0,0,0-3.56.28l-1.88.3,6.18-6-9.7.38L91.12,16,66.83,3h60.91a6.72,6.72,0,0,1,4.84,2.11l4.18,4.41h4.55c.58,0,14.88-.67,16.82,6.23h0c1.88,6.71-5.48,17.88-5.8,18.35l-1.1,1.65v-2A6.26,6.26,0,0,0,149.76,30a10.36,10.36,0,0,0-11.47-3.57,14.61,14.61,0,0,0-6.7,4.35l.24.48c.42.86.84,1.72,1.27,2.57l1.51,3,.37.73.91,1.8.38.75c.2.4.4.79.61,1.18.08.18.17.35.26.52l.37.73c.16.31.34.59.56.93.07.11.13.21.2.3l.49.8c.09.14.18.28.26.43a2.53,2.53,0,0,1,.13.22l0,.07a1,1,0,0,0,.08.14Zm-9.24-1.2h7.11c-.14-.24-.29-.47-.44-.7l-.21-.33a10.72,10.72,0,0,1-.61-1l-.37-.72-.27-.52-.6-1.19-.38-.75c-.31-.6-.61-1.2-.91-1.8l-.37-.73c-.51-1-1-2-1.51-3l-1.28-2.57-.57-1.16.21-.29a15.5,15.5,0,0,1,7.54-5.07,11.56,11.56,0,0,1,12.79,4A8.71,8.71,0,0,1,152.17,32c1.88-3.15,6.18-11.11,4.81-16h0c-1.68-6-15.5-5.37-15.64-5.36h-5.1L131.71,5.9a5.49,5.49,0,0,0-4-1.74H71.6L93.09,15.72,80.35,28.77l9.83-.39L84.4,34c.66-.06,1.31-.08,1.95-.08a23.65,23.65,0,0,1,13.83,4.43h23.53ZM126.77,15l-.44-.2c-1.11-.51-3.86-1.68-6.25-2.57s-5.51-1.88-5.86-2l-.52-.16.09-.56a.62.62,0,0,1,.62-.51h17.72l.15.47a.63.63,0,0,1-.28.7l-3.13,1.95ZM118,10.19c.83.28,1.7.59,2.48.89,2.32.87,4.7,1.88,5.88,2.4L128,11.21l1.64-1Z"/></svg>