<?xml version="1.0" standalone="no"?>
<!DOCTYPE svg PUBLIC "-//W3C//DTD SVG 20010904//EN"
 "http://www.w3.org/TR/2001/REC-SVG-20010904/DTD/svg10.dtd">
<svg version="1.0" xmlns="http://www.w3.org/2000/svg"
 width="700.000000pt" height="700.000000pt" viewBox="0 0 700.000000 700.000000"
 preserveAspectRatio="xMidYMid meet">
<metadata>
Created by potrace 1.14, written by Peter Selinger 2001-2017
</metadata>
<g transform="translate(0.000000,700.000000) scale(0.100000,-0.100000)"
fill="#000000" stroke="none">
<path d="M2 4443 l3 -2558 853 0 852 0 480 -480 480 -480 680 -1 c374 0 680 2
680 4 0 2 -15 30 -34 61 -19 31 -48 83 -66 116 -32 60 -76 131 -131 213 -16
23 -29 45 -29 48 0 3 -9 19 -21 35 -25 36 -90 163 -521 1018 l-349 694 109
107 c203 198 404 329 687 449 56 24 258 86 310 96 145 26 401 31 515 10 321
-59 612 -212 821 -431 151 -159 242 -313 285 -481 21 -85 25 -121 26 -270 1
-166 1 -172 18 -150 46 59 261 398 328 517 14 25 34 61 45 80 51 90 69 125
139 260 114 222 246 528 308 710 56 166 112 371 126 460 3 19 8 38 10 41 1 3
6 28 9 55 3 27 10 76 14 109 15 97 6 379 -13 470 -58 269 -230 476 -524 632
-173 92 -422 174 -662 219 -14 3 -43 9 -65 14 -22 5 -62 12 -90 16 -27 3 -57
8 -67 9 -45 9 -147 21 -246 30 -37 4 -87 9 -112 11 -25 3 -315 7 -645 9 l-600
4 -93 98 c-51 54 -148 156 -215 227 -149 159 -353 364 -389 393 -86 69 -203
125 -348 166 -75 22 -82 22 -1318 25 l-1242 3 2 -2558z m2078 1547 l525 -1
-70 -43 c-38 -25 -90 -57 -115 -73 -32 -20 -74 -69 -152 -178 -60 -82 -113
-152 -118 -153 -10 -4 -165 59 -298 119 -34 16 -66 29 -71 29 -5 0 -35 12 -67
26 -87 38 -472 186 -602 230 -62 21 -106 41 -98 44 9 3 134 4 278 3 145 -1
499 -2 788 -3z"/>
<path d="M4 1651 c-2 -2 -4 -375 -4 -828 l0 -823 2240 0 2240 0 -9 23 c-9 21
-38 86 -114 252 -18 39 -70 147 -117 240 l-85 170 -790 3 -790 2 -482 482
-482 482 -801 0 c-441 1 -804 -1 -806 -3z"/>
</g>
</svg>
