<?xml version="1.0" encoding="UTF-8"?>
<svg width="600" height="600" version="1.1" xmlns="http://www.w3.org/2000/svg">
 <g stroke="#231f20">
  <path d="m11.01 300c0-159.61 129.38-289 289-289s289 129.38 289 289c0 159.61-129.38 289-289 289s-289-129.38-289-289" fill="#fab70a" stroke-width="2.0035"/>
  <path d="m21.5 300c0-153.81 124.69-278.51 278.51-278.51s278.49 124.69 278.49 278.51-124.67 278.51-278.49 278.51-278.51-124.69-278.51-278.51z" fill="none" stroke-width="1.3357"/>
  <path d="m28.53 300c0-149.93 121.55-271.48 271.48-271.48s271.48 121.55 271.48 271.48-121.55 271.48-271.48 271.48-271.48-121.55-271.48-271.48" fill="#fff" stroke-width="2.6889"/>
  <path d="m81.97 300c0-120.42 97.61-218.03 218.03-218.03s218.03 97.61 218.03 218.03-97.61 218.03-218.03 218.03-218.03-97.61-218.03-218.03" fill="#fab70a" stroke-width="2.6889"/>
  <path d="m88.59 300c0-116.77 94.657-211.41 211.41-211.41 116.77 0 211.42 94.64 211.42 211.41s-94.657 211.41-211.42 211.41c-116.75 0-211.41-94.64-211.41-211.41" fill="#114781" stroke-width="1.3357"/>
  <path d="m248.5 210.71c-10.703-23.409 9.3673-25.079 9.3673-25.079-9.0334-16.063 5.0967-21.406 5.0967-21.406 0-1.0018 0.84359-2.4253 2.1793-3.761 1.3357-1.3357 4.587-1.2654 4.587-1.2654 0-9.0158 8.6995-12.197 11.547-12.706 2.8471-0.49209 4.2355 1.0018 4.2355 1.0018 1.5466-0.89631 3.2865 0.75571 3.2865 0.75571 1.3357-2.3374 4.5167-5.7645 13.216-5.7645 7.3638 0 9.6836 2.3023 12.039 6.2214 2.6889-1.6872 7.9086-0.70299 8.5237 1.1424 0 0 2.5132-1.6872 3.5149 2.0035 0.0527 0.17575 2.8471-2.1793 5.5888 1.7575 1.9332 2.7592 2.0914 6.2566 2.0914 6.2566s1.4763-0.73814 3.181-0.73814c1.8453 0 3.181 0.0703 4.1828 3.0932v5.3427s4.3585 0.66784 7.3638 5.0264c6.6081 9.543 0 23.409 0 23.409 3.3392 1.6696 5.3427 5.0088 5.6766 11.371 0.33391 6.3445-5.6766 11.705-5.6766 11.705 1.0018 3.6731-2.3374 5.0088-2.3374 5.0088 8.0141 22.742-44.815 26.081-44.815 26.081s-18.735 2.6889-35.782-6.0106c-17.065-8.6995-13.392-19.069-13.392-19.069-9.6837-5.6766-4.6749-16.714-4.6749-16.714" fill="#fff" stroke-width="1.3357"/>
 </g>
 <g fill="#231f20">
  <path d="m345.49 78.16-15.132-2.4605 0.15818-0.98418c4.7452 0.54481 5.0967-0.61512 5.7294-4.4464l4.2179-25.923-2.7944-0.45694c-5.7118-0.93146-7.2759-0.17575-9.3322 5.29l-1.2478-0.21089 1.7575-8.7522 29.244 4.7627-1.1424 8.8576-1.2302-0.19332c-0.15818-5.8875-1.4587-7.065-7.1705-7.9789l-2.7944-0.45693-4.3234 26.485c-0.57996 3.5325-0.10545 4.6221 4.2179 5.4833z"/>
  <path d="m81.65 373.77c1.7048-0.52724 1.8805-1.2302 1.1424-3.6555-0.98418-3.2162-4.7452-15.606-19.402-11.142-4.2179 1.283-7.9438 3.7434-10 8.1722-1.4236 3.058-1.9332 6.3093 0 12.636 0.72056 2.3726 1.6872 2.0738 2.6889 1.775zm5.8875 8.6643c-1.3708-3.761-2.355-4.1301-5.8875-3.058l-22.355 6.8014c-3.7258 1.1424-4.0598 1.8453-3.181 5.8172l-0.94904 0.29877-4.1476-13.603c-3.6731-12.074-0.61512-21.757 10.65-25.185 6.696-2.0387 17.786-1.072 22.46 14.341l4.3585 14.288z"/>
  <path d="m74.24 320.78 4.3585 28.067-0.98419 0.1406c-0.72056-3.2865-1.3708-4.4112-5.3778-3.7961l-23.058 3.6028c-4.1125 0.63268-4.2355 1.9332-3.9719 5.2548l-1.0018 0.1406-4.2882-27.592 7.3989-1.3005 0.2109 1.3005c-4.5167 1.4938-5.1318 2.9701-4.2355 8.7346l1.1072 7.0123c0.15818 1.1072 0.26362 1.7223 2.0211 1.4411l11.547-1.7926-1.2478-7.9965c-0.72056-4.6221-2.0562-4.9561-5.8348-4.9561l-0.17575-1.1951 12.039-1.8805 0.19332 1.2126c-4.0598 1.2654-4.6573 2.1617-4.0422 6.4851l1.1424 8.014 12.882-2.0035c2.1265-0.33392 2.1793-0.35149 0.98418-8.0844-1.0193-6.5026-2.9877-8.8576-8.5764-10.316l-0.22847-1.4587z"/>
  <path d="m56.38 305.76c0.0879-1.0018 0.1406-2.0562 0.12302-3.1634-0.0176-1.9332-0.0879-8.9807-8.0844-8.8928-7.522 0.0703-7.5396 7.7504-7.522 10.07 0.0176 1.5817 0.0703 2.1441 1.8102 2.1265zm-17.311 9.9648-0.1406-13.884c-0.0703-7.2584 2.6362-13.796 9.3146-13.866 4.1125-0.0527 6.2917 2.232 7.1353 3.1283 2.1793 2.232 3.1634 5.5888 3.2162 11.107 0.0176 1.2654-0.0176 2.2671-0.10545 3.5325l9.5606-0.10545c3.8488-0.0352 4.6221-0.94903 4.6924-4.9912l0.98418-0.0176 0.15817 14.728-0.98418 0.0176c-0.36907-4.4112-1.5817-4.4112-5.3603-4.3585l-22.777 0.22847c-3.7434 0.0527-4.3585 0.63269-4.6924 4.4815z"/>
  <path d="m62.32 267.9-15.026 4.4816 13.708 7.5747zm14.886-12.056-1.4411 13.304-1.0018-0.10544c0.21089-1.9332 0.35149-3.6555-1.5817-3.8664-0.82601-0.0879-2.6362 0.40422-3.3919 0.63269l-5.2548 1.5993-1.4763 13.673 5.8348 3.058c0.65026 0.35149 1.3708 0.57996 1.9508 0.63269 2.1793 0.24604 2.4605-2.1968 2.5659-3.304l1.0018 0.10545-1.1248 10.334-1.0018-0.10545c0.0352-0.84358 0.0352-1.7399-0.86115-2.7768-1.1775-1.3532-4.7979-3.3919-6.9947-4.6221l-24.446-13.656 0.10545-1.0369 31.072-9.7715c3.9895-1.2654 4.6573-1.9332 5.0615-4.2004z"/>
  <path d="m62.74 241.57c1.0896-4.2706 3.0404-11.916-4.2179-13.866-6.7663-1.8102-8.6995 4.7979-9.2443 6.8717-0.73814 2.6889-0.49209 3.2513 0.96661 3.638zm23.62-18.436-2.1968 8.1898-18.875 7.8735-0.66784 2.8822 10 2.6714c3.4095 0.91388 4.4991 0.66784 5.7996-3.3392l0.9666 0.26362-3.7786 14.06-0.96661-0.26362c0.84358-4.1828-0.15817-4.6573-3.9719-5.6942l-21.986-5.8875c-3.761-1.0018-4.4112-0.36907-5.7118 3.0931l-0.96661-0.26362 3.761-14.007c1.1951-4.5167 4.5167-12.619 12.337-10.51 6.8014 1.8102 6.2566 8.7522 6.0633 11.476l15.641-7.0123c1.6696-0.75571 2.9174-1.7223 3.5852-3.7786z"/>
  <path d="m94.3 205.28-5.8172 14.183-0.93146-0.38664c1.6169-4.4991 0.56239-5.0967-3.0228-6.5729l-24.288-9.9648-1.0721 2.6186c-2.1968 5.3427-1.8102 7.0299 3.0404 10.281l-0.47451 1.1599-8.1371-3.6731 11.248-27.399 8.3656 3.0932-0.47452 1.1775c-5.7645-1.1775-7.188-0.17574-9.3849 5.167l-1.0721 2.6186 24.815 10.193c3.304 1.3533 4.464 1.1424 6.2742-2.8822z"/>
  <path d="m90.54 144.18c-1.5114 2.9525-1.8981 4.2004 1.6344 6.362l19.877 12.179c3.4446 2.1265 4.4816 1.3357 6.4148-1.4236l0.84358 0.52724-7.6801 12.531-0.84358-0.52724c1.9508-3.6028 1.6344-4.587-2.0387-6.8366l-20.088-12.32-0.0527 0.0879 18.489 26.977-0.38664 0.63269-31.265-3.8489-0.0527 0.0879 17.856 10.949c4.6222 2.8295 6.1687 2.4956 8.3128-0.68541l0.84359 0.50966-6.4499 10.527-0.84359-0.52724c1.8629-3.5325 1.775-4.8858-3.0756-7.8559l-18.155-11.142c-3.4974-2.1265-4.4288-1.406-6.6432 1.7926l-0.84359-0.52724 5.4306-8.8576 28.946 3.5149-16.538-23.743 5.4657-8.9104z"/>
  <path d="m139.23 139.77-18.77 21.318-0.73813-0.65026c2.0562-2.6714 2.5132-3.884-0.54482-6.5729l-17.522-15.413c-3.1283-2.7592-4.1828-2.0211-6.5729 0.29877l-0.75572-0.65027 18.453-20.967 5.7469 4.8506-0.86116 0.98418c-4.0422-2.5132-5.5712-2.0387-9.4376 2.355l-4.6924 5.3251c-0.72056 0.82601-1.1424 1.3005 0.19333 2.478l8.7698 7.7153 5.3603-6.0808c3.0931-3.5149 2.4956-4.7452 0.0703-7.645l0.79086-0.91388 9.1564 8.0668-0.79086 0.91389c-3.5677-2.3023-4.6573-2.1968-7.5747 1.0369l-5.4306 6.0106 9.7891 8.6116c1.6169 1.4411 1.6696 1.4763 6.8366-4.4112 4.341-4.9385 4.9033-7.9613 2.4429-13.199l0.96661-1.1072z"/>
  <path d="m148.39 87.81c-2.3023 2.4077-3.4622 3.638 0.47452 8.3656l17.698 21.248-0.68541 0.56239-36.204-7.3286-0.0879 0.0703 13.111 15.747c3.4798 4.1652 5.0615 4.341 8.1195 2.0211l0.63269 0.75572-9.4903 7.9086-0.63269-0.77329c2.8998-2.7592 3.2338-4.0598-0.40422-8.4183l-14.833-17.821c-3.3392-0.63268-4.1476-0.29877-5.7645 1.0545l-0.65027-0.77329 6.9244-5.7469 31.634 6.5378 0.0879-0.0703-11.23-13.497c-3.884-4.6397-5.2724-4.0246-8.1898-1.9332l-0.63269-0.77328 9.4903-7.9086z"/>
  <path d="m188.2 103.07-13.058 8.1019-0.52724-0.84357c3.9543-2.7065 3.4622-3.8137 1.406-7.1353l-13.884-22.337-2.4077 1.4938c-4.9209 3.058-5.6063 4.6573-3.5501 10.141l-1.072 0.66784-4.464-7.768 25.22-15.659 4.9736 7.4341-1.072 0.66784c-3.9719-4.341-5.7294-4.3585-10.65-1.3181l-2.4077 1.5114 14.183 22.83c1.8805 3.0404 2.9526 3.5677 6.7838 1.3708z"/>
  <path d="m247.6 61.7c-3.1634-11.564-9.9121-14.13-15.097-12.706-5.167 1.406-9.6661 7.065-6.5026 18.629 3.058 11.142 9.4728 14.253 15.097 12.706s9.5606-7.4692 6.5026-18.629m-27.364 7.5571c-3.1986-11.67 3.4622-19.807 11.775-22.091 8.3128-2.2847 18.19 1.3357 21.388 13.005 2.9526 10.791-2.6362 19.473-11.81 21.986s-18.401-2.109-21.353-12.9"/>
  <path d="m284.63 61.87c-1.0545-4.3234-2.355-4.71-6.2742-4.341l-7.5923 0.72057 1.2478 11.424c0.42179 3.9192 1.529 4.4288 5.2548 4.1828l0.10545 1.0018-14.622 1.5817-0.10545-1.0018c3.9016-0.63269 4.4288-1.4763 3.9719-5.7645l-2.4429-22.601c-0.43937-4.13-1.7223-4.3058-5.0439-4.2004l-0.10545-1.0018 27.715-2.9877 0.96661 7.4517-1.3005 0.12303c-1.3005-4.5518-2.7416-5.2373-8.5413-4.6222l-7.1002 0.77329c-1.3005 0.1406-1.6344 0.38664-1.4763 1.9508l1.2654 11.599 7.5571-0.82601c4.2882-0.45695 5.1142-1.5993 5.2197-5.5712l1.1951-0.1406 1.3005 12.127z"/>
  <path d="m355.3 78.96c4.2531 1.1775 4.8155 0.1406 6.0457-3.6028l7.1002-21.617c1.2126-3.7083 0.66783-4.4288-2.9174-5.9402l0.31634-0.94903 13.866 4.5518-0.29877 0.94904c-3.9016-0.94904-4.71-0.49209-5.8699 3.058l-3.181 9.6837 15.132 4.956 3.181-9.6836c1.2126-3.6907 0.66784-4.4288-2.9174-5.9402l0.29877-0.94903 13.884 4.5694-0.31634 0.94903c-3.884-0.94903-4.6924-0.49208-5.87 3.0404l-7.2584 22.179c-1.0896 3.304-0.8963 4.4112 2.9174 5.9402l-0.31634 0.94902-13.884-4.5694 0.31635-0.93146c4.2531 1.1599 4.8155 0.1406 6.0457-3.6204l3.1986-9.7364-15.132-4.9561-3.3743 10.281c-1.0896 3.304-0.89631 4.4112 2.9174 5.9402l-0.31634 0.94903-13.884-4.5518z"/>
  <path d="m418.33 106.59-25.132-13.234 0.45695-0.89631c3.0756 1.3884 4.3761 1.529 6.2566-2.0562l10.896-20.668c1.9332-3.6731 0.9666-4.5343-1.8454-6.3093l0.45695-0.89631 24.728 13.023-3.3743 6.7311-1.1599-0.61512c1.4763-4.4991 0.66783-5.8875-4.4991-8.6116l-6.2742-3.304c-0.98418-0.52724-1.5466-0.80844-2.3726 0.77329l-5.4482 10.334 7.1705 3.761c4.13 2.1968 5.1845 1.3181 7.4517-1.7223l1.0545 0.57997-5.6766 10.791-1.072-0.56239c1.406-4.0246 1.0545-5.0439-2.7944-7.1178l-7.1178-3.8664-6.0808 11.529c-1.0018 1.9156-1.0369 1.9684 5.9051 5.6239 5.8172 3.058 8.8752 2.8822 13.409-0.73812l1.3005 0.68541z"/>
  <path d="m472.59 133.45 5.8172-14.569-14.464 6.0457zm0.19332 19.174-9.5255-9.42 0.68541-0.70298c1.3884 1.3708 2.6714 2.5483 4.0246 1.1599 0.59754-0.59754 1.3357-2.3199 1.6169-3.058l2.0211-5.0967-9.8067-9.6837-6.0457 2.6889c-0.66784 0.29877-1.283 0.70299-1.6872 1.1248-1.5642 1.5642 0.19332 3.304 0.98418 4.0773l-0.70299 0.70299-7.399-7.3111 0.70299-0.70299c0.63269 0.54481 1.3357 1.1072 2.7065 1.0545 1.7926-0.0879 5.6415-1.6696 7.9789-2.6186l25.905-10.668 0.75571 0.73814-11.67 30.422c-1.4938 3.9192-1.3708 4.8506 0.15817 6.5905z"/>
  <path d="m473.57 153.15c2.8647 3.4271 3.9543 3.3568 6.8717 1.0369l18.243-14.552c3.0228-2.4253 3.058-3.3919 0.50967-6.9244l0.77329-0.63269 9.7364 12.197-0.77329 0.61512c-2.5132-2.8998-3.6204-3.6907-6.9068-1.0721l-18.243 14.552c-3.1986 2.5483-2.8295 3.8664-0.47452 6.9772l-0.79086 0.61511-9.7188-12.197z"/>
  <path d="m505.65 167.97c2.355 3.7434 6.5378 10.439 12.97 6.5202 5.9754-3.6555 2.5132-9.6134 1.3884-11.459-1.4411-2.3902-2.0035-2.601-3.304-1.7926zm-2.935 29.842-4.4112-7.2408 7.3111-19.121-1.6344-2.4605-8.8401 5.3954c-3.0053 1.8278-3.5852 2.7944-1.5817 6.5026l-0.86116 0.52724-7.5747-12.443 0.84358-0.52724c2.4429 3.4974 3.4974 3.1107 6.8717 1.0545l19.455-11.863c3.3216-2.0211 3.3216-2.9526 1.7048-6.2917l0.86116-0.50966 7.5571 12.39c2.4429 4.007 6.0105 11.986-0.89631 16.204-6.0281 3.6731-10.668-1.5114-12.513-3.5325l-5.7118 16.204c-0.61511 1.7223-0.77329 3.2865 0.26362 5.1845z"/>
  <path d="m533.29 249.74c4.13-1.6696 4.3234-3.0228 3.3743-6.8541l-1.8278-7.399-11.125 2.8998c-3.8137 1.0018-4.1652 2.1793-3.3743 5.8172l-0.96661 0.26362-3.7083-14.253 0.94903-0.24604c1.2127 3.761 2.1265 4.1828 6.2917 3.0931l22.021-5.7469c4.0246-1.0545 4.007-2.355 3.4271-5.6239l0.9666-0.24605 7.0475 27.012-7.2408 2.0387-0.33392-1.2654c4.341-1.9508 4.7979-3.4798 3.3392-9.1213l-1.8102-6.9244c-0.33392-1.2654-0.63269-1.5642-2.1617-1.1775l-11.283 2.9526 1.9156 7.3638c1.0896 4.1828 2.355 4.833 6.2917 4.3409l0.31635 1.1599-11.81 3.0932z"/>
  <path d="m543.48 284.35c11.916-1.3708 15.466-7.645 14.868-12.988-0.61512-5.3251-5.5185-10.633-17.417-9.2619-11.494 1.3181-15.536 7.188-14.868 12.97 0.66783 5.7996 5.9227 10.598 17.417 9.2794m-3.2865-28.207c12.004-1.3708 19.051 6.4499 20.035 15.009 0.98418 8.5764-4.1125 17.786-16.116 19.156-11.125 1.283-18.84-5.5536-19.93-15.009-1.0896-9.4552 4.8858-17.873 16.011-19.156"/>
  <path d="m544.27 305.56c-0.1406 4.4112-0.38665 12.285 7.1353 12.619 6.9772 0.29877 7.4341-6.5729 7.522-8.717 0.12302-2.7768-0.22847-3.2689-1.7399-3.3392zm-19.033 23.093 0.36907-8.4534 16.696-11.775 0.0176-2.9526-10.334-0.45694c-3.5149-0.1406-4.5343 0.33392-4.9209 4.5167l-1.0018-0.0352 0.63269-14.534 1.0018 0.0352c0.0703 4.2707 1.1775 4.5343 5.1142 4.6924l22.706 1.0018c3.9016 0.15818 4.3937-0.59754 4.9209-4.2531l1.0018 0.0352-0.63269 14.482c-0.21089 4.6749-1.6872 13.286-9.7715 12.935-7.0299-0.31636-7.9789-7.188-8.4007-9.8946l-13.743 10.246c-1.4587 1.0896-2.4605 2.3023-2.6714 4.4464z"/>
  <path d="m542.34 363.38c5.6766-0.22847 10.545-3.1459 11.775-9.4903 0.50967-2.5835 0.0703-5.7821-1.6344-8.3656-1.5641-2.3901-4.4288-5.3251-11.863-6.7838-10.949-2.1265-16.643 3.1283-17.926 9.6485-1.2302 6.3445 1.7047 10.773 2.935 12.689l-1.1072 0.73812c-0.0879-0.0703-5.6766-5.7645-3.8137-15.272 1.6169-8.3128 8.3304-16.274 21.195-13.761 11.564 2.2671 16.116 12.162 14.376 21.054-0.89631 4.587-3.2689 7.6098-3.4798 8.7522-0.0527 0.24605-0.38665 1.9508 1.2302 2.7065l-0.2109 1.0896-11.705-1.8102z"/>
  <path d="m508.95 388.03 9.3146-26.819 0.94903 0.33392c-0.91388 3.2338-0.86116 4.5343 2.9701 5.87l22.056 7.6626c3.9192 1.3708 4.6222 0.26362 5.9754-2.7768l0.93146 0.33392-9.1564 26.38-7.1529-2.3199 0.4218-1.2478c4.6749 0.79087 5.9227-0.22847 7.8383-5.7294l2.3374-6.7135c0.3515-1.0369 0.56239-1.6344-1.1248-2.232l-11.019-3.8137-2.6538 7.645c-1.5466 4.4112-0.52724 5.3251 2.812 7.1002l-0.40422 1.1424-11.511-4.007 0.38664-1.1424c4.1828 0.79086 5.1318 0.28119 6.6257-3.8313l2.7592-7.6098-12.32-4.2706c-2.0387-0.72056-2.0914-0.73814-4.6573 6.6608-2.1617 6.2214-1.529 9.2091 2.7241 13.146l-0.49209 1.3884z"/>
 </g>
 <path d="m300.68 468.56c16.046-14.042 41.564-25.132 56.854-30.105 25.747-8.348 32.724-28.699 33.445-40.791 0.66784-11.371-2.6714-19.402-8.6995-44.148-6.0281-24.745 11.371-65.554 11.371-65.554l-24.745-22.742h-136.45l-24.745 22.742s17.381 40.808 11.371 65.554c-6.0281 24.745-9.3673 32.777-8.6995 44.148 0.72057 12.091 7.6977 32.443 33.445 40.791 15.29 4.9736 40.808 16.063 56.854 30.105" fill="#fff" stroke="#231f20" stroke-linecap="round" stroke-linejoin="round" stroke-width="1.6696"/>
 <path d="m300.34 391.22c9.6134 0 11.125 1.4236 11.125 4.0949 0 2.3374-2.6889 1.3357-2.6889 3.6028 0 4.1828 8.8752 4.007 8.8752 4.007 8.7698 0 9.1916-4.007 9.1916-4.007 0-3.0932-2.0035-1.0896-2.0035-4.2706 0-3.4271 6.6784-3.4271 8.6116-3.4271 1.9156 0 9.5255 0.24605 9.5255 3.515 0 3.0053-2.0914 0.91387-2.0914 4.1828 0 4.2531 9.9473 3.9192 9.9473 3.9192 2.8471 0 9.3673 0 9.3673-3.6731s-2.0914-1.3357-2.0914-4.341c0-3.6907 7.4517-3.5149 9.4552-3.5149s9.3673-0.59754 9.3673 3.4271c0 3.0053-2.3374 0.82601-2.3374 3.9192 0 3.6907 9.0686 3.6907 9.0686 3.6907 2.7241-19.736-9.5782-39.965-9.5782-59.192 0-28.102 10.527-53.181 10.527-53.181l-19.385-18.735h-129.77l-19.385 18.735s10.668 25.079 10.527 53.181c-0.10545 22.39-12.83 40.457-8.8576 58.858 0 0 8.3656 0.33392 8.3656-3.3568 0-3.0932-2.355-0.91389-2.355-3.9192 0-4.0246 7.3638-3.4271 9.3673-3.4271s9.4552-0.17575 9.4552 3.5149c0 3.0053-2.0914 0.66784-2.0914 4.341s6.5202 3.6731 9.3673 3.6731c0 0 9.9473 0.33392 9.9473-3.9192 0-3.2689-2.0914-1.1775-2.0914-4.1828 0-3.2689 7.6098-3.5149 9.5255-3.5149 1.9332 0 8.6116 0 8.6116 3.4271 0 3.181-2.0035 1.1775-2.0035 4.2706 0 0 0.42179 4.007 9.1916 4.007 0 0 8.8752 0.17574 8.8752-4.007 0-2.2671-2.6889-1.2654-2.6889-3.6028 0-2.6714 1.5114-4.0949 11.125-4.0949" fill="#7dd5f7" stroke="#231f20" stroke-width="1.3357"/>
 <g fill="#fff">
  <path d="m293.51 484.77c-1.652-0.0351-2.2847 0.0703-2.478 2.1265l-1.0896 11.529c-0.19332 1.9859 0.38664 2.2847 2.0387 2.5483l-0.0527 0.4921-7.2584-0.68542 0.0351-0.49209c2.0387 0.0703 2.4077-0.28119 2.6186-2.4077l1.1072-11.652h-0.0527l-7.9965 14.148-0.36907-0.0351-5.1142-14.78-0.0527-0.0176-0.98419 10.369c-0.24604 2.6714 0.24605 3.2865 2.1265 3.5501l-0.0527 0.49209-6.0984-0.57996 0.0527-0.49209c1.9859 0.0527 2.5659-0.2812 2.8295-3.0932l1.0018-10.527c0.19332-2.0211-0.33392-2.2847-2.2496-2.5659l0.0527-0.50966 5.1318 0.49209 4.7627 13.673 6.9772-12.566 5.167 0.4921z"/>
  <path d="m243.68 476.1c-1.5817-0.47452-2.2144-0.54481-2.9526 1.3708l-4.1828 10.791c-0.72056 1.8805-0.24604 2.3199 1.2654 3.0228l-0.17575 0.45694-6.8014-2.6362 0.17574-0.45694c1.9332 0.63268 2.3902 0.38664 3.1634-1.5993l4.2179-10.931-0.0527-0.0176-11.529 11.459-0.33392-0.14059-0.93146-15.606-0.0351-0.0176-3.761 9.7012c-0.96661 2.4956-0.65026 3.2337 1.0896 3.9894l-0.17575 0.45694-5.7118-2.1968 0.17575-0.45695c1.8981 0.57997 2.5483 0.42179 3.5677-2.2144l3.8137-9.877c0.72056-1.8805 0.29877-2.2847-1.4763-3.0756l0.17575-0.45694 4.8155 1.8629 0.87873 14.446 10.123-10.211 4.833 1.8805z"/>
  <path d="m263.69 486.19c-0.0176-2.812-1.3708-5.2724-4.4991-5.993-1.2654-0.29876-2.8471-0.12302-4.1652 0.66784-1.2126 0.73814-2.7065 2.0914-3.5501 5.7469-1.2478 5.3778 1.2654 8.2952 4.464 9.0334 3.1107 0.72056 5.3603-0.65026 6.3269-1.2302l0.3515 0.56239c-0.0352 0.0527-2.9526 2.7065-7.6274 1.6169-4.0949-0.93146-7.9086-4.3937-6.4499-10.703 1.3181-5.6942 6.2917-7.768 10.668-6.7663 2.2496 0.52724 3.7083 1.7575 4.2706 1.8805 0.12302 0.0352 0.96661 0.22847 1.3532-0.56239l0.54481 0.12302-1.1072 5.7645z"/>
  <path d="m314.13 484.23c-1.3708 0.14059-2.0562 0.24604-3.8137 2.5659l-3.6555 4.8506 5.2021 6.9947c1.0545 1.406 1.5993 1.7399 2.9526 1.8278l0.0176 0.50967-7.7329 0.21089-0.0176-0.49209c1.3005-0.10545 2.0035-0.1406 1.9684-0.93146 0-0.47451-0.94904-1.8453-1.3884-2.4429l-2.5835-3.5677-2.9877 3.9367c-0.52724 0.70299-1.3005 1.7399-1.3005 2.232 0.0351 0.82601 1.0018 0.87873 2.0211 0.8963l0.0176 0.50967-6.0808 0.17575-0.0176-0.49209c1.4411-0.15818 1.7047-0.49209 3.6907-3.0932l3.9543-5.1318-2.9701-4.0949c-2.7768-3.8313-3.3216-3.8664-4.833-3.9543l-0.0176-0.49209 7.8735-0.22847 0.0176 0.49209c-1.3532 0.0703-1.9859 0.10545-1.9684 0.89631 0.0176 0.52724 0.50967 1.3708 2.3374 3.7961l1.1424 1.4938 2.8295-3.6731c0.57996-0.77328 1.0018-1.3181 0.98418-1.8102-0.0176-0.80844-0.94903-0.80844-1.8453-0.80844v-0.49209l6.1863-0.17575z"/>
  <path d="m326.95 482.57c-1.7399 0.36907-2.355 0.65026-2.0562 2.6889l1.8278 12.197c0.14059 1.0369 0.61511 0.98418 2.7592 0.66784 3.8664-0.57997 5.5009-0.93146 6.4675-4.5167l0.65026-0.10544-0.57996 4.6749-13.866 2.0738-0.0703-0.49209c1.6169-0.3515 2.1793-0.66784 1.8805-2.6538l-1.7048-11.459c-0.29877-2.0387-0.93146-2.109-2.5835-1.9859l-0.0703-0.49209 7.2759-1.0896z"/>
  <path d="m354.39 476.59c-1.1951 0.38664-1.4587 0.82601-1.7223 2.935l-1.9684 15.606-0.38664 0.0879-9.754-12.267c-1.6169-2.0211-2.1617-2.2144-3.3568-1.9508l-0.12302-0.49209 6.7135-1.7047 0.12302 0.47451c-1.3884 0.43937-1.8629 0.61512-1.652 1.4236 0.0879 0.36907 0.82601 1.283 1.7223 2.4253l6.0106 7.5571 1.3357-10.211c0-0.17574 0.15818-1.3357 0.0351-1.8629-0.28119-1.0369-1.1775-0.89631-2.1441-0.68542l-0.12302-0.49209 5.167-1.3181z"/>
  <path d="m364.93 490.08c2.0738-0.80843 2.1968-1.3357 1.5817-3.0756l-3.9543-10.861c-0.66784-1.8278-1.1072-1.9859-3.181-1.3532l-0.17574-0.45694 7.2759-2.6538 0.17575 0.47452c-1.7575 0.72056-2.3199 1.1072-1.5993 3.0756l3.9543 10.879c0.68542 1.8981 1.3708 1.9332 3.1986 1.3357l0.17575 0.45694-7.2759 2.6538z"/>
  <path d="m376.64 485.67c2.0035-0.93146 2.1265-1.4587 1.3884-3.1634l-4.6221-10.598c-0.75571-1.775-1.2302-1.9156-3.2513-1.1424l-0.19332-0.45695 7.1002-3.0756 0.19332 0.43938c-1.7047 0.84358-2.232 1.2654-1.406 3.181l4.6046 10.598c0.80843 1.8629 1.4938 1.8629 3.2865 1.1424l0.19332 0.43937-7.1002 3.0932z"/>
 </g>
 <g fill="#231f20">
  <path d="m298.16 541.17-0.65026-0.018c-0.38665-2.1441-2.0035-4.5342-4.7452-4.587-1.3005-0.035-2.6362 0.7382-2.6889 2.355-0.0879 3.9016 8.6116 4.6398 8.471 9.9649-0.0527 2.2145-1.8805 4.6749-5.6063 4.587-1.9684-0.035-3.2338-0.949-4.007-0.9666-0.54482-0.017-0.82601 0.4218-0.82601 0.8436l-0.57997-0.018-0.65026-5.536h0.59754c0.47451 1.2478 1.7223 4.6573 5.2372 4.7452 2.0738 0.053 3.1634-1.4236 3.181-2.8295 0.0352-1.4763-0.35149-2.3726-4.13-4.6925-2.355-1.4412-4.007-2.6362-3.9367-5.2197 0.0527-2.9526 2.4605-4.3585 4.8155-4.3058 1.5641 0.035 2.9525 0.949 3.6028 0.9666 0.72056 0.018 0.86116-0.58 0.93146-0.8612l0.54481 0.018z"/>
  <path d="m111.67 445.29c-1.3532-1.4938-1.9332-1.6169-4.1476 0l-5.4833 4.007c-1.6872 1.2302-5.659 4.13-9.6309-1.3181-3.8313-5.2373 0.28119-8.225 1.5466-9.1564l6.5729-4.7979c1.5466-1.1424 1.5642-1.5993 0.50967-3.2865l0.38664-0.29877 4.3585 5.9754-0.38665 0.28119c-1.3532-1.5641-1.8102-1.6169-3.304-0.52724l-6.7311 4.9209c-1.3532 0.98419-4.2882 3.1283-1.5993 6.8014 1.1951 1.6344 2.7416 2.3374 4.1828 2.232 0.66784-0.0703 1.5114-0.36907 3.2162-1.6169l5.6942-4.1476c2.2496-1.652 2.232-2.4253 1.2478-3.9543l0.38664-0.29877 3.5852 4.8858z"/>
  <path d="m125.72 461.62c-1.2126-1.1072-1.8453-1.6696-4.1476 0.33391l-10.299 9.0686-0.29877-0.33392 3.1634-18.067-0.0351-0.0351-7.645 6.7135c-2.0211 1.775-2.0914 2.5659-0.89631 4.0422l-0.36907 0.33391-4.0422-4.6046 0.36907-0.33392c1.406 1.406 2.0738 1.5641 4.1828-0.29877l8.6468-7.5923c0.2812-1.6696 0.0879-2.0562-0.59754-2.8471l0.36907-0.33392 2.9526 3.3568-2.8295 15.782 0.0351 0.0527 6.5378-5.7645c2.2496-1.9684 1.9332-2.6538 0.86116-4.0773l0.36907-0.33392 4.0422 4.6046z"/>
  <path d="m117.56 476.45c1.6169 1.5114 2.1441 1.4236 3.4446 0.0879l8.1019-8.2601c1.3533-1.3708 1.3181-1.8454-0.15817-3.4446l0.3515-0.3515 5.5184 5.4306-0.35149 0.3515c-1.406-1.283-2.0035-1.6169-3.4622-0.12303l-8.1019 8.2601c-1.4236 1.4587-1.1599 2.0738 0.17574 3.4622l-0.33391 0.36906-5.536-5.4306z"/>
  <path d="m135.91 493.99-5.7821-4.9385 0.31634-0.36907c1.8629 1.4587 2.3199 1.0369 3.5677-0.42179l8.471-9.9121-1.0721-0.91389c-2.1793-1.8629-3.0404-1.9332-5.3251-0.15817l-0.47452-0.40422 3.0053-3.2689 11.178 9.5431-2.7592 3.4798-0.47452-0.40422c1.4411-2.5483 1.1951-3.3743-0.98418-5.2373l-1.072-0.91388-8.6468 10.141c-1.1599 1.3357-1.2478 1.9156 0.36907 3.3919z"/>
  <path d="m152.18 506.54-11.301-8.3656 0.28119-0.38665c1.406 0.89631 2.0211 1.0721 3.2162-0.54481l6.8717-9.297c1.2302-1.652 0.82601-2.1617-0.4218-3.2338l0.29877-0.40422 11.107 8.225-2.1441 3.0404-0.52725-0.38664c1.0721-2.0914 0.77329-2.8295-1.5466-4.5518l-2.8295-2.0914c-0.43937-0.31636-0.68542-0.50968-1.2302 0.21088l-3.4271 4.6397 3.2162 2.3902c1.8629 1.3708 2.4605 1.0369 3.7786-0.2812l0.49209 0.35149-3.6028 4.8506-0.47452-0.35149c0.98419-1.8629 0.87874-2.3902-0.84358-3.6907l-3.181-2.4253-3.8489 5.2021c-0.63269 0.84359-0.65026 0.86116 2.478 3.181 2.6186 1.9332 4.1301 2.0738 6.6081 0.65027l0.59754 0.42179z"/>
  <path d="m162.27 510.88c-0.47452 0.75571-0.29877 1.072 0.77328 1.7223 1.406 0.87873 6.8717 4.2531 10.844-2.1968 1.1599-1.8629 1.7223-3.9894 1.0545-6.3093-0.47452-1.5993-1.3532-2.9701-4.1476-4.6924-1.0369-0.65026-1.3005-0.22847-1.5642 0.21091zm-5.0264-1.3005c1.7399 0.96661 2.232 0.77329 3.181-0.77329l6.0808-9.8418c1.0193-1.652 0.91388-2.0211-0.72057-3.1986l0.26363-0.42179 5.993 3.6907c5.3076 3.2865 7.3462 7.8735 4.2706 12.847-1.8102 2.935-6.239 6.2039-13.023 2.0211l-6.2917-3.9016z"/>
  <path d="m211.46 524.72-0.59754-0.24605c0.38665-2.1441-0.26362-4.9561-2.7944-5.993-1.2126-0.49209-2.7416-0.24604-3.3568 1.2478-1.4763 3.6204 6.3796 7.3989 4.3585 12.355-0.84359 2.0562-3.4271 3.6906-6.8717 2.2847-1.8453-0.75571-2.6889-2.0562-3.4095-2.355-0.50966-0.19333-0.91388 0.10544-1.0721 0.49209l-0.52724-0.2109 1.3533-5.413 0.56239 0.22847c0 1.3181-0.0527 4.9561 3.1986 6.2917 1.9332 0.79086 3.4622-0.19333 3.9894-1.4938 0.5624-1.3708 0.50967-2.355-2.1793-5.8875-1.7047-2.1793-2.812-3.884-1.8278-6.2742 1.1248-2.7416 3.8664-3.1986 6.0457-2.3023 1.4411 0.57996 2.4077 1.9332 3.0053 2.1793 0.68541 0.28119 1.0369-0.22847 1.1775-0.47452l0.50966 0.2109z"/>
  <path d="m221.8 541.17-7.2232-2.4078 0.15817-0.4569c2.2847 0.6502 2.5483 0.1054 3.1634-1.7223l4.1125-12.373-1.3357-0.43936c-2.7241-0.91389-3.5501-0.65027-4.9912 1.8629l-0.59754-0.21089 1.5466-4.1476 13.954 4.6397-1.2478 4.2531-0.59754-0.19332c0.38664-2.8998-0.15817-3.5677-2.8822-4.4815l-1.3357-0.43938-4.2004 12.636c-0.56239 1.6696-0.42179 2.2495 1.6344 3.0052z"/>
  <path d="m238.31 538.87-1.1248-7.6977-4.6924 6.1863zm4.8506 8.1723-6.4323-1.6696 0.12303-0.4746c0.93145 0.2461 1.775 0.4394 2.0035-0.4921 0.12302-0.4042 0-1.3357-0.0527-1.7223l-0.40422-2.6889-6.6081-1.7223-1.9332 2.6537c-0.2109 0.2988-0.36907 0.6327-0.43937 0.9139-0.28119 1.0545 0.89631 1.3533 1.4236 1.4939l-0.12302 0.4745-4.9912-1.283 0.12302-0.4921c0.42179 0.088 0.86116 0.1406 1.4411-0.2109 0.73814-0.492 2.0035-2.1265 2.7592-3.1107l8.471-11.019 0.50967 0.1406 2.5483 15.958c0.33392 2.0563 0.61511 2.4253 1.7047 2.7768z"/>
  <path d="m257.01 549.67-7.4868-1.3533 0.0879-0.4921c2.355 0.3164 2.5308-0.2636 2.8822-2.1616l2.3199-12.812-1.3708-0.24604c-2.8295-0.50967-3.6028-0.15818-4.6749 2.5308l-0.61511-0.1055 0.93146-4.3409 14.464 2.6362-0.63269 4.3937-0.61511-0.1231c-0.0351-2.9174-0.66784-3.5149-3.4798-4.0246l-1.3884-0.24604-2.3726 13.111c-0.31634 1.7399-0.10545 2.2847 2.0387 2.7417z"/>
  <path d="m278.69 552.47-13.989-1.4587 0.0527-0.4921c1.6696 0.07 2.2847-0.1054 2.4956-2.0914l1.1951-11.511c0.2109-2.0563-0.38664-2.2672-2.0211-2.5659l0.0527-0.49209 13.761 1.4235-0.29877 3.7259-0.65026-0.07c-0.15818-2.355-0.77329-2.8296-3.6555-3.1283l-3.4974-0.3691c-0.54482-0.053-0.86116-0.088-0.94904 0.7909l-0.59754 5.7645 3.9895 0.4042c2.3023 0.246 2.6362-0.3515 3.1107-2.1617l0.59754 0.07-0.63269 6.0106-0.59754-0.07c-0.0879-2.109-0.43937-2.5132-2.601-2.7593l-3.9719-0.4745-0.66784 6.4324c-0.12303 1.072-0.12303 1.0896 3.7434 1.4938 3.2337 0.3339 4.6221-0.2988 6.0281-2.7944l0.72056 0.07z"/>
  <path d="m347.71 539.87c-1.0369-5.8524-4.2531-7.4165-6.8717-6.9596-2.6186 0.45694-5.0967 3.058-4.0598 8.9104 1.0018 5.6415 4.0246 7.4517 6.8717 6.9596 2.8471-0.5097 5.0615-3.2689 4.0598-8.9104m-13.849 2.4956c-1.0545-5.9051 2.601-9.6309 6.8014-10.369 4.2179-0.75571 8.928 1.4763 9.9824 7.3814 0.96661 5.4658-2.1793 9.4904-6.819 10.316-4.6573 0.826-8.9982-1.8629-9.9648-7.3287"/>
  <path d="m369.7 537.17c-0.86116-2.0387-1.529-2.1265-3.4271-1.6345l-3.6555 0.9491 1.5114 5.5184c0.50966 1.8805 1.1072 2.0387 2.9174 1.6345l0.12303 0.4745-7.0474 1.9332-0.12303-0.4745c1.8629-0.6151 2.0562-1.0721 1.4938-3.1459l-2.9877-10.896c-0.54481-1.9859-1.1951-1.9684-2.812-1.652l-0.12302-0.47452 13.339-3.6731 1.0721 3.5852-0.63269 0.15817c-0.98418-2.1265-1.7575-2.355-4.5518-1.5817l-3.4095 0.93145c-0.63269 0.17575-0.79086 0.33392-0.57996 1.0721l1.529 5.5887 3.6555-1.0017c2.0562-0.5624 2.3726-1.1951 2.109-3.1459l0.57996-0.15818 1.5993 5.8348z"/>
  <path d="m405.29 522.93-5.7469-5.2373 0.2812 7.768zm8.9455 3.2513-6.0457 2.7944-0.2109-0.45694c0.87874-0.40422 1.652-0.79085 1.2478-1.6696-0.17575-0.36907-0.84359-1.0193-1.1424-1.283l-2.0211-1.8102-6.1863 2.8471 0.17575 3.2865c0.0352 0.3515 0.10545 0.72057 0.22847 0.98419 0.45694 0.98418 1.5817 0.47451 2.0738 0.24604l0.2109 0.45695-4.6924 2.1617-0.2109-0.45694c0.36907-0.19332 0.75571-0.43937 0.96661-1.0721 0.28119-0.84357 0.21089-2.9174 0.17574-4.1652l-0.43936-13.884 0.47451-0.22848 12.091 10.721c1.5642 1.3884 2.0211 1.4938 3.0932 1.0896z"/>
  <path d="m426.68 500.06c-1.3532 0.93146-1.8278 1.3708-0.80844 3.1634l5.7294 10.053c1.0018 1.7399 1.6344 1.6344 3.1283 0.91388l0.24604 0.42179-6.3445 3.6028-0.22847-0.42179c1.7047-1.0896 1.8102-1.5993 0.73814-3.4622l-5.7821-10.158-0.0527 0.0176 1.5993 16.169-0.31634 0.17574-12.671-9.1388-0.0527 0.0176 5.1494 9.0334c1.3181 2.3198 2.0914 2.5483 3.7786 1.6872l0.24604 0.42179-5.3251 3.0404-0.24605-0.43936c1.652-1.0896 1.9332-1.7048 0.54482-4.1476l-5.2373-9.1916c-1.0018-1.7575-1.5817-1.6696-3.304-0.80844l-0.24605-0.42179 4.4816-2.5659 11.74 8.4534-1.5114-14.288 4.4991-2.5659z"/>
  <path d="m452.04 502.79-11.476 8.1371-0.29877-0.40422c1.3005-1.0369 1.652-1.5817 0.49209-3.2162l-6.696-9.4376c-1.1775-1.6872-1.7926-1.4411-3.1986-0.61511l-0.2812-0.38664 11.283-8.0141 2.2144 2.9877-0.52724 0.38664c-1.652-1.6696-2.4605-1.6169-4.8155 0.0527l-2.8647 2.0387c-0.45695 0.31634-0.70299 0.49209-0.19333 1.2126l3.3392 4.7276 3.2865-2.3198c1.8805-1.3533 1.7399-2.0035 0.89631-3.6731l0.49209-0.35149 3.4974 4.9209-0.47452 0.3515c-1.4763-1.5114-2.0035-1.5817-3.7786-0.3515l-3.304 2.2671 3.7434 5.2724c0.61511 0.87873 0.63269 0.89631 3.7961-1.3533 2.6538-1.8805 3.2689-3.2689 2.6889-6.0808l0.57997-0.42179z"/>
  <path d="m455.16 488.99c1.652-1.4236 4.6221-3.9895 2.232-6.8366-2.232-2.6538-4.9033-0.50967-5.7294 0.17574-1.0545 0.87874-1.1072 1.1775-0.63269 1.7575zm14.833-0.79085-3.2162 2.7065-9.9121-2.1617-1.0896 0.98419 3.304 3.9367c1.1248 1.3357 1.652 1.5466 3.304 0.28119l0.31635 0.38665-5.5184 4.6397-0.31635-0.38665c1.529-1.4587 1.2478-1.9332 0-3.4446l-7.2584-8.6292c-1.2478-1.4763-1.6872-1.406-3.2162-0.36906l-0.31634-0.38665 5.5184-4.6222c1.775-1.4938 5.413-3.8489 7.9965-0.77328 2.2496 2.6714 0.0527 5.3427-0.79086 6.3972l8.348 1.5817c0.89631 0.17574 1.6696 0.14059 2.5308-0.50967z"/>
  <path d="m472.95 484.71c1.5642-1.5642 1.4763-2.109 0.19332-3.4446l-8.0141-8.348c-1.3357-1.3884-1.8102-1.3708-3.4446 0.0527l-0.33392-0.3515 5.5888-5.3603 0.33392 0.3515c-1.3181 1.3708-1.652 1.9508-0.21089 3.4622l8.0141 8.348c1.406 1.4763 2.0387 1.2302 3.4622-0.0703l0.33392 0.35149-5.5888 5.3603z"/>
  <path d="m483.51 457.71c-2.4605-1.3708-5.2548-1.3884-7.4341 0.96661-0.87873 0.96661-1.5114 2.4429-1.4587 3.9543 0.0527 1.4236 0.49209 3.3919 3.2689 5.9402 4.0773 3.7258 7.8383 2.9701 10.053 0.54482 2.1617-2.355 2.0738-4.9912 2.0387-6.116l0.66784-0.0352c0.0176 0.0527 0.89631 3.9016-2.3374 7.4517-2.8295 3.0932-7.7153 4.7276-12.513 0.33392-4.2882-3.9367-3.6731-9.297-0.63269-12.601 1.5642-1.7048 3.3392-2.3726 3.7258-2.7944 0.0879-0.10545 0.66784-0.73814 0.17575-1.4763l0.36907-0.40422 4.4816 3.7961z"/>
  <path d="m498.22 447.47-7.522-1.9332 3.8664 6.7135zm9.42-1.3005-4.0422 5.2724-0.38664-0.29877c0.57997-0.75571 1.0896-1.4587 0.31635-2.0387-0.33392-0.26362-1.2127-0.50967-1.5993-0.61511l-2.6362-0.66784-4.1476 5.4306 1.7047 2.7944c0.19332 0.31635 0.42179 0.59754 0.65027 0.77329 0.87873 0.66784 1.6169-0.31634 1.9508-0.73814l0.38664 0.29877-3.1283 4.0949-0.38664-0.29877c0.22847-0.3515 0.45694-0.73814 0.3515-1.406-0.15818-0.87873-1.1775-2.6714-1.7926-3.761l-6.8717-12.056 0.31635-0.42179 15.694 3.8313c2.0211 0.49209 2.4604 0.36907 3.2162-0.49209z"/>
 </g>
 <g fill="#fff" stroke="#231f20" stroke-linecap="round" stroke-width="1.0018">
  <path d="m251.35 253.43c1.2654 1.0545 2.9174 2.1617 5.1845 2.2671 3.8489 0.15818 4.1828-3.181 4.007-4.3585-0.33392-2.3374-4.8506-11.195-12.882-7.6802-0.12302-0.12302-0.59754-0.47451-0.73814-0.57996-1.1599-0.87874-2.5308-1.6872-4.6046-1.775-3.8488-0.15817-4.1828 3.181-4.007 4.3585 0.33392 2.3374 5.0088 11.283 13.04 7.768"/>
  <path d="m292.43 253.43c1.2654 1.0545 2.9174 2.1617 5.1845 2.2671 3.8488 0.15818 4.1828-3.181 4.007-4.3585-0.33392-2.3374-4.8506-11.195-12.882-7.6802-0.12303-0.12302-0.61512-0.47451-0.73814-0.57996-1.1599-0.87874-2.5308-1.6872-4.6046-1.775-3.8489-0.15817-4.1828 3.181-4.007 4.3585 0.33392 2.3374 5.0088 11.283 13.04 7.768"/>
  <path d="m333.46 253.43c1.2654 1.0545 2.9174 2.1617 5.1845 2.2671 3.8489 0.15818 4.1828-3.181 4.007-4.3585-0.33391-2.3374-4.8506-11.195-12.882-7.6802-0.12302-0.12302-0.59753-0.47451-0.73813-0.57996-1.1599-0.87874-2.5308-1.6872-4.6046-1.775-3.8489-0.15817-4.1828 3.181-4.007 4.3585 0.33392 2.3374 5.0088 11.283 13.04 7.768"/>
 </g>
 <g fill="#7dd5f7" stroke="#231f20" stroke-linecap="round" stroke-width="1.0018">
  <path d="m271.91 253.43c1.2654 1.0545 2.9174 2.1617 5.1845 2.2671 3.8489 0.15818 4.1828-3.181 4.007-4.3585-0.33392-2.3374-4.8506-11.195-12.865-7.6802-0.1406-0.12302-0.61512-0.47451-0.75571-0.57996-1.1599-0.87874-2.5308-1.6872-4.6046-1.775-3.8489-0.15817-4.1828 3.181-4.007 4.3585 0.33392 2.3374 5.0088 11.283 13.04 7.768"/>
  <path d="m312.95 253.43c1.2654 1.0545 2.9174 2.1617 5.1845 2.2671 3.8313 0.15818 4.1828-3.181 4.007-4.3585-0.33392-2.3374-4.8506-11.195-12.882-7.6802-0.12302-0.12302-0.61512-0.47451-0.75571-0.57996-1.1424-0.87874-2.5132-1.6872-4.587-1.775-3.8488-0.15817-4.1828 3.181-4.0246 4.3585 0.35149 2.3374 5.0264 11.283 13.058 7.768"/>
  <path d="m353.98 253.43c1.2654 1.0545 2.9174 2.1617 5.1845 2.2671 3.8488 0.15818 4.1828-3.181 4.007-4.3585-0.33392-2.3374-4.8506-11.195-12.882-7.6802-0.12303-0.12302-0.59754-0.47451-0.75571-0.57996-1.1424-0.87874-2.5132-1.6872-4.587-1.775-3.8489-0.15817-4.1828 3.181-4.007 4.3585 0.33392 2.3374 5.0088 11.283 13.04 7.768"/>
 </g>
 <g fill="#fff" stroke="#231f20" stroke-linecap="round" stroke-width="1.0018">
  <path d="m251.09 245.32c-2.0738 0-1.3884 0.17574-3.181-1.2478"/>
  <path d="m247.5 251.26c1.2478 0 2.478 0.9666 3.5149 1.8453"/>
  <path d="m271.66 245.32c-2.0738 0-1.3884 0.17574-3.181-1.2478"/>
  <path d="m268.07 251.26c1.2478 0 2.478 0.9666 3.5149 1.8453"/>
  <path d="m292.17 245.32c-2.0738 0-1.3708 0.17574-3.181-1.2478"/>
  <path d="m288.58 251.26c1.2478 0 2.478 0.9666 3.5149 1.8453"/>
  <path d="m312.69 245.32c-2.0738 0-1.3708 0.17574-3.181-1.2478"/>
  <path d="m309.1 251.26c1.2478 0 2.478 0.9666 3.5149 1.8453"/>
  <path d="m333.21 245.32c-2.0738 0-1.3884 0.17574-3.181-1.2478"/>
  <path d="m329.61 251.26c1.2478 0 2.478 0.9666 3.5149 1.8453"/>
  <path d="m353.72 245.32c-2.0738 0-1.3884 0.17574-3.181-1.2478"/>
  <path d="m350.12 251.26c1.2478 0 2.478 0.9666 3.5149 1.8453"/>
 </g>
 <path d="m355.07 193.9c0.0527-0.0351 0.10545-0.0879 0.15817-0.1406 1.3005-1.3884 0.77329-3.4974 0.77329-3.4974s1.3005 1.2126 3.3392-0.0703 1.5817-2.812 1.5817-2.812 0.82601 0.86116 4.007 0.12302c3.2162-0.75572 2.4253-2.9526 2.4253-2.9526 4.6749 0.47452 5.7645-2.6714 5.7645-2.6714 10.475 2.7944 10.105-2.5659 10.105-2.5659 2.4077 0.80843 5.9051 1.5817 8.8576 0.57996 5.0088-1.7047 3.1107-3.6028 3.1107-3.6028 4.833 0.80843 9.6134-3.0756 9.3497-5.0967-0.29877-2.0035-6.3445-0.50967-6.3445-0.50967 11.652-4.0246 15.132-8.9455 12.794-9.0158-2.355-0.0527-3.5501 1.1599-5.5536 1.1072-3.0756-0.0879-7.0123-0.43938-7.0123-0.43938 4.3937-1.5642 7.4341-2.6362 10.65-3.9016 7.0299-2.7241 8.5237-6.2742 7.188-6.3269-1.3357-0.0352-2.4605 1.529-4.0598 1.4938-1.3357-0.0352-3.8313-0.36907-3.8313-0.36907 11.353-5.3603 12.847-10.51 11.16-10.562-1.6696-0.0351-1.9156 2.7944-4.0949 3.058-2.1793 0.28119-9.9121 1.7399-9.9121 1.7399 1.0721-2.3023-0.36907-5.0264-1.8981-4.2355-1.529 0.79086-1.4587 4.4816-9.4903 4.9209-9.5606 0.54481-16.889 5.5712-16.889 5.5712 0.72056-2.0035-1.7399-3.9016-2.1265-2.0738-0.38664 1.8278-5.1142 3.7083-5.1142 3.7083-2.232 1.9332-27.54 3.5852-33.093 11.283-6.9772 9.6661-15.097 13.638-27.188 8.9631l-14.569 1.8278c-12.214 4.341-20.228 0.15818-26.924-9.7012-5.3603-7.8559-30.598-10.211-32.777-12.214 0 0-4.6749-2.0035-5.0088-3.8488-0.33392-1.8278-2.8471 0-2.1793 2.0211 0 0-7.188-5.2372-16.731-6.0281-8.0141-0.66783-7.8559-4.3409-9.3673-5.1845-1.4938-0.82601-3.0053 1.8453-2.0035 4.1828 0 0-7.6801-1.6696-9.8594-2.0035s-2.3374-3.181-4.007-3.181-0.33392 5.1845 10.861 10.879c0 0-2.4956 0.24604-3.8489 0.24604-1.5817 0-2.6714-1.5993-4.007-1.5993s0.0527 3.6028 7.0299 6.5202c3.1634 1.3532 6.1863 2.5132 10.527 4.1828 0 0-3.9367 0.26362-7.0299 0.26362-2.0035 0-3.1634-1.2654-5.5184-1.2654-2.3374 0 1.0018 5.0264 12.548 9.3673 0 0-6.0281-1.6696-6.362 0.33392-0.33392 2.0035 4.3585 6.0281 9.2091 5.3427 0 0-1.9508 1.8454 3.0053 3.6907 2.9174 1.0896 6.4323 0.42179 8.8576-0.33392 0 0-0.4921 5.3427 10.035 2.8471 0 0 1.0018 3.1634 5.6942 2.8295 0 0-0.84359 2.1793 2.3374 3.0228 3.181 0.826 4.007 0 4.007 0s-0.49209 1.4938 1.5114 2.8295c2.0035 1.3357 3.3392 0.17574 3.3392 0.17574s-0.47451 1.7223 0.36907 3.0932z" fill="#ae680a"/>
 <path d="m248.86 193.9c0.0879 0.1406 0.19332 0.2812 0.29877 0.42179 1.4938 1.6872 2.935 0.82601 2.935 0.82601s-0.66784 1.0018 0.82601 3.181c1.5114 2.1793 2.601 1.0896 2.601 1.0896s-0.24604 1.4236 0.75572 2.4253c1.0018 1.0018 2.0914 1.0896 2.0914 1.0896s0.0703 1.6696 0.4921 2.2496c0.42179 0.59754 2.0035 1.4236 2.0035 1.4236s0 1.0018 0.75571 2.0035 2.7592 1.3357 2.7592 1.3357-0.24605 1.6696 0.66784 2.4253c0.93146 0.75571 4.2706-0.24604 4.2706-0.24604s-0.24605 0.75571 1.4236 1.5817c1.6696 0.84358 3.761 0.42179 3.761 0.42179l12.127-8.1898-22.917 17.311s-2.3374 0.49209 1.3357 6.5202c0 0-0.49209 3.3392 2.5132 5.3427 3.0053 2.0211 4.6749 0.50968 4.6749 0.50968s0.17574 2.5132 4.0246 3.181l1.5817 0.24605 0.66784-0.0879s-0.66784 0.0879-1.7575 1.1775c-1.0018 1.0018-1.1599 3.0053-1.1599 3.0053s2.1617 5.5184 6.8541 1.1775l1.8454-1.0193s1.3357 2.5132 4.007 3.0228c2.6714 0.49209 4.007-2.3374 4.007-2.3374h2.0035l2.355 1.1599s4.4991-0.33392 4.341-1.0018l1.0018-2.9174c0.33391 4.6749 4.1828 3.761 4.1828 3.761l3.6731-2.5132 0.86116-0.26362s1.2654 2.8822 3.9543 2.4429c2.6889-0.42179 4.0949-2.8998 4.0949-2.8998l1.5817 0.87873 3.304 1.2654c1.6696 0.36907 2.7241-1.9332 2.7241-1.9332s-0.10544-2.0035-1.072-3.0404c-1.2302-1.3005-1.8981-1.2126-1.8981-1.2126l3.5149-0.24605c3.8489-0.56239 4.0949-3.058 4.0949-3.058s1.6344 1.5466 4.6924-0.36907c3.058-1.9332 2.6538-5.29 2.6538-5.29 3.8489-5.9227 1.529-6.4851 1.529-6.4851l-22.425-17.926 11.88 8.5237s2.0914 0.47452 3.7786-0.31634c1.6872-0.79085 1.4587-1.5466 1.4587-1.5466s3.3216 1.0896 4.2531 0.36906c0.94903-0.72055 0.73814-2.4077 0.73814-2.4077s2.0211-0.28119 2.812-1.2654c0.77329-0.9666 0.79086-1.9859 0.79086-1.9859s1.6169-0.79086 2.0562-1.3532c0.42179-0.57996 0.56239-2.2496 0.56239-2.2496s1.0896-0.0527 2.109-1.0193c1.0369-0.98418 0.82601-2.4077 0.82601-2.4077s1.0545 1.1072 2.6186-1.0193c1.5642-2.1265 0.93146-3.1459 0.93146-3.1459s1.3005 0.82602 2.7768-0.61511z" fill="#ae680a"/>
 <g fill="none" stroke="#231f20">
  <path d="m302.01 241.22c0.33392 4.6749 4.1828 3.761 4.1828 3.761l3.6731-2.5132 0.86116-0.26362s1.2654 2.8822 3.9543 2.4605c2.6889-0.43936 4.0949-2.8998 4.0949-2.8998l1.5817 0.86116 3.304 1.2654c1.6696 0.38664 2.7241-1.9332 2.7241-1.9332s-0.10545-2.0035-1.0721-3.0404c-1.2302-1.3005-1.9156-1.2126-1.9156-1.2126l3.5325-0.24605c3.8489-0.54482 4.0949-3.058 4.0949-3.058s1.6344 1.5466 4.6924-0.36906c3.058-1.9156 2.6538-5.29 2.6538-5.29 3.8489-5.9051 1.5114-6.4675 1.5114-6.4675l-22.408-17.944 11.88 8.5237s2.0914 0.47452 3.7786-0.29877c1.6872-0.79086 1.4587-1.5642 1.4587-1.5642s3.3216 1.1072 4.2531 0.36907c0.94903-0.72056 0.73813-2.3902 0.73813-2.3902s2.0211-0.2812 2.7944-1.2654c0.79086-0.98419 0.80844-1.9859 0.80844-1.9859s1.6169-0.79088 2.0562-1.3708c0.4218-0.56239 0.56239-2.2496 0.56239-2.2496s1.0896-0.0527 2.109-1.0193c1.0369-0.98419 0.82601-2.4077 0.82601-2.4077s1.0545 1.1248 2.6186-1.0018c1.5641-2.1441 0.93146-3.1634 0.93146-3.1634s1.406 0.89631 2.935-0.75571c1.3005-1.3884 0.77329-3.4974 0.77329-3.4974s1.3005 1.2126 3.3392-0.0703c2.0562-1.283 1.5993-2.7944 1.5993-2.7944s0.80844 0.86116 4.007 0.10545c3.1986-0.73814 2.4253-2.935 2.4253-2.935 4.6573 0.45694 5.7469-2.6889 5.7469-2.6889 10.475 2.7944 10.123-2.5659 10.123-2.5659 2.3902 0.82601 5.8875 1.5817 8.8401 0.57997 5.0088-1.7048 3.1107-3.6028 3.1107-3.6028 4.833 0.80843 9.6134-3.0756 9.3497-5.0791-0.2812-2.0211-6.3445-0.50967-6.3445-0.50967 11.652-4.0246 15.132-8.9631 12.794-9.0158-2.3374-0.0703-3.5501 1.1599-5.5536 1.0896-3.0756-0.0703-7.0123-0.43937-7.0123-0.43937 4.3937-1.5466 7.4341-2.6362 10.65-3.884 7.0299-2.7416 8.5237-6.2917 7.188-6.3269s-2.4605 1.529-4.0422 1.4763c-1.3532-0.0352-3.8489-0.3515-3.8489-0.3515 11.353-5.3778 12.847-10.527 11.178-10.562-1.6696-0.0527-1.9332 2.7768-4.1125 3.058-2.1793 0.28121-9.9121 1.7399-9.9121 1.7399 1.0721-2.3198-0.36907-5.0264-1.8981-4.2355-1.529 0.79087-1.4587 4.464-9.4903 4.9209-9.5606 0.52724-16.889 5.5536-16.889 5.5536 0.72056-1.9859-1.7223-3.9016-2.109-2.0738-0.38665 1.8278-5.1318 3.7083-5.1318 3.7083-2.232 1.9508-27.522 3.5852-33.093 11.301-6.9772 9.6661-15.097 13.638-27.188 8.9455l-14.569 1.8278c-12.214 4.3585-20.211 0.15817-26.924-9.7012-5.3427-7.8559-30.598-10.193-32.777-12.197 0 0-4.6749-2.0035-5.0088-3.8488-0.33392-1.8454-2.8471 0-2.1793 2.0035 0 0-7.188-5.2197-16.731-6.0105-8.0141-0.66784-7.8559-4.3585-9.3497-5.2021-1.5114-0.82601-3.0228 1.8453-2.0035 4.1828 0 0-7.6977-1.6696-9.877-2.0035-2.1793-0.33392-2.3374-3.181-4.007-3.181s-0.33392 5.1845 10.861 10.879c0 0-2.4956 0.24605-3.8313 0.24605-1.5993 0-2.6889-1.5817-4.0246-1.5817s0.0703 3.5852 7.0299 6.5202c3.1634 1.3357 6.1863 2.5132 10.527 4.1828 0 0-3.9367 0.24604-7.0123 0.24604-2.0211 0-3.181-1.2478-5.536-1.2478-2.3374 0 1.0193 5.0088 12.548 9.3673 0 0-6.0106-1.6872-6.3445 0.31633-0.33392 2.0211 4.341 6.0281 9.1916 5.3603 0 0-1.9508 1.8278 3.0053 3.6731 2.935 1.0896 6.4323 0.42179 8.8576-0.33393 0 0-0.49209 5.3603 10.035 2.8471 0 0 1.0018 3.181 5.6942 2.8471 0 0-0.84358 2.1617 2.3374 3.0053 3.181 0.84358 4.007 0 4.007 0s-0.49209 1.5114 1.5114 2.8471c2.0035 1.3357 3.3392 0.15817 3.3392 0.15817s-0.57996 2.0914 0.66784 3.5149c1.4938 1.6872 2.935 0.84359 2.935 0.84359s-0.66783 1.0018 0.82601 3.1634c1.5114 2.1793 2.6011 1.0896 2.6011 1.0896s-0.24605 1.4236 0.75571 2.4253 2.0914 1.0896 2.0914 1.0896 0.0703 1.6696 0.49209 2.2671c0.42179 0.57997 2.0035 1.406 2.0035 1.406s0 1.0018 0.75571 2.0211c0.75571 1.0018 2.7592 1.3357 2.7592 1.3357s-0.24604 1.6696 0.66784 2.4253c0.93146 0.75572 4.2706-0.26362 4.2706-0.26362s-0.24604 0.75572 1.4236 1.5993c1.6696 0.82601 3.761 0.42179 3.761 0.42179l12.127-8.2074-22.917 17.311s-2.3374 0.50967 1.3357 6.5202c0 0-0.49209 3.3392 2.5132 5.3603 3.0053 2.0035 4.6749 0.49209 4.6749 0.49209s0.17575 2.5132 4.0246 3.181l1.5817 0.24604 0.66784-0.0703s-0.66784 0.0703-1.7575 1.1599c-1.0018 1.0193-1.1599 3.0053-1.1599 3.0053s2.1617 5.5184 6.8541 1.1775l1.8278-1.0018s1.3357 2.5132 4.0246 3.0053c2.6714 0.50966 4.007-2.3374 4.007-2.3374h2.0035l2.355 1.1775s4.4991-0.33392 4.341-1.0018" stroke-linecap="round" stroke-linejoin="round" stroke-width="1.3357"/>
  <path d="m288.69 148.84-0.66784 1.0018" stroke-width="1.0018"/>
  <g stroke-width="1.3357">
   <path d="m285.41 147.73c-0.54481 0.24605-0.75571 0.89631-0.94903 1.283"/>
   <path d="m314.2 149.08c0.2812 0.47452 0.89631 1.2302 1.1951 1.7575"/>
   <path d="m269.75 159.87c0.14059 3.7961 1.4938 3.3392 1.4938 3.3392"/>
  </g>
  <path d="m268.23 161.54c-0.17575 1.1775 0.75571 2.0914 0.75571 2.0914" stroke-width=".66784"/>
  <path d="m315.89 152.01 0.50966 0.33392" stroke-width="1.0018"/>
  <path d="m334.11 160.71 0.17575 0.50967" stroke-width="1.0018"/>
  <g stroke-linecap="round">
   <path d="m249.84 212.04 0.66784 1.3357" stroke-width="1.0018"/>
   <g stroke-width="1.3357">
    <path d="m253.68 225.59 1.3357 0.84358"/>
    <path d="m254.41 228.6s0.84358 0.50967 1.5114 0.84359"/>
    <path d="m345.82 220.91s-1.1775 1.5114-2.3374 1.8453"/>
    <path d="m346.15 223.91s-1.1775 1.5114-2.3374 1.8453"/>
   </g>
   <g stroke-width="1.0018">
    <path d="m228.6 154.52c1.8453 3.515 8.0316 7.3638 22.742 10.861l5.0088 2.355"/>
    <path d="m231.44 157.87s-0.15817 4.1828 3.3392 5.5185c3.5149 1.3357 14.886 3.3392 16.221 2.5132"/>
    <path d="m236.13 164.22s1.1775 4.5167 12.882 4.1828c1.5114-0.0527 2.3374-0.66784 2.3374-0.66784"/>
    <path d="m252.35 169.57c-2.0035 1.3357-7.9965 2.7944-9.7012 2.5132-2.0035-0.33393-3.6731-2.4253-3.181-4.5167"/>
    <path d="m251.51 165.81c-0.50966 1.1775-0.42179 2.0035 0.75572 2.8471 1.1599 0.82601 3.4271 0.75571 3.9192 0.66784"/>
    <path d="m252.26 168.65c-0.17574 0.57996 0.0879 2.6714 1.1775 2.8471 1.072 0.15817 2.8295 0.15817 3.4271-0.26362"/>
    <path d="m221.08 179.1c5.0967-1.2478 13.884-3.6731 20.228-7.3638"/>
    <path d="m231.11 181.61s9.0334-1.3357 12.707-6.5202"/>
    <path d="m209.96 175.67c2.3374-0.17574 19.561-3.6028 28.928-8.6116"/>
    <path d="m207.37 169.9s10.123 1.5817 29.842-3.9192"/>
    <path d="m242.65 172.08c0 2.0035 1.1775 4.1828 3.8489 4.007 2.6714-0.15817 5.8524-1.6696 5.8524-1.6696"/>
    <path d="m252.85 171.41c-0.33392 1.0018-1.0018 3.0053 0.17575 3.5149 1.1599 0.49209 3.3392 0.33393 4.007-0.17575"/>
    <path d="m247.5 176.26c1.8453 1.5114 3.5149 2.3374 5.8524 1.5114"/>
    <path d="m253.68 174.92c-0.33392 1.1775-0.84359 3.5149 0.84358 4.1828 1.6696 0.66784 3.4974-1.3357 3.4974-1.3357"/>
    <path d="m254.52 179.1c0.17575 1.8453 0 2.8471 1.0018 3.515 1.0018 0.66783 3.6731 0.15817 5.0264-0.50968"/>
    <path d="m236.8 184.62c2.8471-0.84358 8.6995-1.6696 12.548-6.8541"/>
    <path d="m243.15 187.8c2.1793-0.84358 9.1916-4.5167 10.861-8.8576"/>
    <path d="m248.5 190.81c2.3374-1.1775 6.5202-4.341 7.8559-7.3638"/>
    <path d="m206.86 161.71 2.6714 2.8471s22.074 0 25.747-0.50966"/>
    <path d="m197.67 152.18c6.5202 5.1845 7.6977 0 15.22 8.1898 0 0 14.2 1.0018 19.051 0.33392"/>
    <path d="m200.18 146.66c5.1845 6.1863 14.552 2.8471 20.228 11.705l10.545 0.17575"/>
    <path d="m257.53 183.45c0.33392 1.5114 0.50967 3.0053 1.8453 3.181 1.3357 0.15817 4.341-2.0035 4.341-2.0035"/>
    <path d="m260.54 186.79c0.17575 1.3357 0.84359 3.0053 2.5132 3.0053 1.6696 0 4.007-2.0035 4.007-2.0035"/>
    <path d="m252.68 194.82c1.6696-0.84358 6.5202-3.6731 8.0316-6.5202"/>
    <path d="m255.52 199.42c2.6714-1.0896 8.3656-4.7627 9.5255-7.2759"/>
    <path d="m258.37 202.93c1.6696-0.91389 7.188-4.0949 8.6995-7.6098"/>
    <path d="m260.88 206.61c0.84359-0.0879 6.696-3.6028 9.1916-8.7873"/>
    <path d="m264.05 189.97c0.15817 1.8453 0.33392 3.181 1.6696 3.6731 1.3357 0.50966 4.0246-2.1617 4.0246-3.0053"/>
    <path d="m266.73 193.82c0.33392 1.0018 0.84359 3.0053 2.8471 2.8471 2.0035-0.17575 3.6731-3.8489 3.6731-3.8489"/>
    <path d="m270.74 196.49c0.15817 0.66784 0.66784 2.1793 2.5132 2.5132 1.8278 0.33392 3.3392-4.1828 3.3392-4.1828"/>
    <path d="m273.25 199s-1.6696 6.5202-8.5237 10.545"/>
    <path d="m269.32 212.13s6.942-4.4288 6.6081-11.283"/>
    <path d="m273.58 213.88s6.362-4.5167 5.5184-11.213"/>
    <path d="m274.59 199c0.33392 1.0018 1.6696 3.0053 3.6731 2.1793 2.0035-0.84358 2.8471-5.0264 2.8471-5.0264"/>
    <path d="m278.77 201.17c1.0018 1.3357 2.0035 2.0035 3.181 1.8454 1.1599-0.17575 2.5132-2.6889 2.6714-4.6924"/>
    <path d="m283.28 203.68c0 1.6696 0 3.3392-0.33392 4.8506"/>
    <path d="m282.78 202.68c0.50967 1.3357 2.1793 1.8453 3.5149 1.6696"/>
    <path d="m376.89 154.54c-1.9332 3.4622-8.225 7.1353-23.04 10.228l-5.0615 2.2144"/>
    <path d="m373.96 157.81s0.0527 4.1828-3.4974 5.4306c-3.5501 1.2302-14.974 2.9174-16.274 2.0562"/>
    <path d="m369.11 164.03s-1.3005 4.4816-12.988 3.8137c-1.5114-0.0703-2.3199-0.72056-2.3199-0.72056"/>
    <path d="m352.74 168.93c1.9684 1.3884 7.9262 3.0053 9.6309 2.7768 2.0035-0.28119 3.7434-2.3198 3.2865-4.4288"/>
    <path d="m353.68 165.19c0.47451 1.1775 0.36907 2.0211-0.82601 2.8295-1.1951 0.79086-3.4446 0.65026-3.9543 0.54482"/>
    <path d="m352.85 168.01c0.15817 0.59754-0.15817 2.6714-1.2478 2.812s-2.8471 0.0879-3.4271-0.3515"/>
    <path d="m383.73 179.32c-5.0615-1.3884-13.779-4.0598-20.018-7.9086"/>
    <path d="m373.64 181.55s-8.9982-1.5817-12.531-6.8717"/>
    <path d="m394.95 176.2c-2.3374-0.22847-19.455-4.13-28.682-9.4025"/>
    <path d="m397.7 170.51s-10.158 1.3005-29.736-4.7452"/>
    <path d="m362.37 171.71c-0.0527 2.0035-1.283 4.1476-3.9543 3.9016-2.6714-0.24604-5.7996-1.8278-5.7996-1.8278"/>
    <path d="m352.19 170.75c0.29877 1.0193 0.91388 3.0404-0.26362 3.4974-1.1775 0.47452-3.3568 0.24605-4.007-0.26362"/>
    <path d="m357.4 175.75c-1.8805 1.4587-3.5677 2.2496-5.8875 1.3357"/>
    <path d="m351.26 174.24c0.29877 1.1775 0.73814 3.5325-0.94903 4.1476-1.6872 0.63269-3.4798-1.4236-3.4798-1.4236"/>
    <path d="m350.3 178.4c-0.22847 1.8278-0.0703 2.8471-1.1072 3.4798-1.0193 0.65026-3.6731 0.0703-4.9912-0.63269"/>
    <path d="m367.87 184.4c-2.812-0.91387-8.6468-1.9156-12.355-7.2056"/>
    <path d="m361.43 187.4c-2.1441-0.8963-9.0685-4.7627-10.615-9.1564"/>
    <path d="m356 190.26c-2.3023-1.2302-6.3972-4.5343-7.6626-7.5747"/>
    <path d="m398.43 162.33-2.7592 2.7768s-22.056-0.61511-25.729-1.2126"/>
    <path d="m407.88 153.06c-6.6608 5.0088-7.6977-0.2109-15.431 7.768 0 0-14.236 0.61513-19.069-0.19332"/>
    <path d="m405.53 147.47c-5.3427 6.0457-14.622 2.4429-20.545 11.142l-10.545-0.12302"/>
    <path d="m347.18 182.66c-0.36907 1.4938-0.57997 2.9877-1.9332 3.1283-1.3357 0.12302-4.2882-2.1265-4.2882-2.1265"/>
    <path d="m344.08 185.92c-0.2109 1.3357-0.91388 2.9877-2.5835 2.935-1.6872-0.0351-3.9719-2.109-3.9719-2.109"/>
    <path d="m351.71 194.16c-1.652-0.87873-6.4148-3.8488-7.8383-6.7487"/>
    <path d="m348.74 198.68c-2.6362-1.1599-8.225-4.9912-9.3322-7.5395"/>
    <path d="m345.8 202.11c-1.652-0.9666-7.065-4.2882-8.4886-7.8383"/>
    <path d="m343.19 205.72c-0.82601-0.10545-6.5905-3.7786-8.9455-9.0334"/>
    <path d="m340.48 189c-0.2109 1.8278-0.42179 3.1634-1.775 3.638-1.3533 0.45695-3.9543-2.2847-3.9192-3.1283"/>
    <path d="m337.7 192.77c-0.36907 0.98418-0.91389 2.9877-2.9174 2.7592-2.0035-0.2109-3.5677-3.9367-3.5677-3.9367"/>
    <path d="m333.61 195.33c-0.19332 0.66783-0.73813 2.1617-2.5835 2.4429-1.8453 0.28119-3.2162-4.2706-3.2162-4.2706"/>
    <path d="m331.03 197.77s1.4938 6.5729 8.2425 10.773"/>
    <path d="m334.6 211s-6.819-4.6222-6.2917-11.459"/>
    <path d="m330.29 212.64s-6.2214-4.6924-5.2021-11.353"/>
    <path d="m329.7 197.74c-0.36906 0.98418-1.7575 2.9526-3.7434 2.0738-1.9859-0.8963-2.7065-5.0967-2.7065-5.0967"/>
    <path d="m325.46 199.79c-1.0369 1.3005-2.0562 1.9508-3.2337 1.7575-1.1599-0.2109-2.4253-2.7416-2.5308-4.7627"/>
    <path d="m320.88 202.17c-0.0527 1.6696-0.0879 3.3392 0.19332 4.8506"/>
    <path d="m321.4 201.18c-0.54482 1.3181-2.232 1.775-3.5501 1.5817"/>
    <path d="m265.56 230.44c1.1775 1.5114 3.0053 2.8471 5.3427 0.33392 2.355-2.5132 13.462-12.214 15.132-14.218"/>
    <path d="m272.5 235.37s10.791-10.281 12.953-13.128"/>
    <path d="m276.26 238.8c3.6731-1.6696 7.3462-7.0299 8.5237-9.3673"/>
    <path d="m337.85 229.41c-1.2126 1.4763-3.0932 2.7592-5.3603 0.19333-2.2671-2.5835-13.111-12.583-14.728-14.64"/>
    <path d="m330.78 234.15s-10.492-10.58-12.583-13.48"/>
    <path d="m326.92 237.47c-3.638-1.775-7.1529-7.2232-8.2601-9.5958"/>
   </g>
  </g>
 </g>
 <g stroke="#231f20" stroke-width=".66784">
  <path d="m319.73 238.63c-0.66784-0.84358-1.6696-15.097-2.8471-29.262-0.50967-6.2039-1.0369-9.7012-1.9684-11.863-0.42179-0.9666-1.0545-1.6872-1.406-2.2671-0.59754-1.0193-1.0018-2.4253-1.3005-2.4253 0 0-2.1793 4.8506-10.545 4.8506-8.348 0-10.527-4.8506-10.527-4.8506-0.43936 0.0879-0.70299 1.5817-1.4587 2.4253-0.63269 0.72057-1.4587 1.5993-1.9684 3.3392-0.63269 2.2144-1.1248 5.5184-1.2478 10.791-0.33391 14.218-2.1793 28.418-2.8471 29.262z" fill="#231f20" stroke-linecap="round"/>
  <path d="m281.27 240.72c0.42179 0.50967 0.91388 2.7592 0.33392 3.761" fill="none"/>
  <path d="m320.41 239.67c-0.33392 0.42179-0.50966 2.0914 0 2.7592" fill="none"/>
 </g>
 <g fill="#fab70a">
  <g stroke="#231f20" stroke-width=".33392">
   <path d="m277.76 244.4c0.15817 1.3357 1.2478 2.2496 3.0053 2.4253 0 0-1.4938-1.0896-1.0018-2.1793 0.2109-0.45694-1.1599-1.1599-2.0035-0.24604"/>
   <path d="m288.72 245.49c0.33392 1.3357 2.4253 2.3374 4.0949 1.6696 0 0-1.6696-0.49209-2.0035-2.1793 0 0-1.0896-0.66784-2.0914 0.50967"/>
   <path d="m296.66 244.23c1.0896 0.84358-0.33392 2.2496-1.5114 2.7592 0 0 3.8489-0.33392 4.0246-1.5114 0.15817-1.1599 0.15817-1.8278-0.33392-2.0035-0.50967-0.15817-1.6696 0.0879-2.1793 0.75572"/>
  </g>
  <path d="m304.6 244.32c0.0879 1.0018 0.84359 2.5132 2.0035 2.935 0 0-0.66784-0.84359 0.17574-2.0211 0.82602-1.1599-0.84358-1.4938-0.84358-1.4938s-1.0896 0-1.3357 0.57996"/>
 </g>
 <g stroke="#231f20" stroke-linecap="round" stroke-width=".33392">
  <path d="m304.6 244.32c0.0879 1.0018 0.84359 2.5132 2.0035 2.935 0 0-0.66784-0.84359 0.17574-2.0211 0.82602-1.1599-0.84358-1.4938-0.84358-1.4938s-1.0896 0-1.3357 0.57995z" fill="none"/>
  <path d="m315.68 243.48c-0.4218 1.6696-2.1265 3.0053-3.3919 3.4271 0 0 1.5993-2.0914 1.1775-3.0932-0.42179-1.0018 1.7926-0.75571 2.2144-0.33392" fill="#fab70a"/>
  <path d="m324.84 242.39c-0.17575 1.6696-1.6696 3.0053-3.5149 3.3392 0 0 1.5114-1.2478 1.2654-3.1634-0.26362-1.9332 2.2496-1.0896 2.2496-0.17575" fill="#fab70a"/>
 </g>
 <g fill="#ae680a">
  <g stroke="#231f20" stroke-linecap="round" stroke-width=".86116">
   <path d="m314.72 215.68c-0.4218 0.36907-0.66784 1.3005-0.4218 1.9684 0.24605 0.66784 3.5149 3.5149 3.6731 3.2513 0.17574-0.24605 0.33391-3.4271-0.24605-4.0949-0.57997-0.66783-2.7592-1.2126-3.0053-1.1248"/>
   <path d="m288.97 216.01c0.4218 0.36907 0.66784 1.3005 0.4218 1.9684-0.24605 0.66784-3.5149 3.5149-3.6907 3.2513-0.15817-0.24604-0.33392-3.4271 0.26362-4.0949 0.57997-0.66784 2.7592-1.2126 3.0053-1.1248"/>
   <path d="m313.38 209.87c1.1775-0.17574 3.0932 0.33393 3.761 1.2478 0.86116 1.1951 0.75571 3.3568 0 4.8506-0.19333 0.38665-4.0949-1.1599-4.0949-1.6696 0-1.3532 0.33392-4.4288 0.33392-4.4288"/>
   <path d="m305.52 209.37c-0.33392 1.1775-0.75571 3.6028-0.24604 4.4288l7.5571 0.45694c0.50967-0.66784 1.2127-3.2162 0.0527-4.71"/>
   <path d="m317.06 210.54c-3.8488-1.5114-9.7012-2.0035-11.547-1.1775 0 0-0.66784-2.6714-0.15817-4.341 0.49209-1.6696 2.1793-1.6696 2.8471-1.6696s6.0105 0 7.0123 0.50967c1.0018 0.49209 2.0211 0.31634 1.8453 6.6784"/>
   <path d="m290.31 210.2c-1.1775-0.15818-3.0931 0.33391-3.761 1.2478-0.86116 1.1951-0.75571 3.3568 0 4.8506 0.19332 0.38665 4.0949-1.1599 4.0949-1.6696 0-1.3532-0.33392-4.4288-0.33392-4.4288"/>
   <path d="m298.17 209.7c0.33392 1.1775 0.75571 3.6028 0.24604 4.4288l-7.5571 0.45694c-0.50966-0.66784-1.2126-3.2162-0.0527-4.71"/>
   <path d="m286.63 210.87c3.8489-1.5114 9.7012-2.0035 11.547-1.1775 0 0 0.66784-2.6713 0.15818-4.341-0.4921-1.6696-2.1793-1.6696-2.8471-1.6696-0.66784 0-6.0106 0-7.0123 0.49209-1.0018 0.50967-2.0211 0.33392-1.8453 6.696"/>
   <path d="m313.21 224.42c1.8454 0.50967 4.8506 1.6696 5.0088 2.8471 0.17575 1.1599 1.5993 5.5185 0.50967 6.6784-0.3515 0.40421-1.6872-1.7223-3.0932-3.9192-1.3357-2.0914-2.4253-5.6063-2.4253-5.6063"/>
   <path d="m317.39 225.59c-1.4236 0.0527-3.6731-1.1775-4.007-2.0035-0.33392-0.84357-0.59754-2.4253 0.57996-5.6063 1.4236 0.50967 2.9877 2.7944 3.4271 3.0931"/>
   <path d="m309.62 222.16c-2.1793 2.1793-4.9385 6.2742-5.9402 7.9438-1.0018 1.6696-1.0018 3.181-0.33392 4.007 0.66783 0.84359 6.4499-6.2214 6.942-8.9455 0.17575-0.91389-0.66784-3.0053-0.66784-3.0053"/>
   <path d="m308.2 214.47c-1.0896 0-2.2671-0.42179-2.935 0.42179-0.66784 0.82601-0.82602 4.2531-0.66784 4.7627 0.17574 0.50967 3.9192-0.10544 4.1828-1.1775 0.0879-0.33392-0.57996-4.007-0.57996-4.007"/>
   <path d="m308.95 219.4c-0.57997-0.17575-3.3392 0.50967-4.0949 1.0896-0.75571 0.57996-2.0035 5.8524-1.5114 7.4341 0.50967 1.5993 3.0931-3.5149 4.7627-5.0088 1.6872-1.5114 1.2654-1.2478 1.2654-1.5993 0-0.33393-0.42179-1.9156-0.42179-1.9156"/>
   <path d="m290.47 224.75c-1.8453 0.50968-4.8506 1.6696-5.0088 2.8471-0.17574 1.1599-1.5993 5.5185-0.50966 6.6784 0.36906 0.38665 1.6872-1.7223 3.0931-3.9192 1.3357-2.0914 2.4253-5.6063 2.4253-5.6063"/>
   <path d="m289.72 218.31c-1.4236 0.50966-2.9877 2.7944-3.4271 3.0931-0.84359 0.57997-2.0914 4.4288 0 4.5167 1.4236 0.0527 3.6731-1.1775 4.007-2.0035 0.33392-0.84359 0.59754-2.4253-0.57997-5.6063"/>
  </g>
  <path d="m291.89 230.44s3.5149 6.4323 5.4306 8.2777c0 0-3.0932-0.17574-4.007 1.0896-0.50967 0.68542-3.0932-1.7575-5.6063-1.0896 0 0 3.181-5.0967 4.1828-8.2777"/>
 </g>
 <path d="m291.89 230.44s3.5149 6.4323 5.4306 8.2777c0 0-3.0932-0.17574-4.007 1.0896-0.50967 0.68542-3.0932-1.7575-5.6063-1.0896 0 0 3.181-5.0967 4.1828-8.2777z" fill="none" stroke="#231f20" stroke-linecap="round" stroke-width=".86116"/>
 <g fill="#ae680a">
  <g stroke="#231f20" stroke-linecap="round" stroke-width=".86116">
   <path d="m295.49 214.8c1.0896 0 2.2496-0.42179 2.9174 0.4218 0.68541 0.82601 0.84358 4.2531 0.68541 4.7627-0.17575 0.50967-3.9192-0.10545-4.1828-1.1775-0.0879-0.33391 0.57997-4.007 0.57997-4.007"/>
   <path d="m282.86 237.96c0 0.33392 0.75571 1.6696 2.4253 1.5114 1.6696-0.17574 1.8454-0.33392 1.8454-0.33392 5.8524-6.696 8.6819-24.763 8.5237-25.589-0.17575-0.84358 0-2.3374-3.6731 0.15817-3.6907 2.5132-2.0211 3.5149-1.1775 7.3638 0.84358 3.8489-3.5149 11.195-6.1863 14.71z"/>
   <path d="m292.14 217.06c0 0.50966-1.5114 7.3638-1.5114 7.3638"/>
   <path d="m294.07 222.5c2.1793 2.1793 4.9385 6.2742 5.9402 7.9438 1.0018 1.6696 1.0018 3.181 0.33392 4.007-0.66784 0.84359-6.4499-6.2214-6.942-8.9455-0.17575-0.91388 0.66784-3.0053 0.66784-3.0053"/>
   <path d="m294.73 219.74c0.57997-0.17575 3.3392 0.50966 4.0949 1.0896 0.75571 0.57996 2.0035 5.8524 1.5114 7.4341-0.50966 1.5993-3.0931-3.4974-4.7627-5.0088-1.6872-1.5114-1.2654-1.2478-1.2654-1.5993 0-0.33392 0.42179-1.9156 0.42179-1.9156"/>
   <path d="m292.14 230.27c0.84358 3.0053 5.1845 8.4358 5.1845 8.4358s2.0914-0.49209 3.181 1.0896c0 0 1.1599-2.0035 0-3.8313-1.1775-1.8454-7.0299-7.8735-7.0299-9.5431s-1.3357 3.8489-1.3357 3.8489"/>
  </g>
  <path d="m311.79 230.1s-3.5149 6.4323-5.4306 8.2777c0 0 3.0932-0.15818 4.007 1.0896 0.50967 0.68542 3.0932-1.7575 5.6063-1.0896 0 0-3.181-5.0967-4.1828-8.2777"/>
 </g>
 <path d="m311.79 230.1s-3.5149 6.4323-5.4306 8.2777c0 0 3.0932-0.15818 4.007 1.0896 0.50967 0.68542 3.0932-1.7575 5.6063-1.0896 0 0-3.181-5.0967-4.1828-8.2777z" fill="none" stroke="#231f20" stroke-linecap="round" stroke-width=".86116"/>
 <g fill="#ae680a" stroke="#231f20" stroke-linecap="round" stroke-width=".86116">
  <path d="m311.54 229.94c-0.84359 3.0053-5.1845 8.4534-5.1845 8.4534s-2.0914-0.50967-3.181 1.072c0 0-1.1599-2.0035 0-3.8313 1.1775-1.8453 7.0299-7.8735 7.0299-9.543s1.3357 3.8488 1.3357 3.8488"/>
  <path d="m320.82 237.29c0 0.33393-0.75571 1.6696-2.4253 1.5114-1.6696-0.17575-1.8453-0.33392-1.8453-0.33392-5.8524-6.696-8.6819-24.763-8.5237-25.589 0.17575-0.84358 0-2.3374 3.6731 0.15817 3.6907 2.5132 2.0211 3.515 1.1775 7.3638-0.84359 3.8489 3.5149 11.195 6.1863 14.71z"/>
  <path d="m311.54 216.39c0 0.50967 1.5114 7.3638 1.5114 7.3638"/>
 </g>
 <path d="m303.18 239.47c-1.0018 0.24604-1.1775 1.7575-1.1775 1.7575s-0.73814 1.4236-0.73814 2.0035c0 0 0-2.5132-0.59754-3.181-0.57996-0.66782 0.24605 1.0018 0.42179-1.7575h1.5114s0.91388 1.0896 0.57996 1.1775" fill="#231f20" stroke="#231f20" stroke-width="1.0018"/>
 <g fill="#bf8a1e" stroke="#231f20" stroke-width="1.0018">
  <path d="m292.56 240.14c-1.3357-0.75571-5.6766-2.935-8.1898 0.17575"/>
  <g stroke-linecap="round">
   <path d="m310.54 240.89c0.15817-1.4236 1.0018-2.5132 4.6749-2.5132 3.0931 0 2.8471 0.50966 3.181 0.75571"/>
   <path d="m322.58 237.35c-0.82601-0.35149-4.9385-1.1424-3.7786 3.7434"/>
   <path d="m280.11 238.46c0.84358-0.33392 3.3392-1.9156 4.2706 1.8453"/>
  </g>
 </g>
 <path d="m289.54 164c-1.3181-3.5852-0.22847-5.6239 2.935-5.8875 2.0035-0.15817 4.1828 0 4.1828 0s-0.15817-1.5817 1.0018-1.7575c1.1775-0.15817 6.696-0.75571 7.8559-0.0879 1.1775 0.66784 1.3357 0.66784 1.3357 0.66784l0.17575 0.26362s3.2689 4.9209 5.7645 18.893l-2.0914-0.57996 0.84358 2.6714-2.601-0.17574 0.33392 1.5114-1.0018-0.17575s-1.3357 1.9332-0.73814 3.6907c0 0-4.4815-1.2127-5.3076-3.761l-1.1599 2.3374-1.6872-3.181s-2.0035 1.0018-2.1617 2.6714c-0.0879 0.89631-1.5642-2.4253-1.2302-3.5852 0.33392-1.1775-3.4271 0.57997-3.4271 0.57997s0.24605-2.5132 2.0035-3.4271c1.7575-0.91388 3.7961-10.844 1.1775-11.037-3.4271-0.24605-3.761-1.1775-3.761-1.1775l-0.26362 0.26362s-1.2654-0.63269-2.1793 1.283" fill="#fff" stroke="#231f20" stroke-linecap="round" stroke-linejoin="round" stroke-width="1.0018"/>
 <path d="m299.92 159.2c-0.15817-0.38664 2.0914-1.0018 2.8471 0 0.75572 1.0018-1.2654 1.0018-1.2654 1.0018l-0.0703-0.66784-0.66784 0.66784s-0.50967-0.15817-0.84359-1.0018" fill="#231f20"/>
 <g fill="none" stroke="#231f20">
  <path d="m298.33 157.87c-0.24605 0.4218-0.15817 0.75571-0.15817 0.75571s0.26362 0.31635 3.1634 0c1.5114-0.17574 2.6011 0.57997 2.6011 0.57997" stroke-linecap="round" stroke-linejoin="round" stroke-width=".47452"/>
  <path d="m292.65 240.72c0.42179 0.50967 0.91388 2.7592 0.33392 3.761" stroke-width=".66784"/>
  <path d="m318.13 238.34c0.42179 0.50968 0.91388 2.7592 0.33392 3.761" stroke-width=".66784"/>
 </g>
 <g fill="#fff" stroke="#fff" stroke-width="1.3357">
  <path d="m299.56 108.79 3.6204-10.281 3.5677 10.281h10.123l-8.0316 5.8524 3.6204 10.703-9.2267-6.7838-9.6134 6.942 3.9367-11.019-7.6977-5.6942z"/>
  <path d="m223.73 124.66-0.75571-10.879 7.3638 8.0316 9.2794-4.0246-5.0439 8.5589 7.5747 8.3831-11.16-2.5483-5.8524 9.297-0.98419-10.808-9.3322-2.1617z"/>
  <path d="m161.05 168.64-4.9561-9.7188 9.9121 4.4991 6.9596-7.3286-1.283 9.8418 10.264 4.7452-11.265 2.0387-1.5993 11.74-5.29-10.439-10.211 2.232z"/>
  <path d="m122.1 229.91-8.225-7.1705 10.879 0.49209 3.7434-10.176 2.4604 10.387 11.283 0.57997-9.7012 6.0808 2.9174 11.494-7.9789-7.4692-9.3497 5.6766z"/>
  <path d="m108.79 301.29-10.299-3.5852 10.264-3.6028-0.0351-10.123 5.8875 8.0141 10.685-3.6907-6.7311 9.2619 6.9772 9.5958-10.176-3.9719-6.5729 8.7698z"/>
  <path d="m123.06 372.48-10.896 0.50967 8.1898-7.1705-3.8137-9.3673 8.4359 5.2197 8.5589-7.3814-2.7944 11.09 10.053 6.2917-10.931 0.12302-2.7065 11.476z"/>
  <path d="m372.45 123.04 7.2759-8.1195-0.63269 10.861 9.3497 3.8488-9.6485 2.355-0.72056 11.283-5.9578-9.7891-11.529 2.7592 7.8383-8.6995-4.9385-8.1898z"/>
  <path d="m434.41 164 9.8242-4.7452-4.7276 9.8067 7.188 7.1353-9.8242-1.5114-4.9736 10.158-1.775-11.318-11.705-1.8453 10.562-5.0615-1.4587-9.4552z"/>
  <path d="m476.1 225.48 10.879-0.63269-8.0844 7.2584 4.4288 10.035-9.0158-5.8348-8.471 7.4868 2.6714-11.125-9.2619-5.9051 10.844-0.93146 2.1968-9.7715z"/>
  <path d="m491.21 299.99 10.281 3.6555-10.299 3.5325 0.17574 10.967-6.0281-8.8928-10.721 3.6028 6.8014-9.2091-6.2214-9.051 10.334 3.3743 6.1512-8.6643z"/>
  <path d="m475.97 375.42 7.8032 7.3111-10.861-0.80844-4.1652 10.158-2.0387-10.545-9.8067-0.93146 8.4183-5.7821-2.1617-10.756 8.1722 7.1705 8.3128-5.5184z"/>
  <path d="m432.89 437.49 4.5167 9.9297-9.7012-4.9385-7.768 7.7504 2.2144-10.527-9.051-4.9385 10.352-1.775 2.1793-10.773 4.7627 9.7891 9.4903-1.2478z"/>
  <path d="m166.83 437.21-9.7715 4.833 4.6221-9.8594-7.2408-7.0475 9.8418 1.406 4.8682-10.193 1.8805 11.283 10.967 2.1265-9.2091 4.0949 1.652 10.844z"/>
 </g>
 <path d="m298.58 163.38c-1.0896 0.24605-3.3216-0.49209-6.3796-0.91388l-0.52724 0.26362s-1.2654-0.63269-2.1793 1.3005c-1.3181-3.5852-0.24604-5.6239 2.935-5.8875 2.0035-0.17575 4.1828 0 4.1828 0-1.0896 0-1.406 1.3884-0.22847 2.3902 1.8629 1.6169 2.1968 2.8471 2.1968 2.8471" fill="#fab70a" stroke="#231f20" stroke-linecap="round" stroke-linejoin="round" stroke-width=".66784"/>
 <path d="m291.97 162.49s0.36906 0.68541 3.761 1.1775c0.57997 0.0703 2.7241-0.28119 2.7241-0.28119s-1.9156-0.26362-3.2513-0.4218c-1.3357-0.17574-3.2337-0.47451-3.2337-0.47451" fill="#fab20b" stroke="#231f20" stroke-linecap="round" stroke-linejoin="round" stroke-width=".33392"/>
 <g fill="#fab70a" stroke="#231f20" stroke-width="1.3357">
  <path d="m295.99 325.08-25.747-23.409 2.8295-0.66784-7.6801-8.2074-1.3357 1.6872-11.213-15.554 16.555 10.527-2.3374 1.5114 15.378 12.039-3.3392 0.66784 19.069 15.044z"/>
  <path d="m284.05 329.5-30.58-16.626 2.6011-1.3181-9.42-6.1336-0.89631 1.9508-14.587-12.443 18.594 6.2917-1.9156 2.0211 17.803 8.0316-3.0932 1.4411 22.091 10.088z"/>
  <path d="m286.84 333.17-29.051 19.156 0.0527-2.9174-9.8418 5.4306 1.3005 1.7223-17.838 7.0123 14.288-13.445 0.87873 2.6362 15.466-11.933-0.17574 3.4095 19.297-14.745z"/>
  <path d="m299.33 336.95-23.691 25.483-0.63269-2.8471-8.2777 7.6098 1.652 1.3532-15.677 11.019 10.721-16.432 1.4763 2.355 12.214-15.237 0.63269 3.3392 15.255-18.893z"/>
  <path d="m304.02 325.08 25.747-23.409-2.8295-0.66784 7.6801-8.2074 1.3357 1.6872 11.213-15.554-16.555 10.527 2.3374 1.5114-15.378 12.039 3.3392 0.66784-19.069 15.044z"/>
  <path d="m315.96 329.5 30.58-16.626-2.6011-1.3181 9.42-6.1336 0.89631 1.9508 14.569-12.443-18.576 6.2917 1.9156 2.0211-17.803 8.0316 3.0932 1.4411-22.091 10.088z"/>
  <path d="m313.17 333.17 29.051 19.156-0.0527-2.9174 9.8418 5.4306-1.3005 1.7223 17.838 7.0123-14.288-13.445-0.87873 2.6362-15.466-11.933 0.17575 3.4095-19.297-14.745z"/>
  <path d="m300.67 336.95 23.691 25.483 0.65026-2.8471 8.2777 7.6098-1.6696 1.3532 15.677 11.019-10.721-16.432-1.4763 2.355-12.214-15.237-0.61512 3.3392-15.272-18.893z"/>
  <path d="m299.84 324.41s-10.703 1.5114-12.548 0.17574c-1.8278-1.3532-2.4429-1.8453-2.4956-2.5132-0.17575-2.0035 1.6696-2.6714 0.82601-4.0246-0.82601-1.3357-3.0053-2.3374-15.044-2.3374 0 0-2.4253-0.24604-3.9367-1.4236-1.3005-1.0193-4.2531-0.49208-3.3392 1.7575 0 0-5.2724 1.2654-15.641-0.15817-5.8524-0.80844-8.3304-1.3708-8.717-0.17575-0.38665 1.1775 2.3726 4.0246 7.645 5.0264 0 0-0.93146 3.2513 6.5202 3.6731 0 0 0.33392 4.6749 8.6819 2.5835 0 0 1.1775 2.935 5.5184 2.601 0 0 0.0879 2.3374 3.5149 3.6028 0 0 0.17574 3.5852 3.3392 3.6731 0 0 2.0914 2.5835 5.2724 1.8454 0 0 2.2671 1.406 4.2706 0.49209 0 0 1.4938 1.5114 4.341 0.33392 0 0 1.5114 1.4236 4.1828 0.17574 0 0 2.7592 1.5817 4.8506-0.50966s2.7592-14.798 2.7592-14.798"/>
  <path d="m299.84 324.41s10.703 1.5114 12.548 0.17574c1.8278-1.3532 2.4429-1.8453 2.4956-2.5132 0.17575-2.0035-1.6696-2.6714-0.82601-4.0246 0.82601-1.3357 3.0053-2.3374 15.044-2.3374 0 0 2.4253-0.24604 3.9367-1.4236 1.3005-1.0193 4.2531-0.49208 3.3392 1.7575 0 0 5.2724 1.2654 15.641-0.15817 5.8348-0.80844 8.3304-1.3708 8.717-0.17575 0.38665 1.1775-2.3726 4.0246-7.645 5.0264 0 0 0.93146 3.2513-6.5202 3.6731 0 0-0.33392 4.6749-8.6819 2.5835 0 0-1.1775 2.935-5.5184 2.601 0 0-0.0879 2.3374-3.5149 3.6028 0 0-0.17574 3.5852-3.3568 3.6731 0 0-2.0738 2.5835-5.2548 1.8454 0 0-2.2671 1.406-4.2706 0.49209 0 0-1.4938 1.5114-4.341 0.33392 0 0-1.5114 1.4236-4.1828 0.17574 0 0-2.7592 1.5817-4.8506-0.50966s-2.7592-14.798-2.7592-14.798"/>
 </g>
 <g fill="none" stroke="#231f20" stroke-width="1.0018">
  <g stroke-linecap="round">
   <path d="m263.89 316.3c0.42179 1.8453 2.0035 2.8471 12.214 2.8471 0 0 1.8278-0.0879 2.0035 1.9156"/>
   <path d="m267.23 318.73c0 3.2689 3.2513 4.4288 8.4358 2.601"/>
   <path d="m279.35 324.33s-3.2865 3.6731-5.6063 3.0053c-1.7575-0.49209-1.5817-2.2496-1.5817-2.2496"/>
   <path d="m277.76 322.74s-4.9385 3.515-6.7663 1.7575c-1.5642-1.4763-0.33392-2.0914-0.33392-2.0914"/>
   <path d="m275 327.42c0.66784 1.3357 1.1775 2.4253 3.0053 1.8453 1.6872-0.54481 3.3568-1.9332 3.6028-2.5132"/>
  </g>
  <path d="m264.64 317.81s-6.696 3.181-17.733 2.935"/>
  <path d="m266.98 318.64s-2.1793 3.8489-13.884 5.7645"/>
  <path d="m268.57 321.57s-1.0018 2.4253-6.5202 5.2724"/>
  <path d="m262.3 327.09c4.2706-0.33392 7.9438-2.3374 7.8559-4.5167"/>
  <path d="m267.56 329.6s3.9367-0.91388 4.007-4.1828"/>
  <path d="m270.82 333.19s3.3392-0.0879 4.0949-5.2724"/>
  <path d="m277.43 329.6c0.66784 1.6696 2.1793 2.5132 4.007 2.0035 1.8453-0.4921 2.8471-2.8471 2.8471-2.8471" stroke-linecap="round"/>
  <path d="m274.17 336.87c1.7575-0.57996 3.4271-2.5835 3.9367-5.7645"/>
  <path d="m278.77 338.79c2.8471-1.5114 3.181-4.007 3.0053-6.362"/>
  <path d="m281.44 331.6c1.0018 2.1793 2.0035 2.5132 3.5149 2.3374 1.4938-0.15817 2.8471-4.007 2.8471-4.007" stroke-linecap="round"/>
  <path d="m285.96 333.44c1.6696 1.1775 2.6714 1.0018 3.3392 0.84358 0.66784-0.17574 2.355-1.6872 2.355-3.6907" stroke-linecap="round"/>
  <path d="m289.3 334.28c0.17574 1.5114 0.17574 3.5149-0.84359 5.1845"/>
  <path d="m285.46 333.95s0.50967 3.3392-1.3357 5.0088"/>
  <path d="m292.23 339.71c0.75571-1.4236 1.4236-3.6028 1.0896-5.6063"/>
  <g stroke-linecap="round">
   <path d="m290.64 333.61c1.5114 0.84359 3.6731 1.1775 5.0088-1.0018"/>
   <path d="m335.79 316.3c-0.42179 1.8453-2.0035 2.8471-12.214 2.8471 0 0-1.8278-0.0879-2.0035 1.9156"/>
   <path d="m332.44 318.73c0 3.2689-3.2513 4.4288-8.4359 2.601"/>
   <path d="m320.32 324.33s3.2865 3.6731 5.6063 3.0053c1.7575-0.49209 1.5817-2.2496 1.5817-2.2496"/>
   <path d="m321.91 322.74s4.9385 3.515 6.7662 1.7575c1.5466-1.4763 0.33392-2.0914 0.33392-2.0914"/>
   <path d="m324.67 327.42c-0.66784 1.3357-1.1775 2.4253-3.0053 1.8453-1.6872-0.54481-3.3568-1.9332-3.6028-2.5132"/>
  </g>
  <path d="m335.04 317.81s6.696 3.181 17.733 2.935"/>
  <path d="m332.69 318.64s2.1793 3.8489 13.884 5.7645"/>
  <path d="m331.11 321.57s1.0018 2.4253 6.5202 5.2724"/>
  <path d="m337.38 327.09c-4.2706-0.33392-7.9438-2.3374-7.8559-4.5167"/>
  <path d="m332.11 329.6s-3.9367-0.91388-4.007-4.1828"/>
  <path d="m328.85 333.19s-3.3392-0.0879-4.0949-5.2724"/>
  <path d="m322.24 329.6c-0.66784 1.6696-2.1793 2.5132-4.007 2.0035-1.8453-0.4921-2.8471-2.8471-2.8471-2.8471" stroke-linecap="round"/>
  <path d="m325.5 336.87c-1.7575-0.57996-3.4271-2.5835-3.9192-5.7645"/>
  <path d="m320.91 338.79c-2.8471-1.5114-3.181-4.007-3.0053-6.362"/>
  <path d="m318.23 331.6c-1.0018 2.1793-2.0035 2.5132-3.5149 2.3374-1.4938-0.15817-2.8471-4.007-2.8471-4.007" stroke-linecap="round"/>
  <path d="m313.72 333.44c-1.6696 1.1775-2.6714 1.0018-3.3392 0.84358-0.66784-0.17574-2.355-1.6872-2.355-3.6907" stroke-linecap="round"/>
  <path d="m310.37 334.28c-0.17575 1.5114-0.17575 3.5149 0.84359 5.1845"/>
  <path d="m314.22 333.95s-0.50966 3.3392 1.3357 5.0088"/>
  <path d="m307.44 339.71c-0.75571-1.4236-1.4236-3.6028-1.0896-5.6063"/>
  <path d="m309.04 333.61c-1.5114 0.84359-3.6731 1.1775-5.0264-1.0018" stroke-linecap="round"/>
 </g>
 <g fill="#fab70a" stroke="#231f20" stroke-width="1.3357">
  <path d="m301.18 290.3c0.66784-1.6696 1.0545-3.0053 0.89631-7.0299-0.17575-4.007-4.0246-5.6766-1.2302-9.3497 0 0 0-1.0193-1.0018-0.68541-1.0018 0.35149-4.1828 6.0281-4.1828 8.5413 0 8.6995 5.5184 4.8506 5.5184 8.5237"/>
  <path d="m300.09 296.24s-2.4077-6.942 4.4288-9.2794c6.362-2.1793 7.6977 2.0035 11.371 0.33392 1.8453-0.84359 0.33392-3.181 0.33392-3.181s0.33392-1.1775 1.0018-0.33392 3.0053 8.3656-4.8506 8.8576c-7.8559 0.50967-10.949 1.5993-12.285 3.6028"/>
  <path d="m301.76 295.74s2.4077-6.942-4.4288-9.2794c-6.362-2.1793-7.6977 2.0035-11.371 0.33392-1.8454-0.84359-0.33392-3.181-0.33392-3.181s-0.33392-1.1775-1.0018-0.33392c-0.66784 0.84358-3.0228 8.3656 4.8506 8.8576 7.8559 0.50967 10.949 1.5993 12.285 3.6028"/>
  <path d="m295.66 293.31c-3.5149 8.0316 7.188 13.374 7.188 13.374 2.3374-11.371-4.007-12.039-5.8524-13.199z"/>
  <path d="m295.64 300.84c-4.1652 7.8559 7.3286 13.638 7.3286 13.638 2.3902-11.599-5.0264-12.777-6.9069-13.972z"/>
  <path d="m300.09 362.62s2.3902 6.942-4.4288 9.2794c-6.362 2.1793-7.6977-2.0035-11.371-0.33392-1.8453 0.82601-0.33392 3.181-0.33392 3.181s-0.33392 1.1599-1.0018 0.33392c-0.66784-0.84358-3.0053-8.3656 4.8506-8.8576 7.8559-0.50967 10.949-1.5993 12.285-3.6028"/>
  <path d="m298.41 363.13s-2.4077 6.942 4.4288 9.2794c6.362 2.1793 7.6977-2.0035 11.371-0.33392 1.8454 0.82601 0.33392 3.181 0.33392 3.181s0.33392 1.1599 1.0018 0.33392c0.66784-0.84358 3.0228-8.3656-4.8506-8.8576-7.8559-0.50966-10.949-1.5993-12.285-3.6028"/>
  <path d="m303.35 365.55c4.5167-8.0316-7.188-13.374-7.188-13.374-2.3374 11.371 4.007 12.039 5.8524 13.199z"/>
  <path d="m303.36 358.02c4.6749-7.8559-7.3286-13.638-7.3286-13.638-3.058 10.808 5.0264 12.777 6.9068 13.972z"/>
  <path d="m298 364.13c-0.66784 1.6696-1.6696 7.9438-0.66784 11.951 0.96661 3.9016 4.007 5.5185 2.0035 8.8752 0 0 0 1.0018 1.0018 0.66784 1.0018-0.35149 4.1828-6.0281 4.1828-8.5413 0-8.6819-6.5202-9.2794-6.5202-12.953"/>
  <path d="m295.91 308.69c-5.7645 11.705 7.3286 16.292 7.3286 16.292 2.478-12.056-4.8858-14.64-6.8366-15.87z"/>
  <path d="m303.85 348.33c4.7979-8.594-8.6116-15.308-8.6116-15.308-4.3058 10.123 5.413 15.483 7.3638 16.731z"/>
  <path d="m295.99 318.23c1.3357 2.5132 4.2531 5.993 7.6098 7.1002 0.49209 0.17575 2.8998 7.7153 2.1617 11.547-0.49209 2.6714-1.5817 3.9192-1.5817 3.9192s-4.4112-5.7118-8.0141-7.6801c-2.7768-1.5114-3.0756-7.8559-3.0228-8.8752 0.24605-4.007 2.8471-6.0106 2.8471-6.0106"/>
 </g>
 <g fill="#231f20">
  <path d="m81.83 414.09s0.68541 2.4077-1.6872 3.0931c-2.1968 0.61512-2.5835-0.82601-3.8664-0.33392-0.65026 0.26362-0.17574 1.0896-0.17574 1.0896s-0.1406 0.38664-0.3515 0.0879c-0.21089-0.29877-0.87873-2.9174 1.8102-2.935 2.7065-0.0176 3.7786-0.33391 4.2706-1.0018"/>
  <path d="m82.15 414.21s1.7399-1.8102 3.5149-0.0879c1.652 1.5993 0.57997 2.6538 1.652 3.5149 0.54481 0.43937 1.0193-0.38664 1.0193-0.38664s0.42179-0.0879 0.26362 0.26362c-0.15817 0.31634-2.0914 2.1968-3.4622-0.12303-1.3532-2.3023-2.1793-3.0931-2.9877-3.181"/>
  <path d="m82.09 413.86s-2.4429-0.61512-1.8278-3.0053c0.56239-2.2144 2.0035-1.8278 2.2144-3.1986 0.10545-0.66784-0.84358-0.68541-0.84358-0.68541s-0.2812-0.31635 0.0879-0.3515c0.36907-0.0351 2.9526 0.70299 1.6344 3.058-1.3181 2.3374-1.5817 3.4271-1.2654 4.1828"/>
  <path d="m512.71 422.68s1.6696-1.8805 3.5149-0.22847c1.7048 1.529 0.68541 2.6362 1.7926 3.4446 0.56239 0.40422 1.0018-0.42179 1.0018-0.42179s0.40422-0.10545 0.26362 0.22847c-0.12303 0.35149-1.9859 2.3023-3.4446 0.0352-1.4587-2.2496-2.3023-2.9877-3.1283-3.058"/>
  <path d="m512.64 422.34s-2.4604-0.50967-1.9508-2.9174c0.47452-2.2496 1.9332-1.9156 2.0738-3.2865 0.0879-0.68541-0.86116-0.65026-0.86116-0.65026s-0.2812-0.31635 0.0703-0.3515c0.36906-0.0527 2.9877 0.56239 1.7575 2.9701-1.2302 2.3902-1.4411 3.4974-1.0896 4.2355"/>
  <path d="m512.38 422.58s0.79087 2.3902-1.5641 3.1459c-2.1793 0.72057-2.6186-0.72056-3.884-0.15817-0.63269 0.2812-0.12302 1.0896-0.12302 1.0896s-0.12303 0.38665-0.3515 0.10545c-0.21089-0.28119-0.98418-2.8647 1.7048-3.0053 2.6889-0.14059 3.7434-0.49209 4.2179-1.1775"/>
 </g>
</svg>
