<svg 
 xmlns="http://www.w3.org/2000/svg"
 xmlns:xlink="http://www.w3.org/1999/xlink"
 width="195px" height="195px">
<path fill-rule="evenodd"  fill="rgb(69, 69, 71)"
 d="M67.894,152.959 C67.303,152.342 66.493,151.996 65.658,151.996 C65.135,151.996 64.618,152.131 64.161,152.386 C59.884,154.659 57.110,159.062 56.906,163.885 C57.253,171.185 52.910,178.057 46.097,180.907 C43.226,182.120 40.188,182.736 37.072,182.736 C31.002,182.736 25.261,180.409 20.904,176.182 L19.238,174.515 C12.542,167.626 10.631,157.467 14.362,148.626 C17.050,142.158 23.315,137.976 30.321,137.976 C30.583,137.976 30.846,137.982 31.110,137.994 C35.834,137.763 40.235,134.986 42.514,130.746 C43.199,129.513 42.968,127.982 41.958,127.013 L0.303,85.338 L30.582,54.815 C32.348,53.011 34.816,51.975 37.347,51.975 C38.774,51.975 40.209,52.306 41.494,52.933 C48.088,56.274 52.302,62.929 52.504,70.307 C52.260,75.014 54.989,79.299 59.292,81.041 C61.421,81.911 63.660,82.352 65.953,82.352 C70.516,82.352 74.843,80.613 78.136,77.457 L79.710,75.880 C84.394,71.063 85.743,63.933 83.139,57.726 C81.403,53.478 77.326,50.740 72.749,50.740 C72.543,50.740 72.336,50.745 72.128,50.756 C64.671,50.565 58.011,46.350 54.674,39.757 C52.880,36.077 53.634,31.691 56.546,28.832 L85.451,0.162 L127.082,41.808 C127.674,42.424 128.484,42.770 129.320,42.770 C129.842,42.770 130.359,42.635 130.815,42.381 C135.095,40.113 137.875,35.713 138.087,30.890 C137.738,23.592 142.080,16.721 148.892,13.869 C151.765,12.656 154.803,12.039 157.919,12.039 C163.990,12.039 169.732,14.368 174.088,18.595 L175.752,20.263 C182.449,27.150 184.361,37.308 180.630,46.150 C177.949,52.618 171.691,56.801 164.688,56.802 C164.420,56.802 164.152,56.795 163.882,56.783 C159.145,56.990 154.750,59.766 152.493,64.026 C151.805,65.264 152.035,66.794 153.045,67.763 L194.699,109.440 L166.023,138.126 C164.262,139.925 161.798,140.961 159.270,140.961 C157.840,140.961 156.404,140.628 155.117,139.998 C148.520,136.656 144.307,129.997 144.110,122.614 C144.353,117.909 141.625,113.624 137.324,111.882 C135.195,111.010 132.954,110.569 130.661,110.569 C126.098,110.569 121.772,112.308 118.480,115.466 L116.904,117.042 C112.220,121.858 110.870,128.989 113.475,135.197 C115.216,139.443 119.298,142.183 123.877,142.183 C124.079,142.183 124.282,142.177 124.487,142.167 C131.967,142.257 138.638,146.441 141.954,153.084 C143.752,156.786 142.988,161.200 140.056,164.076 L109.545,194.626 L67.894,152.959 ZM65.806,145.623 C68.290,145.626 70.705,146.654 72.430,148.443 L109.544,185.573 L135.548,159.559 C136.596,158.558 136.835,156.994 136.144,155.743 C133.884,151.436 129.480,148.693 124.642,148.567 C124.433,148.578 124.162,148.585 123.891,148.585 C116.763,148.585 110.372,144.334 107.611,137.755 C103.977,129.152 105.830,119.257 112.335,112.552 L114.001,110.886 C118.481,106.527 124.380,104.132 130.620,104.132 C133.816,104.132 136.931,104.763 139.881,106.008 C146.565,108.788 150.838,115.521 150.509,122.760 C150.716,127.504 153.490,131.904 157.750,134.168 C158.221,134.429 158.738,134.563 159.259,134.563 C160.095,134.563 160.906,134.217 161.484,133.614 L185.648,109.440 L148.523,72.302 C145.617,69.449 144.862,65.062 146.650,61.394 C149.983,54.779 156.641,50.563 164.033,50.382 C164.293,50.393 164.484,50.398 164.674,50.398 C169.130,50.398 173.088,47.726 174.758,43.591 C177.389,37.155 175.982,29.756 171.174,24.740 L169.600,23.165 C166.464,20.115 162.315,18.430 157.928,18.430 C155.695,18.430 153.517,18.870 151.454,19.735 C147.016,21.546 144.218,25.971 144.485,30.750 C144.292,38.207 140.079,44.870 133.490,48.210 C132.192,48.845 130.756,49.178 129.326,49.178 C126.798,49.178 124.335,48.143 122.567,46.337 L85.445,9.194 L61.047,33.373 C60.032,34.350 59.804,35.878 60.483,37.098 C62.752,41.389 67.156,44.163 71.985,44.356 C72.181,44.345 72.452,44.338 72.723,44.338 C79.851,44.338 86.242,48.589 89.003,55.167 C92.638,63.772 90.783,73.666 84.279,80.371 L82.613,82.037 C78.133,86.395 72.234,88.790 65.994,88.790 C62.799,88.790 59.685,88.159 56.737,86.914 C50.049,84.135 45.775,77.402 46.105,70.161 C45.893,65.424 43.119,61.028 38.864,58.766 C38.394,58.504 37.877,58.370 37.356,58.370 C36.520,58.370 35.708,58.717 35.129,59.321 L9.334,85.333 L46.479,122.491 C49.391,125.344 50.145,129.730 48.351,133.400 C44.996,139.987 38.337,144.195 30.964,144.394 C30.715,144.384 30.534,144.379 30.354,144.379 C25.892,144.379 21.920,147.052 20.233,151.188 C17.603,157.621 19.011,165.020 23.818,170.037 L25.392,171.611 C28.528,174.661 32.676,176.346 37.064,176.346 C37.064,176.346 37.065,176.346 37.065,176.346 C39.298,176.346 41.477,175.907 43.540,175.041 C47.977,173.229 50.773,168.804 50.507,164.027 C50.699,156.569 54.912,149.906 61.499,146.566 C62.890,145.948 64.322,145.637 65.796,145.623 L65.801,145.623 L65.806,145.623 Z"/>
</svg>