<svg id="Amanda_copy_3" data-name="Amanda copy 3" xmlns="http://www.w3.org/2000/svg" viewBox="0 0 273.88 370.67"><defs><style>.cls-1{fill:#fff;}</style></defs><title>logo</title><path class="cls-1" d="M523.73,450.28l15-30.22a2,2,0,0,0-.09-1.94,2,2,0,0,0-1.7-.95H514.35V388.7a2,2,0,0,0-2-2H472.86a3.29,3.29,0,0,0,.05-.44c0-4.91-5.8-4.12-6.65-4.12H337.39c-.86,0-6.65-.79-6.65,4.12a3.29,3.29,0,0,0,.05.44H291.63a2,2,0,0,0-2,2v28.47H267.06a2,2,0,0,0-1.7.95,2,2,0,0,0-.09,1.94l15,30.22-15,30.18a2,2,0,0,0,1.79,2.89h36.47a2,2,0,0,0,2-2V452.63H498.47v28.72a2,2,0,0,0,2,2h36.47a2,2,0,0,0,1.79-2.89ZM270.29,479.35l14-28.17a2,2,0,0,0,0-1.78l-14-28.23h19.35v29.46s0,.05,0,.07a1.83,1.83,0,0,0,.13.83l10.8,27.82Zm31.24-8.57-7-18.15h7Zm-7.9-22.15V390.7H510.35v57.93Zm208.84,4h7l-7,18Zm.9,26.72,10.8-27.82a2.85,2.85,0,0,0,.11-.39,2.16,2.16,0,0,0,.07-.51V421.17h19.37l-14,28.23a2,2,0,0,0,0,1.78l14,28.17Z" transform="translate(-265.06 -119.88)"/><path class="cls-1" d="M320.11,411.35h4.31a5.54,5.54,0,0,0,4.39-1.85,5.66,5.66,0,0,0,1.46-3.79,5.9,5.9,0,0,0-.57-2.67,4.57,4.57,0,0,0-1.44-1.79,5.65,5.65,0,0,0-2.08-1.11,11.32,11.32,0,0,0-2.13-.2h-6.77v18.71h2.83Zm0-8.73h4.1a3.49,3.49,0,0,1,2,.53,2.25,2.25,0,0,1,.9.91,3.56,3.56,0,0,1,.31,1.58,3.14,3.14,0,0,1-.76,2.05,3,3,0,0,1-2.37,1h-4.2Z" transform="translate(-265.06 -119.88)"/><path class="cls-1" d="M337.66,410.65h3.62l3.86,8h3.37l-4.33-8.31a5.2,5.2,0,0,0,3.62-5.18,5,5,0,0,0-1.86-4,5.78,5.78,0,0,0-3.82-1.23h-7.3v18.71h2.84Zm0-8.18h4.44a3.28,3.28,0,0,1,2.08.57,2.47,2.47,0,0,1,.93,2.12,2.88,2.88,0,0,1-.78,2,3.09,3.09,0,0,1-2.38.93h-4.29Z" transform="translate(-265.06 -119.88)"/><polygon class="cls-1" points="87.76 298.77 99.71 298.77 99.71 296.08 90.6 296.08 90.6 290.59 98.37 290.59 98.37 288.08 90.6 288.08 90.6 282.74 99.71 282.74 99.71 280.06 87.76 280.06 87.76 298.77"/><path class="cls-1" d="M381.49,413.36a5.29,5.29,0,0,0-1.24-3.49,5.84,5.84,0,0,0-3.89-1.89c-.89-.11-1.59-.21-2.11-.29a3.63,3.63,0,0,1-2-.92,2.08,2.08,0,0,1-.63-1.47,2.41,2.41,0,0,1,.94-2,3.51,3.51,0,0,1,2.18-.66,8.57,8.57,0,0,1,4.63,1.44l1.58-2.34a10.49,10.49,0,0,0-6.07-1.93,6.36,6.36,0,0,0-4.48,1.51,5.14,5.14,0,0,0-1.63,3.95,5,5,0,0,0,1.3,3.47,6.16,6.16,0,0,0,3.67,1.78l2.48.35c1.64.28,2.45,1.12,2.43,2.51q0,2.55-3.69,2.6a8.12,8.12,0,0,1-5.31-1.86l-1.86,2.13a10.55,10.55,0,0,0,7.14,2.57Q381.35,418.73,381.49,413.36Z" transform="translate(-265.06 -119.88)"/><rect class="cls-1" x="121.39" y="280.06" width="2.84" height="18.71"/><path class="cls-1" d="M407.44,403.1a6.3,6.3,0,0,0-5.7-3.16H395.2v18.71h6.35a6.84,6.84,0,0,0,5.84-3.11,9.19,9.19,0,0,0,.52-1,4.72,4.72,0,0,0,.31-1.08,26.51,26.51,0,0,0,.22-4.21,39.34,39.34,0,0,0-.14-4A5.65,5.65,0,0,0,407.44,403.1Zm-1.95,9.71a3.11,3.11,0,0,1-.61,1.52,3.82,3.82,0,0,1-3.46,1.63H398V402.62h3.39a3.77,3.77,0,0,1,3.34,1.58,3.31,3.31,0,0,1,.73,1.71c.07.7.11,1.86.11,3.49S405.56,412.2,405.49,412.81Z" transform="translate(-265.06 -119.88)"/><polygon class="cls-1" points="160.61 296.08 151.5 296.08 151.5 290.59 159.27 290.59 159.27 288.08 151.5 288.08 151.5 282.74 160.61 282.74 160.61 280.06 148.66 280.06 148.66 298.77 160.61 298.77 160.61 296.08"/><polygon class="cls-1" points="179.27 298.77 179.27 280.06 176.43 280.06 176.43 293.35 176.38 293.35 167.91 280.06 165.25 280.06 165.25 298.77 168.08 298.77 168.08 285.48 168.13 285.48 176.59 298.77 179.27 298.77"/><polygon class="cls-1" points="188.36 298.77 191.21 298.77 191.21 282.59 196.33 282.59 196.33 280.06 183.24 280.06 183.24 282.59 188.36 282.59 188.36 298.77"/><polygon class="cls-1" points="202.82 280.06 200.14 280.06 200.14 284.68 202.82 282.74 202.82 280.06"/><path class="cls-1" d="M480.58,408c-.88-.11-1.59-.21-2.1-.29a3.63,3.63,0,0,1-2-.92,2.08,2.08,0,0,1-.63-1.47,2.43,2.43,0,0,1,.93-2,3.54,3.54,0,0,1,2.19-.66,8.6,8.6,0,0,1,4.63,1.44l1.58-2.34a10.52,10.52,0,0,0-6.07-1.93,6.33,6.33,0,0,0-4.48,1.51,5.11,5.11,0,0,0-1.63,3.95,5,5,0,0,0,1.3,3.47A6.13,6.13,0,0,0,478,410.5l2.47.35c1.64.28,2.46,1.12,2.44,2.51q-.06,2.55-3.7,2.6a8.14,8.14,0,0,1-5.31-1.86L472,416.23a10.57,10.57,0,0,0,7.15,2.57q6.42-.07,6.57-5.44a5.3,5.3,0,0,0-1.25-3.49A5.82,5.82,0,0,0,480.58,408Z" transform="translate(-265.06 -119.88)"/><path class="cls-1" d="M380.79,426.61a3.51,3.51,0,0,1,1.18-1,4,4,0,0,1,1.72-.4A3.74,3.74,0,0,1,386,426a4.07,4.07,0,0,1,1.26,1.93h3a7.08,7.08,0,0,0-2.15-3.94,6.33,6.33,0,0,0-4.42-1.61,6.61,6.61,0,0,0-5.86,3.36,5.34,5.34,0,0,0-.63,1.79,49.89,49.89,0,0,0,0,8.7,5,5,0,0,0,.26,1c.11.25.23.52.37.81a6.27,6.27,0,0,0,2.18,2.28,7,7,0,0,0,7.9-.31,7,7,0,0,0,2.35-4h-3a3.81,3.81,0,0,1-3.57,2.55,3.82,3.82,0,0,1-2.9-1.36,3.18,3.18,0,0,1-.73-1.58,22.72,22.72,0,0,1-.2-3.73,23.34,23.34,0,0,1,.2-3.76A3.16,3.16,0,0,1,380.79,426.61Z" transform="translate(-265.06 -119.88)"/><path class="cls-1" d="M404.34,434.63a3.89,3.89,0,0,1-1.07,2.91,3.76,3.76,0,0,1-2.74,1,3.65,3.65,0,0,1-2.7-1,3.87,3.87,0,0,1-1.11-2.91V422.57h-2.83v12.37a6.09,6.09,0,0,0,1.95,4.68,7,7,0,0,0,9.43,0,6.24,6.24,0,0,0,1.91-4.68V422.57h-2.84Z" transform="translate(-265.06 -119.88)"/><path class="cls-1" d="M423.74,423.88a5.65,5.65,0,0,0-2.08-1.11,10.55,10.55,0,0,0-2.13-.2h-6.77v18.7h2.83V434h4.31a5.51,5.51,0,0,0,4.39-1.85,5.62,5.62,0,0,0,1.46-3.78,5.84,5.84,0,0,0-.57-2.67A4.43,4.43,0,0,0,423.74,423.88Zm-1.58,6.44a3,3,0,0,1-2.37,1h-4.2v-6h4.1a3.57,3.57,0,0,1,2,.52,2.34,2.34,0,0,1,.9.92,3.52,3.52,0,0,1,.31,1.57A3.15,3.15,0,0,1,422.16,430.32Z" transform="translate(-265.06 -119.88)"/><polygon class="cls-1" points="197.22 310.99 195.98 307.16 194.73 310.99 190.71 310.99 193.97 313.36 192.72 317.19 195.98 314.82 199.24 317.19 197.99 313.36 201.25 310.99 197.22 310.99"/><polygon class="cls-1" points="180.08 310.99 178.84 307.16 177.59 310.99 173.56 310.99 176.82 313.36 175.58 317.19 178.84 314.82 182.1 317.19 180.85 313.36 184.11 310.99 180.08 310.99"/><polygon class="cls-1" points="214.36 310.99 213.12 307.16 211.88 310.99 207.85 310.99 211.11 313.36 209.86 317.19 213.12 314.82 216.38 317.19 215.13 313.36 218.39 310.99 214.36 310.99"/><rect class="cls-1" x="173.11" y="319.42" width="46.34" height="1.95"/><rect class="cls-1" x="173.11" y="302.88" width="46.34" height="1.95"/><polygon class="cls-1" points="76.59 310.99 75.34 307.16 74.1 310.99 70.07 310.99 73.33 313.36 72.08 317.19 75.34 314.82 78.6 317.19 77.36 313.36 80.61 310.99 76.59 310.99"/><polygon class="cls-1" points="59.45 310.99 58.2 307.16 56.95 310.99 52.93 310.99 56.19 313.36 54.94 317.19 58.2 314.82 61.46 317.19 60.21 313.36 63.47 310.99 59.45 310.99"/><polygon class="cls-1" points="93.73 310.99 92.48 307.16 91.24 310.99 87.21 310.99 90.47 313.36 89.22 317.19 92.48 314.82 95.74 317.19 94.5 313.36 97.75 310.99 93.73 310.99"/><rect class="cls-1" x="52.47" y="319.42" width="46.34" height="1.95"/><rect class="cls-1" x="52.47" y="302.88" width="46.34" height="1.95"/><path class="cls-1" d="M345.14,475.31a4.1,4.1,0,0,0,1.37-2.34h-1.75a2.22,2.22,0,0,1-2.09,1.49,2,2,0,0,1-1-.24,2.1,2.1,0,0,1-.69-.55,1.88,1.88,0,0,1-.43-.92,13.11,13.11,0,0,1-.11-2.18,13.25,13.25,0,0,1,.11-2.19,1.84,1.84,0,0,1,.43-.91,2.13,2.13,0,0,1,.69-.56,2.34,2.34,0,0,1,1-.24,2.26,2.26,0,0,1,1.35.46,2.45,2.45,0,0,1,.74,1.12h1.75a4.17,4.17,0,0,0-1.26-2.29,3.67,3.67,0,0,0-2.58-.94,3.78,3.78,0,0,0-2.15.61,3.93,3.93,0,0,0-1.27,1.35,3.15,3.15,0,0,0-.37,1,29.38,29.38,0,0,0,0,5.08,3,3,0,0,0,.15.58l.22.48a3.8,3.8,0,0,0,1.27,1.33,3.87,3.87,0,0,0,2.15.63A3.92,3.92,0,0,0,345.14,475.31Z" transform="translate(-265.06 -119.88)"/><polygon class="cls-1" points="87.61 356.15 87.61 351.66 90.9 345.23 89.15 345.23 86.83 350.08 84.52 345.23 82.77 345.23 86.05 351.66 86.05 356.15 87.61 356.15"/><path class="cls-1" d="M365.06,469.88a2.12,2.12,0,0,0,.5-.55,2.57,2.57,0,0,0,.32-1.29,2.81,2.81,0,0,0-.82-2.12,3.36,3.36,0,0,0-2.42-.81h-4.23V476H363a2.94,2.94,0,0,0,2.15-.86,3,3,0,0,0,.88-2.24,3.09,3.09,0,0,0-.42-1.58,2.25,2.25,0,0,0-1.35-.94v0A3.7,3.7,0,0,0,365.06,469.88Zm-5-3.3h2.39a1.9,1.9,0,0,1,1.33.45,1.53,1.53,0,0,1,.43,1.11,1.49,1.49,0,0,1-.43,1.1,1.74,1.74,0,0,1-1.33.47h-2.39Zm4.32,6.24A1.64,1.64,0,0,1,364,474a1.71,1.71,0,0,1-1.35.5h-2.54v-3.28h2.54a1.78,1.78,0,0,1,1.35.49A1.64,1.64,0,0,1,364.39,472.82Z" transform="translate(-265.06 -119.88)"/><polygon class="cls-1" points="111.21 346.8 111.21 345.23 104.24 345.23 104.24 356.15 111.21 356.15 111.21 354.58 105.9 354.58 105.9 351.38 110.43 351.38 110.43 349.91 105.9 349.91 105.9 346.8 111.21 346.8"/><path class="cls-1" d="M384.82,471.18a3,3,0,0,0,2.11-3,2.9,2.9,0,0,0-1.08-2.33,3.38,3.38,0,0,0-2.23-.72h-4.26V476H381v-4.67h2.11l2.25,4.67h2ZM381,469.9v-3.32h2.59a1.92,1.92,0,0,1,1.21.34,1.45,1.45,0,0,1,.55,1.24,1.68,1.68,0,0,1-.46,1.2,1.83,1.83,0,0,1-1.39.54Z" transform="translate(-265.06 -119.88)"/><path class="cls-1" d="M393.48,474.46a4.83,4.83,0,0,1-3.1-1.08l-1.08,1.24a6.17,6.17,0,0,0,4.17,1.5q3.75,0,3.83-3.18a3.09,3.09,0,0,0-.72-2,3.39,3.39,0,0,0-2.27-1.1l-1.23-.18a2.13,2.13,0,0,1-1.18-.54,1.21,1.21,0,0,1-.36-.85,1.42,1.42,0,0,1,.54-1.18,2.05,2.05,0,0,1,1.28-.39,5.09,5.09,0,0,1,2.7.84l.92-1.36a6.14,6.14,0,0,0-3.54-1.13,3.69,3.69,0,0,0-2.61.88,3,3,0,0,0-.95,2.31,2.91,2.91,0,0,0,.75,2,3.53,3.53,0,0,0,2.14,1l1.45.21c1,.16,1.43.65,1.42,1.46C395.62,473.94,394.9,474.44,393.48,474.46Z" transform="translate(-265.06 -119.88)"/><polygon class="cls-1" points="142.5 346.8 142.5 345.23 135.52 345.23 135.52 356.15 142.5 356.15 142.5 354.58 137.18 354.58 137.18 351.38 141.72 351.38 141.72 349.91 137.18 349.91 137.18 346.8 142.5 346.8"/><path class="cls-1" d="M412.48,467.47a2,2,0,0,1,.69-.56,2.34,2.34,0,0,1,1-.24,2.26,2.26,0,0,1,1.35.46,2.36,2.36,0,0,1,.73,1.12H418a4.17,4.17,0,0,0-1.26-2.29,3.68,3.68,0,0,0-2.58-.94,3.76,3.76,0,0,0-2.15.61,3.84,3.84,0,0,0-1.27,1.35,3.15,3.15,0,0,0-.37,1,29.38,29.38,0,0,0,0,5.08,3,3,0,0,0,.15.58l.22.48a3.71,3.71,0,0,0,1.27,1.33,3.85,3.85,0,0,0,2.15.63,3.92,3.92,0,0,0,2.47-.81A4.1,4.1,0,0,0,418,473h-1.76a2.21,2.21,0,0,1-2.08,1.49,2,2,0,0,1-1-.24,2,2,0,0,1-.69-.55,1.88,1.88,0,0,1-.43-.92,12.77,12.77,0,0,1-.12-2.18,12.91,12.91,0,0,1,.12-2.19A1.84,1.84,0,0,1,412.48,467.47Z" transform="translate(-265.06 -119.88)"/><path class="cls-1" d="M428.26,472.33v-7.22h-1.65v7a2.29,2.29,0,0,1-.63,1.7,2.18,2.18,0,0,1-1.59.61,2.11,2.11,0,0,1-1.58-.61,2.26,2.26,0,0,1-.65-1.7v-7h-1.65v7.22a3.55,3.55,0,0,0,1.13,2.73,4.11,4.11,0,0,0,5.51,0A3.6,3.6,0,0,0,428.26,472.33Z" transform="translate(-265.06 -119.88)"/><path class="cls-1" d="M439.89,476l-2.53-4.85a3,3,0,0,0,2.11-3,2.9,2.9,0,0,0-1.08-2.33,3.38,3.38,0,0,0-2.23-.72H431.9V476h1.66v-4.67h2.11l2.25,4.67Zm-6.33-6.13v-3.32h2.59a1.92,1.92,0,0,1,1.21.34,1.45,1.45,0,0,1,.55,1.24,1.68,1.68,0,0,1-.46,1.2,1.83,1.83,0,0,1-1.39.54Z" transform="translate(-265.06 -119.88)"/><rect class="cls-1" x="177.73" y="345.23" width="1.66" height="10.92"/><polygon class="cls-1" points="189.72 345.23 182.08 345.23 182.08 346.7 185.07 346.7 185.07 356.15 186.73 356.15 186.73 346.7 189.72 346.7 189.72 345.23"/><polygon class="cls-1" points="195.1 350.08 192.79 345.23 191.03 345.23 194.32 351.66 194.32 356.15 195.88 356.15 195.88 351.66 199.17 345.23 197.42 345.23 195.1 350.08"/><path class="cls-1" d="M343.74,481.9a2,2,0,0,1,.69-.56,2.34,2.34,0,0,1,1-.23,2.14,2.14,0,0,1,1.35.46,2.38,2.38,0,0,1,.73,1.12h1.75a4.12,4.12,0,0,0-1.25-2.3,3.94,3.94,0,0,0-6,1,2.87,2.87,0,0,0-.37,1,19.17,19.17,0,0,0-.11,2.54,19.38,19.38,0,0,0,.11,2.54,3.23,3.23,0,0,0,.15.58c.07.15.14.31.22.47a3.64,3.64,0,0,0,1.27,1.33,3.82,3.82,0,0,0,2.15.63,3.87,3.87,0,0,0,2.46-.81,4,4,0,0,0,1.37-2.33h-1.75a2.22,2.22,0,0,1-2.08,1.49,1.88,1.88,0,0,1-1-.25,1.81,1.81,0,0,1-.69-.55,1.76,1.76,0,0,1-.43-.92,12.69,12.69,0,0,1-.12-2.18,13,13,0,0,1,.12-2.19A1.8,1.8,0,0,1,343.74,481.9Z" transform="translate(-265.06 -119.88)"/><path class="cls-1" d="M358.91,481.42a3.62,3.62,0,0,0-1.25-1.35,3.95,3.95,0,0,0-5.59,1.35,3.07,3.07,0,0,0-.37,1,19.17,19.17,0,0,0-.11,2.54,19.38,19.38,0,0,0,.11,2.54,3.23,3.23,0,0,0,.15.58c.07.15.14.31.22.47a3.64,3.64,0,0,0,1.27,1.33,4,4,0,0,0,4.32,0,3.57,3.57,0,0,0,1.25-1.33,2.59,2.59,0,0,0,.38-1,22.15,22.15,0,0,0,.1-2.54,21.89,21.89,0,0,0-.1-2.54A2.54,2.54,0,0,0,358.91,481.42Zm-1.29,5.76a1.93,1.93,0,0,1-.44.92,1.87,1.87,0,0,1-.66.55,2,2,0,0,1-1,.25,1.88,1.88,0,0,1-1-.25,1.81,1.81,0,0,1-.69-.55,1.84,1.84,0,0,1-.43-.92,12.69,12.69,0,0,1-.12-2.18,13,13,0,0,1,.12-2.19,1.88,1.88,0,0,1,.43-.91,2,2,0,0,1,.69-.56,2.34,2.34,0,0,1,1-.23,2.48,2.48,0,0,1,1,.23,2.14,2.14,0,0,1,.66.56,2,2,0,0,1,.44.91,14.61,14.61,0,0,1,.11,2.19A14.26,14.26,0,0,1,357.62,487.18Z" transform="translate(-265.06 -119.88)"/><polygon class="cls-1" points="102.48 366.78 99.35 359.67 97.79 359.67 97.79 370.58 99.45 370.58 99.45 363.78 99.48 363.78 101.76 369.02 103.14 369.02 105.42 363.78 105.46 363.78 105.46 370.58 107.12 370.58 107.12 359.67 105.55 359.67 102.48 366.78"/><path class="cls-1" d="M382.42,480.31a3.43,3.43,0,0,0-1.21-.65,6.39,6.39,0,0,0-1.25-.12H376v10.92h1.65V486.2h2.52a3.22,3.22,0,0,0,2.56-1.08,3.3,3.3,0,0,0,.85-2.21,3.44,3.44,0,0,0-.33-1.55A2.64,2.64,0,0,0,382.42,480.31Zm-.92,3.76a1.75,1.75,0,0,1-1.39.57h-2.45v-3.53h2.39a2.06,2.06,0,0,1,1.19.31,1.39,1.39,0,0,1,.52.53,2.1,2.1,0,0,1,.18.92A1.87,1.87,0,0,1,381.5,484.07Z" transform="translate(-265.06 -119.88)"/><polygon class="cls-1" points="121.58 370.58 128.55 370.58 128.55 369.02 123.23 369.02 123.23 365.81 127.77 365.81 127.77 364.35 123.23 364.35 123.23 361.23 128.55 361.23 128.55 359.67 121.58 359.67 121.58 370.58"/><polygon class="cls-1" points="130.5 361.14 133.49 361.14 133.49 370.58 135.15 370.58 135.15 361.14 138.14 361.14 138.14 359.67 130.5 359.67 130.5 361.14"/><rect class="cls-1" x="140.84" y="359.67" width="1.66" height="10.92"/><polygon class="cls-1" points="145.19 361.14 148.18 361.14 148.18 370.58 149.84 370.58 149.84 361.14 152.83 361.14 152.83 359.67 145.19 359.67 145.19 361.14"/><rect class="cls-1" x="155.53" y="359.67" width="1.66" height="10.92"/><path class="cls-1" d="M433,481.42a3.67,3.67,0,0,0-1.24-1.35,3.76,3.76,0,0,0-2.18-.61,3.69,3.69,0,0,0-2.15.61,3.77,3.77,0,0,0-1.27,1.35,3.07,3.07,0,0,0-.37,1,19.17,19.17,0,0,0-.11,2.54,19.38,19.38,0,0,0,.11,2.54,3.23,3.23,0,0,0,.15.58c.07.15.14.31.22.47a3.72,3.72,0,0,0,1.27,1.33,3.85,3.85,0,0,0,2.15.63,3.92,3.92,0,0,0,2.18-.63,3.62,3.62,0,0,0,1.24-1.33,2.59,2.59,0,0,0,.38-1,20,20,0,0,0,.1-2.54,19.77,19.77,0,0,0-.1-2.54A2.54,2.54,0,0,0,433,481.42Zm-1.29,5.76a1.93,1.93,0,0,1-.44.92,1.87,1.87,0,0,1-.66.55,2,2,0,0,1-1,.25,1.88,1.88,0,0,1-1-.25,2,2,0,0,1-.69-.55,1.84,1.84,0,0,1-.43-.92,12.69,12.69,0,0,1-.12-2.18,13,13,0,0,1,.12-2.19,1.88,1.88,0,0,1,.43-.91,2.26,2.26,0,0,1,.69-.56,2.34,2.34,0,0,1,1-.23,2.48,2.48,0,0,1,1,.23,2.14,2.14,0,0,1,.66.56,2,2,0,0,1,.44.91,14.61,14.61,0,0,1,.11,2.19A14.26,14.26,0,0,1,431.73,487.18Z" transform="translate(-265.06 -119.88)"/><polygon class="cls-1" points="178.44 367.42 178.41 367.42 173.46 359.67 171.91 359.67 171.91 370.58 173.56 370.58 173.56 362.83 173.59 362.83 178.53 370.58 180.09 370.58 180.09 359.67 178.44 359.67 178.44 367.42"/><polygon class="cls-1" points="188.25 361.16 190.99 361.16 190.99 369.06 188.25 369.06 188.25 370.58 195.46 370.58 195.46 369.06 192.72 369.06 192.72 361.16 195.46 361.16 195.46 359.64 188.25 359.64 188.25 361.16"/><path class="cls-1" d="M404,314.79H366.78c.24,0-.13,3.33-.14,3.59a22.15,22.15,0,0,1-.88,4.8,36.88,36.88,0,0,1-8,14.46c-2.91,3.37-6.33,5.84-9.6,8.81a3,3,0,0,0-.91,1.16c-.38,1.1.78,1.84,1.7,2a12.68,12.68,0,0,0,2.39.05H452.35a12.69,12.69,0,0,0,2.39-.05c.92-.17,2.08-.91,1.69-2a2.93,2.93,0,0,0-.91-1.16c-3.27-3-6.68-5.44-9.6-8.81a37,37,0,0,1-8-14.46,21.56,21.56,0,0,1-.88-4.8c0-.26-.38-3.59-.14-3.59Z" transform="translate(-265.06 -119.88)"/><path class="cls-1" d="M440,354.32H348.41c-2.3,0-5.35,2.71-6.05,4.95a.5.5,0,0,0,0,.13c-.25,1,1.11,1.79,1.94,1.79H459.39c.82,0,2.19-.8,1.94-1.79,0,0,0-.09,0-.13-.71-2.24-3.76-4.95-6.06-4.95Z" transform="translate(-265.06 -119.88)"/><path class="cls-1" d="M456.87,365.85c-2.14,0-4.28,0-6.41,0H353.19c-2.14,0-4.28,0-6.42,0-1.82,0-3.73-.22-5.42.64-2.28,1.15-8.87,6-7.82,9.16a2.92,2.92,0,0,0,2.77,1.83h131a2.94,2.94,0,0,0,2.78-1.83c1-3.13-5.55-8-7.83-9.16C460.6,365.63,458.7,365.82,456.87,365.85Z" transform="translate(-265.06 -119.88)"/><path class="cls-1" d="M325.79,156.65a15.51,15.51,0,0,1,17.08-5.32,21,21,0,0,1,10.19,6.82l-2.38,4.78-2.13,4.26-1.8,3.57c-.47.91-.93,1.82-1.39,2.73-.3.58-.6,1.16-.89,1.74s-.74,1.23-1.12,1.84-.7,1.11-1,1.67l-.36.62h11.85l9.68-9.68h33.05a32.42,32.42,0,0,1,24.34-5.83l-8.36-8.09,13.75.54-18.63-19.09,32.21-17.33H357.47a8.51,8.51,0,0,0-6.2,2.71l-6.13,6.47h-6.77s-20.3-1-22.87,8.15,8.05,25.14,8.05,25.14A9.81,9.81,0,0,1,325.79,156.65Zm38.88-27.52h.09l11.75-.13s-4.95,1.53-8.52,2.89-7.4,3-8.86,3.64l-2.64-3.61-4.68-2.65Z" transform="translate(-265.06 -119.88)"/><path class="cls-1" d="M393.26,219.91A32.66,32.66,0,0,1,392,173.68H365.15l-9.68,9.68h-15.7c-.12.22-.24.44-.35.67-.6,1.16-1.17,2.34-1.71,3.53-.62,1.34-1.21,2.7-1.77,4.07-.62,1.52-1.21,3-1.75,4.58-.39,1.1-.77,2.2-1.12,3.31a93.48,93.48,0,0,0-4.51,27.15,82.82,82.82,0,0,0,6.36,32.89,88.84,88.84,0,0,0,4.8,9.74c2.46,4.33,5.19,8.51,7.67,12.84,2.29,4,4.66,7.95,7.15,11.83a104.6,104.6,0,0,0,11.77,15.88h70.26V291.32l-42.22-44.81-1.09-1.16V219.91Z" transform="translate(-265.06 -119.88)"/><path class="cls-1" d="M415.74,167.43a28.71,28.71,0,0,0-18.48,50.69v25.65l10.23,10.86V214.9a20.55,20.55,0,0,1-12.23-18.75c0-.51,0-1,.07-1.5a5.85,5.85,0,1,1,8.66-6.91h10.55a5.83,5.83,0,0,1,11,0h4.62l20.86,22-2.07-13.64s-8.51-14.72-8.92-15.36h0A28.69,28.69,0,0,0,415.74,167.43Z" transform="translate(-265.06 -119.88)"/><path class="cls-1" d="M421.87,189.74a1.85,1.85,0,1,0-1.84,1.85A1.84,1.84,0,0,0,421.87,189.74Z" transform="translate(-265.06 -119.88)"/><polygon class="cls-1" points="173.2 96.66 189.57 113.97 186.98 96.84 173.2 82.28 173.2 96.66"/><path class="cls-1" d="M400.35,189.74a1.85,1.85,0,1,0-1.85,1.85A1.85,1.85,0,0,0,400.35,189.74Z" transform="translate(-265.06 -119.88)"/><path class="cls-1" d="M428.64,255.89a1.85,1.85,0,1,0,1.85-1.84A1.85,1.85,0,0,0,428.64,255.89Z" transform="translate(-265.06 -119.88)"/><path class="cls-1" d="M434.26,197.93l-5.85-6.19h-2.89a5.84,5.84,0,0,1-11,0H404a5.84,5.84,0,0,1-4.71,3.79c0,.21,0,.41,0,.62a16.51,16.51,0,0,0,10.91,15.51l1.32.48v46.73l55.92,59.36L463.74,294l-30.93-32.69a5.86,5.86,0,1,1,2.9-2.75l27,28.51-3-19.65-26.9-28.44a5.86,5.86,0,1,1,2.9-2.75l23,24.26-3-19.66-21.42-22.65Z" transform="translate(-265.06 -119.88)"/><path class="cls-1" d="M428.64,233.57a1.85,1.85,0,1,0,1.85-1.85A1.84,1.84,0,0,0,428.64,233.57Z" transform="translate(-265.06 -119.88)"/></svg>