<svg 
 xmlns="http://www.w3.org/2000/svg"
 xmlns:xlink="http://www.w3.org/1999/xlink"
 width="415px" height="508px">
<path fill-rule="evenodd"  fill="rgb(2, 0, 0)"
 d="M114.089,8.402 L109.140,5.048 L50.997,5.048 L50.997,52.505 L132.097,52.505 L150.837,33.308 L114.089,8.402 Z"/>
<path fill-rule="evenodd"  fill="rgb(2, 0, 0)"
 d="M279.748,5.048 L282.227,7.663 L290.192,7.663 C290.546,7.652 291.298,7.632 292.365,7.632 C304.179,7.633 332.263,9.780 337.858,29.675 C339.813,36.644 339.037,44.760 337.164,52.505 L414.465,52.505 L414.465,5.048 L279.748,5.048 Z"/>
<path fill-rule="evenodd"  fill="rgb(2, 0, 0)"
 d="M308.556,415.203 L309.024,415.472 L309.047,415.488 C319.164,421.185 325.426,431.954 325.426,443.728 L325.426,452.059 L363.600,452.059 L363.600,404.602 L296.208,404.602 C299.871,408.990 304.043,412.661 308.556,415.203 Z"/>
<path fill-rule="evenodd"  fill="rgb(2, 0, 0)"
 d="M57.926,404.602 L0.131,404.602 L0.131,452.059 L51.900,452.059 L53.109,442.537 L57.926,404.602 Z"/>
<path fill-rule="evenodd"  fill="rgb(2, 0, 0)"
 d="M105.222,404.602 L114.085,404.602 C120.614,396.772 125.476,386.612 127.528,376.187 L105.222,404.602 Z"/>
<path fill-rule="evenodd"  fill="rgb(2, 0, 0)"
 d="M101.263,415.476 L101.324,415.435 L101.707,415.219 C106.231,412.669 110.418,408.998 114.085,404.602 L105.222,404.602 L69.923,449.565 L67.965,452.059 L84.866,452.059 L84.866,443.728 C84.866,431.946 91.135,421.171 101.263,415.476 Z"/>
<path fill-rule="evenodd"  fill="rgb(2, 0, 0)"
 d="M138.678,83.393 C146.839,79.872 155.762,77.991 164.997,77.991 C179.576,77.991 193.071,82.701 204.048,90.677 L257.598,90.677 L275.052,108.131 L293.798,108.131 C286.526,100.316 271.624,91.070 266.694,79.445 C264.201,73.547 266.140,66.782 271.358,63.065 C274.221,61.034 277.915,58.979 282.428,57.594 C293.602,54.154 305.977,57.559 313.214,67.186 C315.558,70.303 317.255,73.812 317.255,77.460 C317.255,77.460 333.577,49.098 328.936,32.556 C324.284,16.014 290.543,17.446 290.543,17.446 L278.342,17.446 L267.295,5.787 C264.328,2.659 260.311,0.904 256.121,0.904 L119.574,0.904 L165.678,32.152 L132.087,66.563 L156.882,65.582 L138.678,83.393 ZM242.984,17.573 L243.042,17.573 C243.053,17.573 243.053,17.573 243.053,17.573 L243.111,17.573 C243.111,17.573 243.111,17.573 243.123,17.573 L243.134,17.573 C243.527,17.584 244.750,17.596 248.167,17.630 C251.584,17.676 257.182,17.734 266.325,17.838 L264.905,18.641 C260.279,21.254 256.262,24.821 253.119,29.105 C250.487,27.916 243.515,24.949 237.155,22.548 C230.714,20.101 221.779,17.342 221.779,17.342 C238.379,17.526 242.234,17.573 242.984,17.573 Z"/>
<path fill-rule="evenodd"  fill="rgb(2, 0, 0)"
 d="M298.312,117.504 L271.081,117.504 L253.489,99.912 L214.322,99.912 C225.023,111.732 231.556,127.396 231.556,144.550 C231.556,162.777 224.146,180.034 211.078,192.570 L211.078,274.506 L208.966,277.045 L142.845,356.429 L272.616,356.429 C272.478,273.017 310.588,250.769 311.252,181.328 C311.609,144.047 303.160,127.385 299.339,119.536 C298.935,118.704 298.589,118.035 298.312,117.504 Z"/>
<path fill-rule="evenodd"  fill="rgb(2, 0, 0)"
 d="M320.440,485.168 L90.212,485.168 C77.903,485.168 67.925,495.388 67.925,507.995 L342.727,507.995 C342.727,495.388 332.749,485.168 320.440,485.168 Z"/>
<path fill-rule="evenodd"  fill="rgb(2, 0, 0)"
 d="M304.254,423.868 C304.209,423.842 304.169,423.809 304.123,423.784 C285.472,413.274 272.400,388.652 272.400,365.803 L138.252,365.803 C138.252,388.652 125.180,413.274 106.528,423.784 C106.483,423.809 106.443,423.842 106.398,423.868 C99.326,427.694 94.500,435.294 94.500,444.056 L316.152,444.056 C316.152,435.294 311.326,427.694 304.254,423.868 Z"/>
<path fill-rule="evenodd"  fill="rgb(2, 0, 0)"
 d="M307.153,453.199 L103.499,453.199 C91.190,453.199 81.213,463.419 81.213,476.026 L329.439,476.026 C329.439,463.419 319.461,453.199 307.153,453.199 Z"/>
<path fill-rule="evenodd"  fill="rgb(2, 0, 0)"
 d="M119.401,192.167 L119.401,166.413 L93.105,204.253 L93.105,204.264 L89.642,231.553 L119.401,192.167 Z"/>
<path fill-rule="evenodd"  fill="rgb(2, 0, 0)"
 d="M139.278,346.467 L172.927,306.066 L172.927,176.144 L175.952,175.059 C188.776,170.454 197.399,158.194 197.399,144.550 L197.399,144.389 C192.852,143.650 189.100,140.510 187.484,136.308 L168.391,136.308 C166.556,141.133 161.880,144.561 156.420,144.561 C150.960,144.561 146.285,141.133 144.450,136.308 L140.317,136.308 L136.093,142.391 L128.520,153.288 L128.520,195.226 L87.333,249.733 L80.834,300.929 L124.618,243.396 C123.383,241.434 122.679,239.114 122.679,236.632 C122.679,229.567 128.428,223.819 135.492,223.819 C135.746,223.819 136.000,223.830 136.254,223.842 C136.577,223.853 136.877,223.888 137.189,223.934 C137.489,223.969 137.778,224.026 138.066,224.084 C138.251,224.119 138.436,224.153 138.609,224.200 C138.909,224.280 139.209,224.361 139.509,224.465 C139.694,224.523 139.890,224.592 140.064,224.661 C140.606,224.869 141.137,225.111 141.645,225.389 C141.806,225.481 141.979,225.573 142.130,225.677 C142.488,225.885 142.822,226.116 143.157,226.370 C143.319,226.497 143.480,226.624 143.642,226.750 C143.803,226.878 143.953,227.016 144.103,227.155 C144.265,227.293 144.404,227.432 144.554,227.582 C144.704,227.720 144.842,227.870 144.981,228.020 C145.027,228.067 145.062,228.113 145.108,228.159 C145.339,228.425 145.558,228.690 145.766,228.967 C146.043,229.348 146.308,229.740 146.551,230.144 C146.620,230.271 146.690,230.398 146.759,230.525 C146.862,230.710 146.966,230.895 147.047,231.079 C147.139,231.264 147.220,231.460 147.301,231.645 C147.382,231.841 147.463,232.037 147.532,232.234 C147.601,232.418 147.671,232.603 147.728,232.788 C147.740,232.811 147.740,232.845 147.751,232.869 C147.797,233.019 147.844,233.168 147.878,233.319 C147.947,233.561 148.005,233.804 148.051,234.057 C148.098,234.231 148.121,234.416 148.155,234.600 C148.155,234.623 148.167,234.658 148.167,234.681 C148.213,234.981 148.248,235.293 148.271,235.604 C148.306,235.939 148.317,236.286 148.317,236.632 C148.317,237.082 148.294,237.532 148.248,237.971 C148.225,238.178 148.202,238.375 148.167,238.583 C148.132,238.790 148.098,238.998 148.051,239.206 C147.959,239.691 147.832,240.164 147.682,240.626 C147.567,240.960 147.439,241.295 147.301,241.619 C147.220,241.803 147.139,241.999 147.047,242.196 C146.955,242.381 146.862,242.554 146.759,242.738 C146.597,243.050 146.412,243.350 146.228,243.638 C146.054,243.893 145.870,244.158 145.673,244.401 C145.581,244.527 145.489,244.643 145.396,244.758 C145.396,244.770 145.396,244.770 145.385,244.770 C145.212,244.989 145.027,245.197 144.831,245.393 C144.611,245.635 144.381,245.866 144.127,246.086 C144.103,246.121 144.069,246.144 144.046,246.166 C143.780,246.409 143.492,246.640 143.192,246.871 C143.180,246.882 143.168,246.894 143.157,246.894 C142.995,247.021 142.822,247.136 142.661,247.252 C142.488,247.367 142.314,247.483 142.130,247.586 C141.957,247.690 141.783,247.794 141.599,247.898 C141.414,247.990 141.230,248.094 141.045,248.175 C140.791,248.302 140.537,248.418 140.271,248.522 C140.098,248.591 139.925,248.660 139.740,248.718 C139.602,248.775 139.452,248.822 139.301,248.868 C139.094,248.937 138.898,248.994 138.690,249.041 C138.309,249.133 137.916,249.225 137.524,249.283 C137.501,249.283 137.466,249.295 137.443,249.295 C137.143,249.341 136.831,249.375 136.519,249.399 C136.358,249.422 136.185,249.433 136.012,249.433 C135.838,249.445 135.665,249.445 135.492,249.445 C134.234,249.445 133.022,249.260 131.879,248.925 L78.537,319.005 L78.537,319.017 L72.003,370.523 L124.561,302.625 C123.360,300.686 122.679,298.400 122.679,295.953 C122.679,288.889 128.428,283.140 135.492,283.140 C135.746,283.140 136.000,283.152 136.254,283.163 C136.635,283.186 137.004,283.221 137.374,283.278 C137.582,283.313 137.778,283.348 137.985,283.394 C138.170,283.429 138.355,283.475 138.528,283.510 C138.701,283.544 138.875,283.590 139.048,283.648 C139.221,283.694 139.394,283.740 139.555,283.809 C139.832,283.902 140.110,284.006 140.375,284.110 C140.606,284.202 140.825,284.306 141.045,284.410 C141.090,284.433 141.125,284.456 141.160,284.468 C141.426,284.594 141.680,284.733 141.922,284.883 C142.176,285.022 142.418,285.172 142.661,285.333 C142.822,285.449 142.995,285.564 143.157,285.692 C143.319,285.807 143.480,285.934 143.642,286.072 C143.769,286.176 143.896,286.280 144.011,286.384 C144.981,287.250 145.823,288.254 146.493,289.362 C146.690,289.697 146.885,290.043 147.047,290.401 C147.070,290.435 147.082,290.482 147.105,290.516 C147.174,290.666 147.243,290.816 147.301,290.978 C147.382,291.163 147.463,291.359 147.532,291.555 C147.613,291.752 147.682,291.948 147.740,292.144 C147.809,292.363 147.866,292.594 147.925,292.814 C147.970,292.998 148.017,293.183 148.051,293.380 C148.098,293.587 148.132,293.795 148.167,294.002 C148.202,294.222 148.225,294.430 148.248,294.649 C148.271,294.811 148.282,294.972 148.294,295.134 L148.294,295.180 C148.306,295.433 148.317,295.688 148.317,295.953 C148.317,296.242 148.306,296.530 148.282,296.807 C148.282,296.958 148.271,297.108 148.248,297.258 C148.225,297.511 148.190,297.765 148.144,298.008 C148.121,298.181 148.086,298.354 148.051,298.528 C148.028,298.677 147.994,298.816 147.959,298.955 C147.936,299.059 147.913,299.162 147.878,299.255 C147.820,299.485 147.751,299.717 147.682,299.936 C147.636,300.075 147.590,300.213 147.532,300.351 C147.463,300.559 147.382,300.755 147.301,300.952 C147.220,301.136 147.139,301.321 147.047,301.506 C146.955,301.690 146.862,301.875 146.759,302.060 C146.666,302.244 146.562,302.418 146.458,302.590 C146.320,302.822 146.170,303.052 146.008,303.272 C145.835,303.526 145.650,303.768 145.465,303.999 C145.246,304.276 145.015,304.542 144.762,304.796 C144.554,305.026 144.334,305.234 144.103,305.442 C144.057,305.488 144.022,305.523 143.976,305.557 C143.953,305.580 143.930,305.592 143.907,305.615 C143.676,305.823 143.434,306.019 143.180,306.204 C143.168,306.216 143.168,306.216 143.157,306.227 C142.903,306.412 142.649,306.585 142.384,306.758 C142.014,306.989 141.645,307.208 141.252,307.405 C140.998,307.531 140.744,307.647 140.479,307.762 C140.422,307.786 140.363,307.808 140.306,307.831 C140.294,307.843 140.271,307.843 140.259,307.855 C139.959,307.981 139.636,308.097 139.325,308.189 C139.325,308.189 139.313,308.189 139.301,308.201 C138.978,308.293 138.655,308.386 138.320,308.455 C138.090,308.512 137.858,308.559 137.628,308.593 C137.466,308.628 137.293,308.651 137.120,308.675 C136.820,308.708 136.519,308.744 136.220,308.755 C135.977,308.767 135.735,308.778 135.492,308.778 C134.199,308.778 132.941,308.582 131.764,308.224 L69.741,388.347 L62.668,444.056 L139.278,346.467 Z"/>
<path fill-rule="evenodd"  fill="rgb(2, 0, 0)"
 d="M182.046,182.424 L182.046,295.111 L201.959,271.204 L201.959,188.507 C214.472,177.968 222.437,162.200 222.437,144.550 C222.437,141.756 222.241,138.998 221.848,136.308 L211.448,136.308 C210.467,138.848 208.712,141.006 206.461,142.472 C206.507,143.165 206.519,143.858 206.519,144.550 C206.519,160.942 196.810,175.775 182.046,182.424 Z"/>
<path fill-rule="evenodd"  fill="rgb(2, 0, 0)"
 d="M156.420,128.055 C154.377,128.055 152.726,129.705 152.726,131.748 C152.726,133.792 154.377,135.442 156.420,135.442 C158.463,135.442 160.115,133.792 160.115,131.748 C160.115,129.705 158.463,128.055 156.420,128.055 Z"/>
<path fill-rule="evenodd"  fill="rgb(2, 0, 0)"
 d="M135.550,127.189 L144.450,127.189 C146.285,122.364 150.960,118.936 156.420,118.936 C161.880,118.936 166.556,122.364 168.391,127.189 L187.484,127.189 C189.330,122.364 194.006,118.936 199.466,118.936 C204.926,118.936 209.601,122.364 211.448,127.189 L219.759,127.189 C219.574,126.588 219.378,125.1000 219.159,125.411 C219.055,125.111 218.951,124.811 218.836,124.522 C218.674,124.084 218.512,123.645 218.328,123.206 C218.154,122.779 217.970,122.340 217.785,121.913 C217.612,121.486 217.427,121.059 217.231,120.632 C217.208,120.586 217.185,120.540 217.162,120.482 C217.093,120.320 217.011,120.171 216.931,120.009 C216.711,119.524 216.481,119.039 216.238,118.566 C216.227,118.566 216.227,118.554 216.227,118.554 C216.192,118.497 216.169,118.439 216.134,118.381 C215.800,117.735 215.453,117.088 215.095,116.453 C214.714,115.784 214.322,115.114 213.918,114.457 C213.710,114.110 213.491,113.775 213.283,113.440 C213.087,113.129 212.891,112.817 212.660,112.506 C212.440,112.194 212.233,111.871 212.013,111.559 C211.794,111.236 211.563,110.924 211.332,110.612 C211.102,110.301 210.871,109.989 210.640,109.689 C210.409,109.378 210.167,109.077 209.924,108.777 C209.462,108.200 208.989,107.623 208.504,107.057 C208.054,106.514 207.569,105.983 207.073,105.464 C207.061,105.441 207.050,105.430 207.027,105.406 C206.946,105.314 206.865,105.233 206.784,105.152 C206.299,104.633 205.803,104.125 205.295,103.629 C204.822,103.155 204.349,102.705 203.852,102.243 C203.841,102.232 203.817,102.221 203.806,102.209 C203.483,101.909 203.148,101.608 202.813,101.332 C202.675,101.205 202.536,101.089 202.398,100.974 C202.098,100.696 201.786,100.431 201.462,100.177 C201.163,99.923 200.862,99.681 200.562,99.450 C200.216,99.173 199.870,98.907 199.523,98.653 C199.142,98.353 198.739,98.065 198.346,97.776 C198.300,97.742 198.265,97.719 198.219,97.684 C198.161,97.638 198.092,97.603 198.035,97.557 C197.526,97.199 197.018,96.853 196.499,96.506 C195.876,96.103 195.241,95.698 194.606,95.318 C193.959,94.937 193.313,94.555 192.655,94.198 C192.044,93.863 191.431,93.540 190.808,93.228 C190.589,93.113 190.381,93.008 190.162,92.905 C189.723,92.697 189.296,92.478 188.846,92.282 C188.188,91.981 187.518,91.693 186.849,91.416 C186.179,91.139 185.510,90.885 184.840,90.631 C184.748,90.596 184.644,90.562 184.529,90.515 C184.494,90.504 184.459,90.493 184.425,90.481 C183.859,90.285 183.293,90.088 182.728,89.904 C182.035,89.673 181.319,89.465 180.615,89.269 C180.327,89.176 180.027,89.096 179.738,89.026 C179.323,88.911 178.907,88.807 178.491,88.703 C178.480,88.703 178.457,88.703 178.434,88.692 C178.237,88.645 178.041,88.599 177.833,88.553 C177.349,88.437 176.864,88.334 176.379,88.242 C176.298,88.218 176.217,88.207 176.137,88.195 C175.675,88.103 175.201,88.010 174.728,87.941 C174.636,87.918 174.532,87.895 174.439,87.884 C174.232,87.849 174.012,87.815 173.805,87.791 C173.239,87.699 172.673,87.618 172.108,87.548 C171.958,87.526 171.808,87.514 171.646,87.491 C171.023,87.422 170.400,87.353 169.765,87.306 C169.707,87.306 169.649,87.295 169.592,87.295 C168.864,87.237 168.125,87.191 167.386,87.156 L167.306,87.156 C166.544,87.122 165.770,87.110 164.997,87.110 C161.892,87.110 158.833,87.353 155.866,87.837 C139.313,90.481 125.126,100.224 116.480,113.822 L116.469,113.845 C115.764,114.953 104.925,133.676 101.970,138.744 C101.878,138.905 101.786,139.056 101.716,139.194 C101.635,139.332 101.566,139.459 101.509,139.563 C101.485,139.621 101.451,139.667 101.428,139.713 C101.405,139.760 101.381,139.806 101.358,139.841 C101.312,139.910 101.289,139.956 101.277,139.979 C101.266,139.990 101.266,140.002 101.266,140.002 L95.587,184.710 L135.550,127.189 Z"/>
<path fill-rule="evenodd"  fill="rgb(2, 0, 0)"
 d="M199.466,135.442 C201.509,135.442 203.159,133.792 203.159,131.748 C203.159,131.321 203.090,130.917 202.952,130.536 C202.455,129.082 201.082,128.055 199.466,128.055 C197.423,128.055 195.772,129.705 195.772,131.748 C195.772,132.222 195.864,132.684 196.026,133.099 C196.568,134.473 197.907,135.442 199.466,135.442 Z"/>
<path fill-rule="evenodd"  fill="rgb(2, 0, 0)"
 d="M131.995,235.431 C131.995,235.431 131.995,235.431 131.995,235.443 C131.971,235.524 131.937,235.604 131.925,235.697 C131.902,235.755 131.891,235.824 131.879,235.893 C131.845,236.008 131.833,236.136 131.821,236.251 C131.810,236.378 131.798,236.505 131.798,236.632 C131.798,238.675 133.460,240.326 135.492,240.326 C135.619,240.326 135.746,240.314 135.873,240.303 C136.000,240.291 136.116,240.280 136.231,240.245 C136.312,240.234 136.381,240.222 136.462,240.187 C136.566,240.164 136.670,240.130 136.774,240.095 C136.912,240.049 137.039,239.991 137.166,239.922 C137.304,239.852 137.431,239.772 137.559,239.691 C137.766,239.552 137.939,239.402 138.112,239.241 C138.147,239.194 138.182,239.160 138.216,239.125 C138.297,239.045 138.378,238.952 138.436,238.860 C138.505,238.779 138.563,238.698 138.609,238.617 C138.713,238.456 138.805,238.282 138.886,238.097 C138.932,238.017 138.967,237.925 139.002,237.832 C139.002,237.832 139.002,237.832 139.002,237.821 C139.024,237.740 139.059,237.659 139.071,237.567 C139.094,237.509 139.105,237.440 139.117,237.371 C139.151,237.255 139.163,237.128 139.175,237.013 C139.186,236.886 139.197,236.758 139.197,236.632 C139.197,236.286 139.151,235.950 139.059,235.639 C139.048,235.570 139.024,235.489 138.990,235.419 C138.839,234.981 138.621,234.600 138.332,234.265 C138.239,234.150 138.135,234.046 138.031,233.954 C137.870,233.792 137.697,233.654 137.501,233.538 C137.420,233.480 137.339,233.435 137.258,233.388 C137.143,233.319 137.028,233.261 136.901,233.215 C136.762,233.157 136.623,233.111 136.485,233.077 C136.393,233.042 136.289,233.019 136.173,233.007 C136.093,232.984 136.000,232.973 135.908,232.961 C135.769,232.949 135.630,232.938 135.492,232.938 C135.365,232.938 135.239,232.949 135.111,232.961 C134.984,232.973 134.869,232.984 134.753,233.019 C134.684,233.030 134.615,233.042 134.557,233.065 C134.442,233.088 134.326,233.123 134.222,233.168 C134.222,233.168 134.211,233.168 134.199,233.168 C134.073,233.227 133.945,233.272 133.830,233.342 C133.691,233.411 133.553,233.492 133.426,233.573 C133.230,233.700 133.045,233.861 132.884,234.023 C132.849,234.069 132.814,234.104 132.779,234.138 C132.699,234.219 132.630,234.312 132.560,234.404 C132.491,234.485 132.433,234.566 132.387,234.646 C132.283,234.808 132.191,234.981 132.110,235.166 C132.064,235.247 132.029,235.339 131.995,235.431 Z"/>
<path fill-rule="evenodd"  fill="rgb(2, 0, 0)"
 d="M132.572,293.691 C132.087,294.314 131.798,295.099 131.798,295.953 C131.798,297.118 132.371,298.115 133.212,298.794 C133.224,298.822 133.242,298.848 133.254,298.875 C133.293,298.882 133.332,298.896 133.371,298.902 C133.980,299.344 134.687,299.659 135.492,299.659 C136.116,299.659 136.704,299.509 137.223,299.220 C137.304,299.186 137.385,299.139 137.466,299.082 C137.524,299.047 137.593,299.001 137.651,298.955 C137.755,298.885 137.847,298.805 137.928,298.735 C138.112,298.585 138.274,298.400 138.424,298.216 C138.909,297.592 139.197,296.807 139.197,295.953 C139.197,293.910 137.535,292.260 135.492,292.260 C134.303,292.260 133.253,292.825 132.572,293.691 Z"/>
</svg>