<svg 
 xmlns="http://www.w3.org/2000/svg"
 xmlns:xlink="http://www.w3.org/1999/xlink"
 width="249px" height="73px">
<path fill-rule="evenodd"  fill="rgb(255, 255, 255)"
 d="M248.752,10.025 C247.936,9.448 247.671,8.815 247.764,8.229 C247.496,7.974 247.351,7.707 247.291,7.440 C247.256,7.291 247.254,7.140 247.278,6.993 C247.280,6.980 247.282,6.968 247.284,6.956 C247.309,6.826 247.364,6.698 247.429,6.574 C247.469,6.491 247.509,6.408 247.566,6.328 C247.579,6.310 247.592,6.293 247.604,6.276 C247.681,6.175 247.775,6.077 247.876,5.983 C247.901,5.959 247.923,5.935 247.951,5.911 C248.057,5.818 248.180,5.730 248.308,5.648 C248.332,5.633 248.351,5.616 248.375,5.601 C248.536,5.502 248.708,5.412 248.893,5.333 C248.691,5.157 248.508,4.969 248.310,4.791 L248.310,4.791 C247.892,4.416 247.469,4.044 247.080,3.650 C246.893,3.461 246.776,3.273 246.690,3.088 C246.659,3.021 246.644,2.955 246.626,2.890 C246.593,2.779 246.576,2.669 246.574,2.561 C246.576,2.480 246.580,2.399 246.596,2.321 C246.615,2.241 246.648,2.164 246.682,2.088 C246.721,2.001 246.752,1.912 246.809,1.831 C246.809,1.831 246.809,1.831 246.807,1.831 C246.912,1.682 247.032,1.539 247.190,1.411 C247.157,1.016 247.344,0.639 247.649,0.304 L244.483,0.304 L242.670,0.304 L239.675,0.304 L237.523,0.304 L237.189,0.304 L233.727,0.304 L15.135,0.304 L9.702,0.304 L7.135,0.304 C7.973,0.687 8.507,1.323 8.090,2.119 C7.578,3.095 7.051,4.052 6.508,5.006 C6.516,5.298 6.434,5.608 6.208,5.935 C6.137,6.040 6.058,6.142 5.986,6.246 C6.277,6.638 6.403,7.101 6.223,7.618 C6.005,8.247 5.733,8.856 5.470,9.468 C5.762,9.872 5.906,10.335 5.805,10.830 C5.699,11.369 5.572,11.907 5.460,12.444 C6.140,12.965 6.499,13.668 6.170,14.406 C5.937,15.011 5.663,15.606 5.360,16.195 C5.362,16.223 5.368,16.248 5.371,16.275 C6.061,16.386 6.658,16.779 6.676,17.571 C8.315,18.233 6.905,20.009 7.549,20.253 C7.549,20.437 5.141,21.164 5.607,21.304 C5.481,21.379 5.360,21.463 5.237,21.549 C5.236,21.576 5.233,21.603 5.231,21.630 C5.769,22.095 6.034,22.702 5.763,23.377 C5.626,23.676 5.522,23.979 5.401,24.280 C5.561,24.618 5.621,25.005 5.515,25.442 C5.239,26.586 4.923,27.723 4.623,28.863 C4.701,29.147 4.706,29.456 4.605,29.790 C4.455,30.225 4.338,30.664 4.206,31.100 C4.489,31.431 4.615,31.856 4.514,32.377 C4.473,32.581 4.423,32.783 4.380,32.986 C4.384,32.987 4.389,32.987 4.393,32.987 C4.385,32.998 4.380,33.008 4.373,33.018 C4.191,33.912 3.958,34.799 3.739,35.688 L3.739,35.688 C3.608,36.238 3.493,36.789 3.347,37.338 C3.351,37.432 3.364,37.522 3.353,37.624 C3.300,38.088 3.247,38.553 3.195,39.018 L3.196,39.018 C3.192,39.044 3.189,39.068 3.186,39.095 C3.305,39.331 3.362,39.589 3.329,39.872 C3.292,40.202 3.254,40.533 3.217,40.865 C3.339,41.119 3.384,41.414 3.329,41.746 C3.294,41.966 3.257,42.187 3.220,42.409 C3.300,42.610 3.359,42.823 3.329,43.058 L3.235,43.822 C3.325,44.044 3.370,44.285 3.329,44.556 C3.312,44.671 3.295,44.785 3.278,44.898 C3.960,44.938 4.610,44.895 4.850,45.264 C4.850,45.265 4.849,45.267 4.849,45.268 C4.916,45.288 4.957,45.294 4.996,45.296 C4.928,45.350 4.890,45.517 5.119,45.996 C2.990,47.521 4.530,48.125 6.028,47.868 C4.682,48.705 5.484,49.170 5.732,49.492 C5.484,49.466 5.386,50.819 4.680,50.976 C4.066,51.336 2.338,51.881 2.732,52.780 C2.625,52.758 2.538,52.765 2.444,52.765 C2.380,53.583 2.368,54.403 2.331,55.222 C3.565,56.275 3.263,56.806 3.205,56.838 C3.198,57.135 2.396,57.140 2.220,57.665 C2.218,57.783 2.206,57.899 2.204,58.017 C2.272,58.158 2.308,58.310 2.339,58.463 C2.850,58.444 2.845,58.844 2.322,59.257 C2.137,60.051 1.980,60.874 1.857,61.711 C1.853,61.711 1.851,61.710 1.848,61.710 C1.743,62.412 1.679,63.123 1.638,63.835 C1.634,63.904 1.620,63.972 1.616,64.041 C1.624,64.066 1.623,64.103 1.628,64.131 C1.617,64.383 1.605,64.635 1.604,64.886 C1.603,64.889 1.601,64.893 1.597,64.897 C1.596,64.975 1.597,65.054 1.597,65.133 C1.597,65.181 1.596,65.229 1.597,65.277 C1.597,65.330 1.596,65.381 1.597,65.431 C1.601,65.436 1.605,65.442 1.608,65.447 C1.621,65.907 1.650,66.365 1.702,66.819 C1.695,66.824 1.694,66.829 1.687,66.834 C1.755,67.445 1.876,68.040 2.024,68.628 C2.028,68.644 2.029,68.662 2.033,68.678 C2.035,68.678 2.036,68.678 2.037,68.678 C2.106,68.942 2.164,69.209 2.252,69.466 C2.605,70.512 1.910,71.321 0.870,71.770 C0.909,71.806 0.946,71.838 0.985,71.881 C0.903,71.974 0.878,72.051 0.832,72.136 L4.830,72.136 L9.700,72.136 L228.216,72.136 L235.254,72.136 L235.977,65.128 C236.476,65.694 236.021,65.911 236.825,66.365 C237.013,66.163 237.255,65.981 237.540,65.829 C237.519,65.051 237.993,64.431 238.743,64.019 L238.743,64.019 C238.760,64.010 238.774,63.997 238.791,63.987 C238.819,63.826 238.866,63.668 238.935,63.514 C238.830,63.306 238.778,63.101 238.759,62.901 L238.759,62.901 C238.707,62.369 238.931,61.868 239.366,61.459 C239.385,60.944 239.664,60.448 240.106,60.048 C240.173,59.726 240.341,59.432 240.573,59.163 C240.533,58.940 240.549,58.725 240.627,58.524 C240.555,58.432 240.465,58.353 240.394,58.261 C240.220,58.032 240.148,57.793 240.121,57.552 C240.025,56.715 240.722,55.879 241.761,55.521 C241.149,55.448 240.283,55.235 239.726,54.607 C240.391,53.307 239.884,53.828 240.977,52.059 C241.169,52.110 241.348,52.130 241.521,52.137 C241.433,50.866 242.573,49.609 244.545,49.498 C244.560,49.487 244.571,49.472 244.587,49.461 C244.617,49.404 244.648,49.348 244.683,49.295 C244.622,49.216 244.560,49.137 244.499,49.058 C243.896,48.390 243.805,47.728 244.041,47.143 C244.006,47.095 243.973,47.047 243.938,46.997 C243.368,46.295 243.308,45.597 243.579,44.990 C243.137,44.259 243.229,43.399 243.691,42.668 C243.693,42.668 243.693,42.668 243.693,42.668 C243.740,42.592 243.770,42.512 243.827,42.438 C243.731,42.281 243.685,42.123 243.652,41.965 C243.629,41.816 243.630,41.670 243.651,41.523 L243.651,41.523 C243.707,41.113 243.929,40.718 244.288,40.372 C243.968,39.729 244.019,39.066 244.393,38.485 C244.245,37.949 244.384,37.417 244.721,36.943 C244.490,36.724 244.288,36.491 244.041,36.279 C242.655,34.914 243.663,33.571 245.350,32.942 C245.291,32.864 245.238,32.784 245.178,32.707 C244.534,31.869 244.728,30.888 245.394,30.122 C245.141,29.172 245.696,28.224 246.675,27.628 C246.604,27.498 246.545,27.365 246.472,27.236 C246.382,27.062 246.331,26.894 246.301,26.727 C245.038,25.365 245.823,23.723 247.528,23.053 C247.575,22.573 247.841,22.138 248.244,21.776 C248.129,21.532 248.000,21.300 247.900,21.045 C247.705,20.563 247.766,20.088 247.986,19.653 C246.990,18.790 246.921,17.831 247.396,17.049 C247.005,16.398 247.040,15.750 247.374,15.197 C245.843,13.714 246.840,12.053 248.669,11.469 C248.479,10.991 248.541,10.502 248.796,10.057 C248.781,10.047 248.767,10.035 248.752,10.025 Z"/>
</svg>