<?xml version="1.0" encoding="utf-8"?>
<svg id="Layer_1" data-name="Layer 1" viewBox="63 -25 95 100" xmlns="http://www.w3.org/2000/svg" xmlns:xlink="http://www.w3.org/1999/xlink">
  <defs>
    <style>.cls-1{fill:url(#linear-gradient);}.cls-2{fill:url(#linear-gradient-2);}.cls-3{fill:url(#linear-gradient-3);}.cls-4{fill:url(#linear-gradient-4);}.cls-5{fill:url(#linear-gradient-5);}.cls-6{fill:url(#linear-gradient-6);}.cls-7{fill:url(#linear-gradient-7);}.cls-8{fill:url(#linear-gradient-8);}</style>
    <linearGradient id="linear-gradient" x1="34.14" y1="38.64" x2="169.84" y2="174.34" gradientUnits="userSpaceOnUse">
      <stop offset="0" stop-color="#050823"/>
      <stop offset="0.01" stop-color="#050927"/>
      <stop offset="0.02" stop-color="#070a33"/>
      <stop offset="0.03" stop-color="#090d48"/>
      <stop offset="0.04" stop-color="#0d1064"/>
      <stop offset="0.05" stop-color="#101480"/>
      <stop offset="0.09" stop-color="#131983"/>
      <stop offset="0.13" stop-color="#1d288a"/>
      <stop offset="0.18" stop-color="#2d4196"/>
      <stop offset="0.24" stop-color="#4363a8"/>
      <stop offset="0.29" stop-color="#608fbe"/>
      <stop offset="0.35" stop-color="#83c4d9"/>
      <stop offset="0.35" stop-color="#86c9db"/>
      <stop offset="0.37" stop-color="#8dccdc"/>
      <stop offset="0.41" stop-color="#a0d6de"/>
      <stop offset="0.44" stop-color="#bee6e1"/>
      <stop offset="0.45" stop-color="#c2e8e1"/>
      <stop offset="0.46" stop-color="#c7eae4"/>
      <stop offset="0.49" stop-color="#d7f0eb"/>
      <stop offset="0.51" stop-color="#f0f9f7"/>
      <stop offset="0.53" stop-color="#fffffe"/>
      <stop offset="0.53" stop-color="#d9e4e8"/>
      <stop offset="0.54" stop-color="#a3bdc8"/>
      <stop offset="0.55" stop-color="#779dae"/>
      <stop offset="0.56" stop-color="#54849a"/>
      <stop offset="0.56" stop-color="#3b728b"/>
      <stop offset="0.57" stop-color="#2c6782"/>
      <stop offset="0.58" stop-color="#27637f"/>
      <stop offset="0.59" stop-color="#36758b"/>
      <stop offset="0.62" stop-color="#5195a2"/>
      <stop offset="0.64" stop-color="#67afb4"/>
      <stop offset="0.67" stop-color="#76c1c1"/>
      <stop offset="0.7" stop-color="#7fccc9"/>
      <stop offset="0.74" stop-color="#82cfcb"/>
      <stop offset="0.83" stop-color="#85d0cc"/>
      <stop offset="0.89" stop-color="#8ed4cd"/>
      <stop offset="0.94" stop-color="#9dd9d0"/>
      <stop offset="0.99" stop-color="#b3e2d5"/>
      <stop offset="1" stop-color="#b9e4d6"/>
    </linearGradient>
    <linearGradient id="linear-gradient-4" x1="70.31" y1="159.03" x2="122.28" y2="211" xlink:href="#linear-gradient"/>
    <linearGradient id="linear-gradient-5" x1="68.93" y1="166.87" x2="123.67" y2="221.61" xlink:href="#linear-gradient"/>
    <linearGradient id="linear-gradient-6" x1="73.97" y1="151.81" x2="118.62" y2="196.46" xlink:href="#linear-gradient"/>
    <linearGradient id="linear-gradient-7" x1="73.58" y1="138.68" x2="119.02" y2="184.12" xlink:href="#linear-gradient"/>
  </defs>
  <path class="cls-1" d="M157.56,15.87c-1.84-6.51-16.25-5.79-16.25-5.79H136.5l-4.36-4.6a6.05,6.05,0,0,0-4.4-1.92H69.22L92.11,15.87,78.87,29.43l9.77-.38-6,5.74A23.22,23.22,0,0,1,100,38.93h23.47l6.88,6.88h8.42c0-.07-.09-.15-.14-.23s-.24-.42-.37-.63l-.48-.76-.2-.32c-.3-.48-.58-1-.83-1.46l-.4-.77c-.33-.64-.65-1.29-1-1.94l-1.28-2.53c-.51-1-1-2-1.52-3l-1.68-3.4a14.94,14.94,0,0,1,7.23-4.84,11,11,0,0,1,12.13,3.78,6.93,6.93,0,0,1,1.59,4S159.38,22.39,157.56,15.87ZM131.68,9.65l-3.22,2-1.88,2.57c-1-.47-3.78-1.64-6.29-2.59-2.21-.84-5.17-1.77-5.9-2a0,0,0,0,1,0-.06h17.26S131.71,9.63,131.68,9.65Zm13.39,50.48c-.25-.79-.51-1.57-.79-2.35-.39-1.09-.8-2.17-1.24-3.25s-.82-1.94-1.26-2.9-.95-2-1.46-3H129.16l-6.87-6.88H103.22a23.22,23.22,0,0,1-.9,32.85V92.69l-.77.82-30,31.83v13.17h49.89a69,69,0,0,0,7.72-10.28c1.91-2.95,3.76-5.94,5.5-9,1.82-3.22,3.85-6.32,5.68-9.54a62.33,62.33,0,0,0,3.4-6.91,58.71,58.71,0,0,0,4.52-23.36A66.17,66.17,0,0,0,145.07,60.13Zm-12.16,103c-6.91-3.8-11.76-12.71-11.76-21H71.44c0,8.26-4.84,17.17-11.75,21a4.17,4.17,0,0,0-2.21,3.64v.19h77.64v-.19A4.17,4.17,0,0,0,132.91,163.08Zm1.17,7.13H58.52a4.85,4.85,0,0,0-4.85,4.84v0h85.26v0A4.85,4.85,0,0,0,134.08,170.21Zm9.52,19.73H49a5.32,5.32,0,0,0-5.32,5.32H148.92A5.32,5.32,0,0,0,143.6,189.94Zm-6.32-11.56h-82a8.26,8.26,0,0,0-8.26,8.26h98.47A8.25,8.25,0,0,0,137.28,178.38ZM75.88,83.15a1.31,1.31,0,1,0,1.31,1.31A1.31,1.31,0,0,0,75.88,83.15Zm21.8-25.77a4.19,4.19,0,0,1-3-2.63H87.21a4.15,4.15,0,0,1-7.8,0h-2l-4.16,4.4V73.5L58,89.59l-2.11,14,16.3-17.23a4.09,4.09,0,0,1-.27-3.06,4.16,4.16,0,1,1,5,5.24,4.19,4.19,0,0,1-2.66-.23l-19.11,20.2-2.12,14,19.17-20.26A4.14,4.14,0,0,1,75,96.27a4.16,4.16,0,0,1,5,5,4.11,4.11,0,0,1-3.05,3.09,4.17,4.17,0,0,1-2.65-.22l-22,23.23L49.65,144.6l39.72-42.16V69.24l.94-.34a11.72,11.72,0,0,0,7.75-11C97.93,57.71,97.8,57.55,97.68,57.38ZM60.57,72.5,58.73,84.67l11.63-12.3V62.15ZM106.7,56.43a20.46,20.46,0,0,0-19-18.9c-.45,0-.9-.05-1.34-.05A20.35,20.35,0,0,0,69.13,47h0c-.29.45-6.33,10.9-6.33,10.9l-1.47,9.7L76.14,51.91h3.27a4.15,4.15,0,0,1,7.8,0H94.7a4.15,4.15,0,1,1,6.15,4.9c0,.36.05.71.05,1.07A14.58,14.58,0,0,1,92.21,71.2V99.42l7.27-7.71V73.49A20.34,20.34,0,0,0,106.7,56.43ZM75.88,99a1.31,1.31,0,1,0,1.31,1.31A1.31,1.31,0,0,0,75.88,99ZM98.6,52a1.32,1.32,0,1,0,1.31,1.31A1.31,1.31,0,0,0,98.6,52ZM83.31,52a1.32,1.32,0,1,0,1.31,1.31A1.31,1.31,0,0,0,83.31,52Z" style="fill-opacity: 0.5; opacity: 0.5;"/>
  <path class="cls-4" d="M146.14,187.14H46.46v-.6a8.88,8.88,0,0,1,8.86-8.86h82a8.88,8.88,0,0,1,8.86,8.86Zm-98.45-1.2h97.22a7.66,7.66,0,0,0-7.63-7.05h-82A7.66,7.66,0,0,0,47.69,185.94Z" style="fill-opacity: 0.5; opacity: 0.5;"/>
  <path class="cls-5" d="M149.52,195.77H43.08v-.6A5.93,5.93,0,0,1,49,189.25h94.6a5.93,5.93,0,0,1,5.92,5.92Zm-105.2-1.2h104a4.73,4.73,0,0,0-4.68-4.12H49A4.73,4.73,0,0,0,44.32,194.57Z" style="fill-opacity: 0.5;"/>
  <path class="cls-6" d="M138.93,175.57H53.07V175a5.46,5.46,0,0,1,5.45-5.46h75.56a5.46,5.46,0,0,1,5.45,5.45v.6Zm-84.62-1.2h84a4.25,4.25,0,0,0-4.2-3.66H58.52A4.27,4.27,0,0,0,54.31,174.37Z" style="fill-opacity: 0.5; opacity: 0.5;"/>
  <path class="cls-7" d="M135.72,167.42H56.88v-.79a4.8,4.8,0,0,1,2.52-4.17h0C66,158.81,70.84,150.21,70.84,142v-.6h50.91v.6c0,8.21,4.82,16.8,11.45,20.45a4.8,4.8,0,0,1,2.52,4.17Zm-77.61-1.2h76.38a3.62,3.62,0,0,0-1.87-2.71c-6.83-3.75-11.83-12.47-12.06-20.9H72c-.23,8.43-5.23,17.15-12.06,20.9h0A3.6,3.6,0,0,0,58.11,166.22Z" style="fill-opacity: 0.5; opacity: 0.5;"/>
</svg>