<?xml version="1.0" encoding="UTF-8"?><svg id="Layer_1" xmlns="http://www.w3.org/2000/svg" viewBox="0 0 150 150"><defs><style>.cls-1,.cls-2{fill:none;}.cls-3{fill:#f2f2f2;}.cls-4{fill:#fb8906;}.cls-5{fill:#f4deb8;}.cls-6{fill:#ffa757;}.cls-7{fill:#ff9327;}.cls-8{fill:#ce4c37;}.cls-9{fill:#e08926;}.cls-10{fill:#1a3248;}.cls-11{fill:#8a5ba3;}.cls-12{fill:#7a4d92;}.cls-13{fill:#5090ac;}.cls-2{stroke:#fff;stroke-miterlimit:10;stroke-width:.7px;}.cls-14{opacity:.22;}</style></defs><circle class="cls-10" cx="75" cy="74.88" r="73.69"/><path class="cls-10" d="M134.86,74.42c0,2.6-.17,5.16-.49,7.67-.38,2.94-.97,5.8-1.76,8.59-.57,2-1.24,3.96-2.01,5.87-1.35,3.36-3,6.56-4.92,9.58-.29,.45-.58,.91-.88,1.35-2.65,3.94-5.76,7.54-9.26,10.73-.44,.4-.88,.79-1.32,1.17-3.99,3.44-8.45,6.35-13.25,8.63-7.69,3.65-16.29,5.69-25.37,5.69-.85,0-1.71-.02-2.56-.06-9.36-.4-18.17-2.97-25.92-7.22-1.85-1.02-3.65-2.13-5.37-3.33-2.4-1.67-4.67-3.51-6.79-5.51-1.23-1.15-2.4-2.36-3.52-3.62-1.55-1.73-3.01-3.56-4.35-5.46-.73-1.04-1.43-2.1-2.1-3.19-.58-.95-1.14-1.93-1.67-2.92-.77-1.42-1.47-2.88-2.12-4.37-2.5-5.76-4.12-11.99-4.67-18.53-.14-1.67-.22-3.36-.22-5.07,0-.8,.02-1.6,.05-2.39,.06-1.48,.17-2.94,.34-4.39,.14-1.2,.31-2.38,.51-3.56,1.88-10.7,6.64-20.42,13.44-28.32,.34-.4,.69-.79,1.05-1.18,.06-.08,.13-.15,.2-.23,.3-.32,.6-.64,.91-.96,.06-.06,.12-.13,.19-.2,.44-.45,.89-.91,1.35-1.35,3.43-3.33,7.26-6.24,11.42-8.66,8.76-5.11,18.95-8.04,29.82-8.04,32.74,0,59.27,26.54,59.27,59.28Z"/><path class="cls-10" d="M75.73,66.55c.02-.55,.03-1.11,.03-1.67,0-.4,0-.8-.02-1.19,0-.39-.03-.78-.05-1.17,10.76,3.46,17.87,9.43,17.87,16.21,0,9.55-14.11,17.49-32.67,19.09,7.97-7.03,13.36-16.91,14.59-28.04,.12-1.06,.2-2.14,.24-3.22Z"/><path class="cls-10" d="M78.69,57.05c.82,.14,1.63,.3,2.44,.46-.81-.16-1.62-.31-2.44-.46Z"/><path class="cls-10" d="M120.33,77.06c.2,.25,.39,.5,.58,.76-.19-.25-.38-.51-.58-.76Z"/><path class="cls-10" d="M134.84,74.45c0,1.62-.07,3.22-.19,4.81-1.78-2.17-3.91-4.24-6.36-6.22-11.84-9.51-31.14-16.55-53.91-19.16-3.72-14.44-14.6-26-28.63-30.67,8.76-5.11,18.95-8.04,29.82-8.04,32.74,0,59.27,26.54,59.27,59.28Z"/><g><path class="cls-4" d="M134.65,79.26c-.08,.96-.18,1.92-.3,2.86-.38,2.94-.97,5.8-1.76,8.59-.57,2-1.24,3.96-2.01,5.87-1.35,3.36-3,6.56-4.92,9.58-.29,.45-.58,.91-.88,1.35-2.65,3.94-5.76,7.54-9.26,10.73-.44,.4-.88,.79-1.32,1.17-3.99,3.44-8.45,6.35-13.25,8.63-7.69,3.65-16.29,5.69-25.37,5.69-.85,0-1.71-.02-2.56-.06-9.36-.4-18.17-2.97-25.92-7.22-1.56-.85-3.07-1.77-4.53-2.75,.08,0,.16,.01,.24,.02,.4,.03,.81,.07,1.22,.09,.33,.02,.66,.05,.99,.07,.31,.02,.63,.04,.94,.06,.33,.02,.67,.04,1,.06,.47,.03,.94,.05,1.41,.07,.05,0,.09,0,.14,0,.47,.02,.93,.04,1.4,.05h.02c.42,.01,.85,.02,1.27,.03,.16,0,.32,0,.47,.01,.32,0,.65,.01,.97,.01,.18,0,.37,0,.55,0,.41,0,.83,0,1.25,0,39.02,0,70.65-15.5,70.65-34.61,0-1.13-.11-2.25-.33-3.35-.24-1.24-.62-2.46-1.12-3.65-.04-.11-.09-.22-.14-.33-.05-.11-.1-.22-.14-.32-.09-.19-.17-.37-.27-.56-.07-.14-.14-.28-.21-.42-.06-.1-.11-.21-.17-.31-.06-.1-.11-.21-.17-.32-.06-.11-.12-.21-.18-.32-.14-.23-.27-.46-.42-.69-.05-.08-.11-.17-.16-.25-.07-.1-.14-.21-.21-.31-.14-.21-.28-.41-.43-.62-.07-.1-.15-.2-.22-.31-.18-.25-.38-.51-.58-.76-.6-.76-1.26-1.51-1.97-2.25-.08-.09-.17-.17-.25-.26-.2-.2-.41-.41-.62-.61-.09-.09-.18-.17-.27-.26-.21-.2-.43-.4-.65-.6-.07-.06-.14-.13-.21-.19-.07-.06-.14-.12-.2-.18-.18-.16-.37-.32-.55-.47-.44-.37-.89-.74-1.36-1.1-.1-.08-.2-.15-.3-.23-.37-.29-.75-.57-1.15-.85-.07-.05-.14-.1-.21-.15-.82-.58-1.67-1.15-2.56-1.7-.35-.22-.7-.43-1.06-.64-.04-.02-.08-.05-.12-.07-.23-.14-.47-.28-.71-.41-.05-.03-.1-.06-.14-.08-.22-.13-.43-.25-.65-.37-.09-.05-.17-.1-.26-.14-.22-.12-.45-.24-.67-.36-.03-.02-.07-.04-.11-.06-.23-.13-.47-.25-.71-.37-.08-.04-.15-.08-.23-.12-.23-.12-.46-.23-.69-.34-.09-.05-.19-.1-.28-.14-.21-.1-.42-.21-.64-.31-.06-.03-.12-.06-.18-.09-.25-.12-.5-.24-.75-.35-.1-.05-.19-.09-.29-.13-.21-.1-.42-.19-.63-.28-.28-.12-.56-.25-.84-.37-.29-.13-.58-.25-.87-.37-.04-.02-.08-.03-.12-.05-.17-.07-.34-.14-.51-.21-.23-.09-.45-.18-.68-.27-.33-.13-.67-.26-1.01-.39-.34-.13-.68-.26-1.02-.38-.41-.15-.81-.3-1.23-.44-.28-.1-.57-.2-.86-.3-.83-.28-1.68-.56-2.54-.83-.23-.07-.46-.14-.69-.21-.37-.11-.74-.22-1.11-.33-.23-.07-.46-.13-.7-.2-.47-.13-.94-.26-1.41-.39-.24-.06-.47-.13-.71-.19-.48-.13-.96-.25-1.44-.37-.48-.12-.97-.24-1.46-.35-1.17-.27-2.37-.53-3.58-.77-.8-.16-1.62-.32-2.44-.46-.24-.05-.49-.09-.74-.13-.22-.04-.44-.08-.65-.11-.36-.06-.72-.12-1.09-.18-.3-.05-.6-.1-.9-.14-.12-.02-.24-.04-.36-.06-.17-.86-.36-1.72-.58-2.56,22.78,2.61,42.07,9.65,53.91,19.16,2.45,1.97,4.59,4.05,6.36,6.22Z"/><path class="cls-7" d="M125.08,89.57c0,19.12-31.63,34.61-70.65,34.61-.42,0-.83,0-1.25,0-.18,0-.37,0-.55,0-.32,0-.65,0-.97-.01-.16,0-.32,0-.47-.01-.43,0-.85-.02-1.27-.03h-.02c-.47-.02-.93-.03-1.4-.05-.05,0-.09,0-.14,0-.47-.02-.94-.04-1.41-.07-.33-.02-.67-.03-1-.06-.31-.02-.63-.04-.94-.06-.33-.02-.66-.04-.99-.07-.41-.03-.81-.06-1.22-.09-.08,0-.16-.01-.24-.02h0c-.28-.19-.56-.38-.84-.58-2.4-1.67-4.67-3.51-6.79-5.51-1.23-1.15-2.4-2.36-3.52-3.62-1.55-1.73-3.01-3.56-4.35-5.46-.26-.37-.51-.74-.76-1.11,4.7,1.36,9.85,2.38,15.31,3.01,4.05,.47,8.27,.71,12.61,.71,30.43,0,55.1-12.09,55.1-27,0-11.23-14.01-20.86-33.93-24.93-.12-.93-.27-1.86-.45-2.77,.12,.02,.24,.03,.36,.06,.3,.04,.6,.09,.9,.14,.36,.06,.73,.12,1.09,.18,.22,.03,.44,.07,.65,.11,.25,.04,.49,.09,.74,.13,.82,.15,1.63,.3,2.44,.46,1.21,.24,2.4,.5,3.58,.77,.49,.11,.98,.23,1.46,.35,.48,.12,.96,.24,1.44,.37,.24,.06,.47,.13,.71,.19,.47,.13,.94,.26,1.41,.39,.24,.07,.47,.13,.7,.2,.37,.11,.74,.22,1.11,.33,.23,.07,.46,.14,.69,.21,.86,.27,1.71,.54,2.54,.83,.29,.1,.57,.2,.86,.3,.41,.14,.82,.29,1.23,.44,.34,.13,.68,.25,1.02,.38,.34,.13,.67,.26,1.01,.39,.23,.09,.45,.18,.68,.27,.17,.07,.34,.14,.51,.21,.04,.02,.08,.03,.12,.05,.29,.12,.58,.24,.87,.37,.28,.12,.56,.24,.84,.37,.21,.09,.42,.19,.63,.28,.1,.04,.19,.09,.29,.13,.25,.11,.5,.23,.75,.35,.06,.03,.12,.06,.18,.09,.21,.1,.43,.2,.64,.31,.1,.04,.19,.09,.28,.14,.23,.11,.46,.23,.69,.34,.08,.04,.16,.08,.23,.12,.24,.12,.47,.24,.71,.37,.04,.02,.07,.03,.11,.06,.23,.12,.45,.24,.67,.36,.09,.05,.18,.1,.26,.14,.22,.12,.44,.24,.65,.37,.05,.03,.1,.05,.14,.08,.24,.13,.47,.27,.71,.41,.04,.02,.08,.05,.12,.07,.36,.21,.71,.43,1.06,.64,.89,.55,1.74,1.12,2.56,1.7,.07,.05,.14,.1,.21,.15,.39,.28,.77,.56,1.15,.85,.1,.07,.2,.15,.3,.23,.47,.36,.92,.73,1.36,1.1,.19,.16,.37,.32,.55,.47,.07,.06,.14,.12,.2,.18,.07,.07,.14,.13,.21,.19,.22,.2,.44,.4,.65,.6,.09,.09,.18,.17,.27,.26,.21,.2,.42,.41,.62,.61,.08,.09,.17,.17,.25,.26,.71,.74,1.37,1.49,1.97,2.25,.2,.25,.39,.5,.58,.76,.07,.1,.15,.2,.22,.31,.15,.21,.29,.41,.43,.62,.07,.1,.14,.21,.21,.31,.05,.08,.11,.17,.16,.25,.14,.23,.28,.46,.42,.69,.06,.11,.12,.21,.18,.32,.06,.1,.12,.21,.17,.32,.06,.1,.11,.21,.17,.31,.07,.14,.14,.28,.21,.42,.09,.19,.18,.37,.27,.56,.05,.11,.1,.21,.14,.32,.05,.11,.1,.22,.14,.33,.5,1.19,.88,2.41,1.12,3.65,.22,1.1,.33,2.22,.33,3.35Z"/></g><path class="cls-6" d="M109.33,84.14c0,14.91-24.67,27-55.1,27-4.34,0-8.56-.25-12.61-.71-5.46-.63-10.61-1.65-15.31-3.01-.46-.68-.91-1.38-1.33-2.08-.58-.95-1.14-1.93-1.67-2.92-.77-1.42-1.47-2.88-2.12-4.37-1.65-3.79-2.91-7.79-3.74-11.94,1.69,2,4.05,3.84,6.93,5.43,4.1,2.28,9.28,4.07,15.15,5.21,4.49,.87,9.38,1.34,14.5,1.34,2.35,0,4.65-.1,6.89-.29,18.56-1.6,32.67-9.54,32.67-19.09,0-6.78-7.11-12.75-17.87-16.21-.03-.51-.06-1.02-.11-1.53-.05-.59-.12-1.18-.19-1.77,19.92,4.07,33.93,13.7,33.93,24.93Z"/><path class="cls-8" d="M75.77,64.88c0,.56,0,1.12-.03,1.67-.04,1.08-.12,2.16-.24,3.22-1.23,11.13-6.63,21.01-14.59,28.04-2.24,.19-4.54,.29-6.89,.29-5.12,0-10.01-.48-14.5-1.34-5.86-1.13-11.04-2.93-15.15-5.21-2.88-1.6-5.24-3.43-6.93-5.43-.43-2.16-.74-4.36-.93-6.59-.14-1.67-.22-3.36-.22-5.07,0-.54,0-1.08,.02-1.61,0-.26,.01-.52,.03-.78,.06-1.48,.17-2.94,.34-4.39,.13-1.18,.3-2.35,.51-3.51v-.05c.26-1.43,.56-2.84,.91-4.23,.05-.19,.1-.38,.15-.58h0c2.32-8.81,6.61-16.82,12.39-23.52,.34-.4,.69-.79,1.05-1.18,.06-.08,.13-.15,.2-.23,.3-.32,.6-.65,.91-.96,.06-.06,.12-.13,.19-.2,.44-.45,.89-.91,1.35-1.35,3.43-3.33,7.26-6.24,11.42-8.66,14.03,4.67,24.91,16.23,28.63,30.67,.22,.85,.41,1.7,.58,2.56,.18,.91,.33,1.84,.45,2.77,.08,.58,.14,1.17,.19,1.77,.05,.51,.08,1.02,.11,1.53,.02,.39,.04,.78,.05,1.17,.01,.4,.02,.79,.02,1.19Z"/><g><g><g><path class="cls-10" d="M75.92,46.29s0-.03-.02-.04c0-.02-.02-.05-.03-.07,.02,.04,.04,.07,.05,.11Z"/><path class="cls-1" d="M75.87,46.18s.04,.07,.05,.11c0-.01,0-.03-.02-.04,0-.02-.02-.05-.03-.07m1-.6l-2.04,1.12s-.01-.03-.02-.05h0s.02,.05,.03,.07l2.22-.68c-.04-.16-.1-.32-.19-.47h0Z"/></g><g><path class="cls-10" d="M91.33,34.3c-.57-2.03-4.71-1.85-4.71-1.85h-1.5l-1.35-1.43c-.36-.38-.86-.6-1.37-.6h-16.75l5.65,3.83-4.12,4.22,3.04-.12-2.23,2.18c1-.43,2.1-.66,3.23-.66,1.79,0,3.44,.58,4.79,1.56h6.57l2.14,2.14h2.3c-.89-.96-2.72-2.09-3.32-3.52-.31-.72-.07-1.55,.57-2.01,.35-.25,.8-.5,1.36-.67,1.37-.42,2.89,0,3.78,1.18,.29,.38,.5,.81,.5,1.26,0,0,2-3.48,1.43-5.51Zm-9.3-.42h0c-.32-.15-1.18-.51-1.96-.8-.79-.3-1.89-.64-1.89-.64,2.04,.02,2.51,.03,2.6,.03h.02s.2,0,.62,0c.42,0,1.11,.01,2.23,.03l-.17,.1c-.57,.32-1.06,.76-1.45,1.28Z"/><path class="cls-10" d="M82.4,30.41c.51,0,1.01,.22,1.37,.6l1.35,1.43h1.5s.09,0,.25,0c.9,0,3.98,.13,4.46,1.86,.57,2.03-1.43,5.51-1.43,5.51,0-.45-.21-.88-.5-1.26-.66-.88-1.67-1.34-2.71-1.34-.35,0-.71,.05-1.06,.16-.55,.17-1.01,.42-1.36,.67-.64,.46-.88,1.29-.57,2.01,.6,1.43,2.43,2.56,3.32,3.52h-2.3l-2.14-2.14h-6.57c-1.35-.98-3-1.56-4.79-1.56-1.13,0-2.23,.23-3.23,.66l2.23-2.18-3.04,.12,4.12-4.22-5.65-3.83h16.75Zm-.37,3.46c.39-.53,.88-.96,1.45-1.28l.17-.1c-1.12-.01-1.81-.02-2.23-.03-.42,0-.57,0-.62,0h-.02c-.09,0-.56,0-2.6-.03,0,0,1.1,.34,1.89,.64,.78,.29,1.64,.66,1.96,.8h0Zm.37-4.62h-20.54l3.14,2.13,4.5,3.05-3.15,3.22-2.04,2.09,2.92-.12h.02l-.07,.07-4.48,4.38,5.76-2.48c.87-.38,1.8-.57,2.77-.57,1.48,0,2.9,.46,4.1,1.33l.31,.22h6.46l1.8,1.8,.34,.34h5.45l-.8-.86,2.01-3.49c.23-.4,2.23-3.97,1.54-6.4-.69-2.44-4.13-2.71-5.58-2.71-.13,0-.22,0-.27,0h-.97l-1.01-1.07c-.58-.61-1.39-.96-2.22-.96h0Zm6.33,14.45l-.86-.92c-.33-.35-.73-.7-1.16-1.06-.77-.65-1.64-1.4-1.94-2.12-.09-.22-.02-.47,.18-.61,.32-.22,.66-.39,1.02-.51,.24-.07,.48-.11,.72-.11,.72,0,1.37,.32,1.78,.87,.24,.31,.26,.5,.26,.56v3.89h0Z"/></g><g><path class="cls-10" d="M75.92,46.29s0-.03-.02-.04c0-.02-.02-.05-.03-.07,.02,.04,.04,.07,.05,.11Z"/><path class="cls-1" d="M75.87,46.18s.04,.07,.05,.11c0-.01,0-.03-.02-.04,0-.02-.02-.05-.03-.07m1-.6l-2.04,1.12s-.01-.03-.02-.05h0s.02,.05,.03,.07l2.22-.68c-.04-.16-.1-.32-.19-.47h0Z"/></g><g><path class="cls-10" d="M84.42,74.01h-15.91l8.11-9.74,.26-.31v-10.05c1.6-1.54,2.51-3.65,2.51-5.89,0-2.1-.8-4.02-2.11-5.47h4.8l2.16,2.16h3.34c.03,.07,.08,.15,.13,.25,.47,.96,1.5,3.01,1.46,7.58-.08,8.52-4.76,11.24-4.74,21.47Z"/><path class="cls-10" d="M86.37,63.66c-.05,.14-.11,.29-.16,.44l.13-.03h0c.05-.14,.1-.27,.15-.41-.04,0-.08,0-.12,0Zm0,0c-.05,.14-.11,.29-.16,.44l.13-.03h0c.05-.14,.1-.27,.15-.41-.04,0-.08,0-.12,0Zm-7.08-14.31h0c.01-.1,.03-.19,.04-.27-.02,.14-.04,.27-.06,.41,0-.04,.02-.09,.02-.13Zm-.08,.44s.02-.09,.03-.14c0-.05,.02-.11,.03-.16-.03,.13-.05,.27-.08,.4,0-.03,.02-.06,.02-.09Zm-.11,.44s.03-.1,.04-.14h0c.02-.07,.03-.14,.05-.2-.03,.14-.07,.27-.1,.4,0-.02,.01-.03,.02-.05Zm-.04,.14s.02-.06,.03-.09c-.02,.06-.04,.13-.06,.19,.01-.03,.02-.06,.03-.1Zm-.5,1.28s.01-.03,.02-.04c-.05,.11-.11,.21-.17,.32,.05-.09,.1-.19,.15-.28Zm-.56,.97s.07-.1,.1-.15c-.03,.05-.07,.11-.1,.16h0Zm-.06,.08s.01-.02,.02-.03c-.07,.1-.14,.2-.22,.3,.07-.09,.13-.18,.2-.27Zm-.47,.61c.08-.09,.15-.19,.23-.28-.08,.1-.16,.2-.24,.3,0,0,.01-.01,.02-.02Zm-.58,10.67l-.26,.31,.26-.31v-10.05c.1-.1,.2-.19,.29-.3-.1,.1-.19,.2-.29,.3v10.05Zm13.38-13.65c-.03-.41-.07-.8-.12-1.17-.29-2.28-.87-3.62-1.26-4.42-.04-.08-.07-.15-.11-.22l-.02-.05c-.06-.11-.1-.2-.14-.28l-.33-.63h-3.56l-2.16-2.16h-7.91l.89,.98h0l.19,.21,.12,.13h.01l.55,.62c.67,.74,1.16,1.59,1.46,2.52,0,.02,.01,.03,.02,.05,.12,.36,.2,.74,.26,1.12h0s0,.03,0,.05c.05,.32,.07,.64,.07,.97,0,1.92-.76,3.72-2.15,5.05l-.36,.34v10.12l-2.28,2.74h0l-.07,.08-.05,.06-.7,.84-.3,.36-.11,.14-.05,.06-.71,.85-3.83,4.6-.61,.73-.23,.27-.75,.91h19.57v-1.23c0-.41,0-.82,.02-1.21,.02-.49,.05-.96,.09-1.41,.03-.4,.08-.79,.13-1.16,.27-1.96,.73-3.6,1.26-5.12,.16-.46,.33-.92,.5-1.36,0-.02,.02-.05,.03-.07,.14-.35,.27-.69,.4-1.04,.02-.04,.03-.09,.05-.13,.65-1.66,1.3-3.36,1.74-5.34,.08-.38,.16-.77,.22-1.17,.17-1.04,.27-2.16,.29-3.39,0-.82-.02-1.56-.07-2.24Zm-21.75,23.7h.01l3.63-4.37h0l1.09-1.31,.12-.14h0l1.06-1.27,2.2-2.64,.26-.31v-10.05c.1-.1,.2-.19,.29-.3,.09-.09,.17-.18,.25-.28,0,0,.02-.02,.02-.03,0,0,.01-.01,.02-.02,.08-.09,.15-.19,.23-.28,.01-.02,.03-.03,.04-.05,.07-.09,.13-.18,.2-.27,0,0,.01-.02,.02-.03,.01-.02,.02-.03,.03-.05h0c.03-.05,.07-.11,.1-.16l.02-.03s.01-.02,.02-.03c.03-.05,.07-.1,.1-.15h0c.04-.07,.07-.13,.1-.19v-.02s.05-.06,.06-.09c0,0,0-.02,.01-.02,.05-.09,.1-.19,.15-.28,0-.01,.01-.03,.02-.04,.01-.02,.02-.05,.03-.07,.04-.08,.08-.16,.11-.24,.03-.08,.07-.16,.1-.24,.02-.06,.04-.11,.07-.17,.03-.08,.06-.15,.08-.23,.02-.06,.04-.13,.06-.19,.01-.03,.02-.06,.03-.1,.01-.03,.02-.06,.03-.09,0-.02,.01-.03,.02-.05,.01-.05,.03-.1,.04-.14h0c.02-.07,.03-.14,.05-.2,0-.03,.02-.06,.02-.09,.01-.05,.02-.09,.03-.14,0-.05,.02-.11,.03-.16h0s.02-.09,.02-.14h0c.01-.1,.03-.19,.04-.27h0c0-.05,.01-.1,.02-.15,0-.08,.02-.16,.02-.24,0,0,0-.02,0-.03h0c0-.1,.01-.19,.02-.29v-.03c0-.1,0-.2,0-.3h0c0-.33-.02-.65-.06-.97-.05-.41-.13-.82-.24-1.21-.34-1.23-.96-2.34-1.79-3.27h0s-.02-.02-.03-.03h4.8l2.16,2.16h3.35c.03,.08,.07,.15,.12,.25,.06,.12,.13,.26,.2,.41,.03,.07,.07,.15,.11,.24l.02,.04s.04,.09,.06,.13c.01,.03,.03,.06,.04,.1,.04,.1,.08,.2,.12,.31h0c.04,.11,.08,.22,.12,.34,.02,.06,.04,.11,.06,.17,.04,.13,.08,.26,.12,.41,.02,.07,.04,.14,.06,.21,0,0,0,.02,0,.03,0,.03,.02,.06,.02,.1,0,.03,.02,.06,.03,.1,.02,.07,.04,.15,.05,.23,.09,.4,.17,.84,.24,1.33h0c.04,.3,.08,.61,.1,.94,0,.08,.01,.16,.02,.24,.01,.14,.02,.29,.03,.45,0,0,0,.01,0,.02,.01,.16,.02,.32,.02,.49v.23c.01,.1,.01,.2,.02,.3,0,.03,0,.06,0,.08,0,.05,0,.09,0,.14,0,.18,0,.36,0,.54,0,.27,0,.53-.02,.78,0,.08,0,.17-.01,.25,0,.01,0,.03,0,.04,0,.03,0,.06,0,.09,0,.05,0,.1,0,.15,0,.07,0,.14-.02,.22,0,.12-.02,.23-.03,.34-.01,.11-.02,.22-.03,.32v.05c-.01,.07-.02,.13-.03,.2-.01,.1-.02,.2-.04,.3,0,.09-.02,.18-.04,.26-.01,.09-.03,.18-.04,.27,0,.04-.01,.08-.02,.12,0,.01,0,.03,0,.04,0,.06-.02,.11-.03,.16,0,.03,0,.06-.01,.08-.01,.08-.03,.16-.05,.24-.04,.21-.09,.43-.14,.63h0c-.05,.21-.1,.42-.15,.62-.03,.1-.05,.2-.08,.31-.03,.1-.06,.2-.09,.3-.06,.2-.11,.4-.18,.59-.03,.09-.06,.18-.09,.27v.02c-.07,.2-.14,.38-.2,.58h0c-.03,.1-.07,.19-.1,.29l-.16,.44c-.05,.13-.1,.26-.15,.4-.03,.1-.07,.19-.11,.29-.16,.42-.33,.84-.49,1.27-.15,.39-.3,.78-.45,1.18-.05,.14-.11,.29-.16,.44h0c-.04,.11-.08,.22-.12,.34-.11,.33-.23,.66-.34,1-.04,.13-.08,.26-.13,.4-.04,.14-.09,.28-.13,.43v.05c-.05,.11-.08,.23-.11,.34-.04,.14-.08,.28-.11,.42-.04,.16-.08,.32-.12,.49-.03,.1-.05,.2-.07,.3-.01,.06-.03,.11-.04,.17-.01,.06-.03,.12-.04,.17-.01,.06-.03,.12-.04,.19-.03,.14-.06,.29-.08,.43-.02,.1-.04,.2-.05,.29-.02,.1-.03,.2-.05,.3,0,.02,0,.04,0,.06-.02,.1-.03,.2-.05,.31h0c-.02,.13-.03,.25-.05,.37,0,.02,0,.05,0,.07-.02,.12-.03,.24-.04,.36,0,.05-.01,.11-.02,.16h0s0,.07-.01,.11v.15c-.03,.11-.04,.23-.05,.34,0,.09-.02,.18-.02,.27,0,.02,0,.04,0,.07v.22c-.02,.07-.03,.15-.03,.23,0,.08,0,.15-.01,.23-.01,.22-.02,.44-.03,.66,0,.3-.01,.61-.01,.93v.05h-15.91Zm17.86-10.36c-.05,.14-.11,.29-.16,.44l.13-.03h0c.05-.14,.1-.27,.15-.41-.04,0-.08,0-.12,0Z"/></g><g><path class="cls-10" d="M90.29,89.8h-28.23c-1.51,0-2.73,1.25-2.73,2.8h33.7c0-1.55-1.22-2.8-2.73-2.8Z"/><path class="cls-10" d="M90.29,89.8c1.51,0,2.73,1.25,2.73,2.8H59.32c0-1.55,1.22-2.8,2.73-2.8h28.23Zm0-1.16h-28.23c-2.15,0-3.9,1.78-3.9,3.96v1.16h36.03v-1.16c0-2.19-1.75-3.96-3.9-3.96h0Z"/></g><g><path class="cls-10" d="M89.76,84.76c0-1.07-.59-2.01-1.46-2.48h-.02c-2.29-1.3-3.89-4.32-3.89-7.12h-16.45c0,2.8-1.6,5.82-3.89,7.11h-.02c-.87,.48-1.46,1.41-1.46,2.49h27.18Z"/><path class="cls-10" d="M84.4,75.16c0,2.8,1.6,5.82,3.89,7.11h.02c.87,.48,1.46,1.41,1.46,2.49h-27.18c0-1.07,.59-2.01,1.46-2.48h.02c2.29-1.3,3.89-4.32,3.89-7.12h16.45Zm1.16-1.16h-18.78v1.16c0,2.42-1.42,5.04-3.3,6.1l-.05,.03h0c-1.24,.7-2.01,2.03-2.01,3.47v1.16h29.51v-1.16c0-1.45-.78-2.78-2.03-3.48l-.04-.02c-1.88-1.06-3.3-3.68-3.3-6.1v-1.16h0Z"/></g><g><path class="cls-10" d="M91.39,88.68c0-1.55-1.22-2.8-2.73-2.8h-24.98c-1.51,0-2.73,1.25-2.73,2.8h30.44Z"/><path class="cls-10" d="M92.46,87.81c-.21-.96-.77-1.79-1.53-2.34-.49-.36-1.07-.61-1.69-.7-.19-.03-.38-.04-.58-.04h-24.98c-.2,0-.39,.01-.57,.04-.63,.09-1.2,.34-1.7,.7-.99,.72-1.63,1.9-1.63,3.22v1.16h32.77v-1.16c0-.3-.03-.6-.1-.88Zm-31.51,.88h0c0-1.38,.97-2.52,2.25-2.76,.16-.03,.32-.04,.48-.04h24.98c.17,0,.33,.01,.48,.04,1.1,.2,1.97,1.07,2.19,2.19,.04,.18,.06,.37,.06,.56h-30.44Z"/></g><g><polygon class="cls-10" points="65.63 50.71 65.63 53.87 61.98 58.7 62.41 55.35 65.63 50.71"/><path class="cls-10" d="M65.63,50.71v3.16l-3.65,4.83,.42-3.35,3.22-4.64h0Zm1.16-3.72l-2.12,3.05-3.22,4.64-.16,.23-.04,.28-.42,3.35-.55,4.33,2.63-3.49,3.65-4.83,.24-.31v-7.26h0Z"/></g><g><path class="cls-10" d="M70.63,46.46c0,.25-.2,.45-.45,.45s-.45-.2-.45-.45,.2-.45,.45-.45,.45,.2,.45,.45Z"/><path class="cls-10" d="M70.17,46.01c.25,0,.45,.2,.45,.45s-.2,.45-.45,.45-.45-.2-.45-.45,.2-.45,.45-.45h0Zm0-1.16c-.89,0-1.62,.73-1.62,1.62s.73,1.62,1.62,1.62,1.62-.73,1.62-1.62-.73-1.62-1.62-1.62h0Z"/></g><g><path class="cls-10" d="M75.2,48.01v.02c0,1.67-1.06,3.18-2.63,3.74l-.37,.13v15.93l-4.13,4.95-9.4,11.97,.87-6.83,7.61-9.83c.14,.04,.3,.07,.46,.07,.03,0,.06,0,.09,0,.04,0,.07,0,.11,0,.02,0,.04,0,.06,0,.03,0,.06,0,.08-.02,.04,0,.08-.02,.12-.03h0s.08-.03,.11-.04h.03s.06-.04,.09-.06c.05-.02,.09-.05,.14-.08,.03-.02,.06-.04,.09-.07h0s.06-.05,.09-.08h0l.02-.02s.06-.05,.08-.08c.03-.03,.06-.06,.09-.1,.02-.03,.05-.06,.07-.09,.02-.03,.04-.06,.06-.08,.01-.02,.03-.04,.04-.07,.01-.02,.02-.05,.04-.07,.01-.02,.02-.05,.03-.07,0-.02,.02-.05,.03-.07,0-.02,.01-.03,.02-.05,0-.03,.02-.06,.02-.08,0-.01,0-.02,0-.04,0-.02,0-.03,.01-.05,0-.02,0-.04,.01-.06,0-.03,0-.06,.01-.09,0-.02,0-.04,0-.06,0-.03,0-.07,0-.1,0-.03,0-.06,0-.09h0s0-.05,0-.07c0-.03,0-.05,0-.08,0-.03,0-.05-.01-.08,0-.02,0-.05-.02-.07,0-.03-.01-.06-.02-.08,0-.02-.02-.05-.03-.07,0-.02-.02-.05-.03-.07,0-.02-.02-.04-.02-.06h0c-.02-.06-.04-.1-.07-.14-.08-.14-.19-.26-.3-.37-.01-.01-.03-.03-.05-.04-.02-.02-.04-.03-.06-.05-.02-.02-.04-.03-.06-.04-.03-.02-.06-.04-.09-.06-.03-.02-.06-.04-.09-.05h-.01s-.05-.03-.08-.04c-.03-.01-.07-.03-.1-.04-.02,0-.04-.01-.06-.02-.02,0-.04-.01-.06-.02-.02,0-.04,0-.07-.01-.03,0-.05,0-.08-.01-.05,0-.09-.01-.14-.01-.03,0-.06,0-.09,0-.87,0-1.57,.7-1.57,1.57,0,.3,.08,.58,.23,.82l-6.45,8.33,.8-6.32h0l6.54-8.6c.14,.04,.29,.06,.44,.06,.02,0,.04,0,.06,0,.02,0,.04,0,.06,0,.04,0,.08,0,.11-.01h0s.1-.02,.14-.03c.03,0,.05-.01,.08-.02,.02,0,.04-.01,.05-.02,.02,0,.04-.02,.07-.02,.03-.01,.06-.03,.09-.04,.02,0,.05-.02,.07-.03,.02-.01,.04-.03,.07-.04,.02-.01,.04-.03,.07-.04,.02-.01,.04-.03,.06-.04h0s.07-.06,.1-.09h0s.06-.07,.09-.09c.02-.02,.05-.05,.07-.08h0s.02-.03,.03-.05c.02-.03,.05-.06,.07-.09,.02-.04,.05-.07,.07-.11,.01-.02,.02-.04,.04-.07,.01-.02,.02-.05,.03-.07,.02-.04,.03-.08,.05-.12,.02-.06,.03-.11,.05-.17,0-.03,0-.05,.01-.08s0-.05,0-.08c0-.05,0-.11,0-.16,0-.04,0-.08,0-.13,0-.04,0-.08-.01-.11h0s0-.06-.01-.08c0-.03-.01-.06-.02-.09,0-.02,0-.04-.02-.06h0s-.02-.06-.02-.08c0-.02-.02-.05-.03-.07,0-.02-.02-.05-.03-.07,0-.02-.02-.05-.04-.07l-.03-.05s-.06-.1-.1-.14c-.03-.03-.05-.07-.08-.1l-.02-.02s-.03-.04-.05-.05c-.02-.02-.04-.04-.06-.05-.02-.02-.04-.03-.06-.05l-.06-.05s-.08-.06-.13-.08c-.02-.01-.04-.02-.06-.04-.06-.03-.13-.06-.19-.09-.02,0-.05-.02-.07-.02-.04-.01-.07-.02-.11-.03-.02,0-.04,0-.07-.01-.04,0-.07-.01-.11-.02-.04,0-.08,0-.11-.01-.03,0-.06,0-.09,0-.87,0-1.57,.7-1.57,1.57,0,.3,.09,.59,.24,.83l-5.37,7.06,.8-6.28,5.05-6.68v-5.14l.93-1.34,.52-.75h.51c.23,.59,.8,1.01,1.47,1.01s1.24-.42,1.47-1.01h2.34c.2,.52,.66,.9,1.22,.99Z"/><path class="cls-10" d="M73.98,47.02c.2,.52,.66,.9,1.22,.99v.02c0,1.67-1.06,3.18-2.63,3.74l-.37,.13v15.93l-4.13,4.95-9.4,11.97,.87-6.83,7.61-9.83c.14,.04,.3,.07,.46,.07,.03,0,.06,0,.09,0,.04,0,.07,0,.11,0,.02,0,.04,0,.06,0,.03,0,.06,0,.08-.02,.04,0,.08-.02,.12-.03h0s.08-.03,.11-.04h.03s.06-.04,.09-.06c.05-.02,.09-.05,.14-.08,.03-.02,.06-.04,.09-.07h0s.06-.05,.09-.08h0l.02-.02s.06-.05,.08-.08c.03-.03,.06-.06,.09-.1,.02-.03,.05-.06,.07-.09,.02-.03,.04-.06,.06-.08,.01-.02,.03-.04,.04-.07,.01-.02,.02-.05,.04-.07,.01-.02,.02-.05,.03-.07,0-.02,.02-.05,.03-.07,0-.02,.01-.03,.02-.05,0-.03,.02-.06,.02-.08,0-.01,0-.02,0-.04,0-.02,0-.03,.01-.05,0-.02,0-.04,.01-.06,0-.03,0-.06,.01-.09,0-.02,0-.04,0-.06,0-.03,0-.07,0-.1,0-.03,0-.06,0-.09h0s0-.05,0-.07c0-.03,0-.05,0-.08,0-.03,0-.05-.01-.08,0-.02,0-.05-.02-.07,0-.03-.01-.06-.02-.08,0-.02-.02-.05-.03-.07,0-.02-.02-.05-.03-.07,0-.02-.02-.04-.02-.06h0c-.02-.06-.04-.1-.07-.14-.08-.14-.19-.26-.3-.37-.01-.01-.03-.03-.05-.04-.02-.02-.04-.03-.06-.05-.02-.02-.04-.03-.06-.04-.03-.02-.06-.04-.09-.06-.03-.02-.06-.04-.09-.05h-.01s-.05-.03-.08-.04c-.03-.01-.07-.03-.1-.04-.02,0-.04-.01-.06-.02-.02,0-.04-.01-.06-.02-.02,0-.04,0-.07-.01-.03,0-.05,0-.08-.01-.05,0-.09-.01-.14-.01-.03,0-.06,0-.09,0-.87,0-1.57,.7-1.57,1.57,0,.3,.08,.58,.23,.82l-6.45,8.33,.8-6.32h0l6.54-8.6c.14,.04,.29,.06,.44,.06,.02,0,.04,0,.06,0,.02,0,.04,0,.06,0,.04,0,.08,0,.11-.01h0s.1-.02,.14-.03c.03,0,.05-.01,.08-.02,.02,0,.04-.01,.05-.02,.02,0,.04-.02,.07-.02,.03-.01,.06-.03,.09-.04,.02,0,.05-.02,.07-.03,.02-.01,.04-.03,.07-.04,.02-.01,.04-.03,.07-.04,.02-.01,.04-.03,.06-.04h0s.07-.06,.1-.09h0s.06-.07,.09-.09c.02-.02,.05-.05,.07-.08h0s.02-.03,.03-.05c.02-.03,.05-.06,.07-.09,.02-.04,.05-.07,.07-.11,.01-.02,.02-.04,.04-.07,.01-.02,.02-.05,.03-.07,.02-.04,.03-.08,.05-.12,.02-.06,.03-.11,.05-.17,0-.03,0-.05,.01-.08s0-.05,0-.08c0-.05,0-.11,0-.16,0-.04,0-.08,0-.13,0-.04,0-.08-.01-.11h0s0-.06-.01-.08c0-.03-.01-.06-.02-.09,0-.02,0-.04-.02-.06h0s-.02-.06-.02-.08c0-.02-.02-.05-.03-.07,0-.02-.02-.05-.03-.07,0-.02-.02-.05-.04-.07l-.03-.05s-.06-.1-.1-.14c-.03-.03-.05-.07-.08-.1l-.02-.02s-.03-.04-.05-.05c-.02-.02-.04-.04-.06-.05-.02-.02-.04-.03-.06-.05l-.06-.05s-.08-.06-.13-.08c-.02-.01-.04-.02-.06-.04-.06-.03-.13-.06-.19-.09-.02,0-.05-.02-.07-.02-.04-.01-.07-.02-.11-.03-.02,0-.04,0-.07-.01-.04,0-.07-.01-.11-.02-.04,0-.08,0-.11-.01-.03,0-.06,0-.09,0-.87,0-1.57,.7-1.57,1.57,0,.3,.09,.59,.24,.83l-5.37,7.06,.8-6.28,5.05-6.68v-5.14l.93-1.34,.52-.75h.51c.23,.59,.8,1.01,1.47,1.01s1.24-.42,1.47-1.01h2.34Zm.8-1.16h-3.94l-.29,.75c-.05,.13-.19,.26-.38,.26s-.33-.13-.38-.26l-.29-.75h-1.92l-.35,.5-.52,.75-.93,1.34-.21,.3v5.12l-4.82,6.37-.19,.25-.04,.31-.8,6.28-.24,1.91-.05,.06v.32l-.13,1.02-.13,.99h0l-.54,4.23-.24,1.87h0l-.04,.32-.87,6.83-.53,4.18,2.6-3.31,9.38-11.95,4.12-4.94,.27-.32v-15.55c1.81-.83,3-2.66,3-4.67v-1.01l-.98-.16c-.14-.02-.26-.12-.32-.26l-.29-.75h0Zm-7.44,13.82l-.09-.14c-.04-.06-.06-.13-.06-.21,0-.22,.18-.41,.41-.41h.1v.02h.04s.03,.02,.04,.03h0l.04,.03,.04,.03h0l.02,.02h0l.02,.02h0v.02l.04,.04v.02h.02v.02h0v.02l.02,.07v.03h.01v.05h0s0,.04,0,.05h0v.05h0v.03l-.02,.03v.02h-.01v.02l-.02,.02v.02l-.03,.02h0v.02l-.02,.02-.04,.04h-.01v.02h-.02l-.02,.02h0l-.03,.02h-.04v.02h-.1l-.02,.02h0s-.08,0-.12-.02l-.15-.04h0Zm0,7.27l-.09-.14c-.04-.06-.06-.13-.06-.21,0-.22,.18-.41,.41-.41h.1l.02,.02h.01l.03,.02h.02l.02,.02h.02v.02h.02v.02h.02s.06,.07,.08,.1v.02h.02l.02,.05h0v.02h.01v.02h0v.04h0v.02h0v.09h0v.03h0v.04h-.01v.04h-.01v.02l-.02,.02h0v.02l-.02,.02v.02l-.03,.02h0v.02l-.03,.02h0v.02h-.25l-.07,.06s-.03,0-.04-.01l-.14-.04h0Z"/></g><g><path class="cls-10" d="M78.27,48.03c0,2.16-.98,4.1-2.51,5.39v10.14l-2.44,2.93v-13.82c1.81-.82,3-2.63,3-4.64,0-.08,0-.17,0-.25,.28-.18,.49-.44,.61-.76h1.28c.05,.33,.07,.67,.07,1.01Z"/><path class="cls-10" d="M78.2,47.02c.05,.33,.07,.67,.07,1.01,0,2.16-.98,4.1-2.51,5.39v10.14l-2.44,2.93v-13.82c1.81-.82,3-2.63,3-4.64,0-.08,0-.17,0-.25,.28-.18,.49-.44,.61-.76h1.28Zm1.01-1.16h-3.08l-.29,.74c-.03,.08-.09,.15-.16,.2l-.57,.37,.05,.68s0,.1,0,.18c0,1.54-.91,2.95-2.32,3.58l-.69,.31v17.79l2.06-2.47,2.44-2.93,.27-.32v-10.05c1.6-1.55,2.51-3.67,2.51-5.91,0-.4-.03-.8-.08-1.18l-.15-1h0Z"/></g><g><path class="cls-10" d="M70.63,46.46c0,.25-.2,.45-.45,.45s-.45-.2-.45-.45,.2-.45,.45-.45,.45,.2,.45,.45Z"/><path class="cls-10" d="M70.17,46.01c.25,0,.45,.2,.45,.45s-.2,.45-.45,.45-.45-.2-.45-.45,.2-.45,.45-.45h0Zm0-1.16c-.89,0-1.62,.73-1.62,1.62s.73,1.62,1.62,1.62,1.62-.73,1.62-1.62-.73-1.62-1.62-1.62h0Z"/></g><g><path class="cls-10" d="M70.63,46.46c0,.25-.2,.45-.45,.45s-.45-.2-.45-.45,.2-.45,.45-.45,.45,.2,.45,.45Z"/><path class="cls-10" d="M70.17,46.01c.25,0,.45,.2,.45,.45s-.2,.45-.45,.45-.45-.2-.45-.45,.2-.45,.45-.45h0Zm0-1.16c-.89,0-1.62,.73-1.62,1.62s.73,1.62,1.62,1.62,1.62-.73,1.62-1.62-.73-1.62-1.62-1.62h0Z"/></g><g><path class="cls-10" d="M77.94,45.9h-1.02c-.23-.59-.8-1.01-1.47-1.01s-1.24,.42-1.47,1.01h-2.34c-.23-.59-.8-1.01-1.47-1.01s-1.24,.42-1.47,1.01h-1.09l-4.9,7.05,.7-5.48s1.78-3.07,1.86-3.21h0c1.06-1.67,2.8-2.87,4.83-3.19,.36-.06,.74-.09,1.12-.09,.09,0,.19,0,.28,0h0c.09,0,.18,0,.27,.02h.02c.08,0,.15,.02,.23,.02,.02,0,.04,0,.06,0,.07,0,.14,.02,.21,.03,.03,0,.05,0,.08,.01,.01,0,.02,0,.04,0,.06,0,.12,.02,.17,.03,0,0,.02,0,.03,0,.06,.01,.12,.02,.18,.04l.07,.02h0c.05,.01,.1,.03,.15,.04,.04,0,.07,.02,.11,.03,.09,.02,.17,.05,.26,.08,.07,.02,.14,.05,.21,.07h.01l.04,.02c.08,.03,.16,.06,.25,.1,.08,.03,.16,.07,.24,.11,.06,.02,.11,.05,.16,.08,.03,.01,.05,.03,.08,.04,.08,.04,.15,.08,.23,.12,.08,.04,.16,.09,.24,.14,.08,.05,.16,.1,.23,.15,.06,.04,.13,.08,.19,.13l.02,.02h.02s.1,.08,.14,.12c.04,.03,.08,.06,.13,.1,.04,.03,.07,.06,.11,.09,.04,.03,.08,.06,.11,.1,.02,.01,.03,.03,.05,.04,.04,.03,.08,.07,.12,.11h0c.06,.06,.12,.12,.18,.17,.06,.06,.12,.12,.18,.19,0,0,.02,.02,.03,.03h0c.06,.07,.12,.14,.18,.2,.06,.07,.12,.14,.17,.21,.03,.04,.06,.07,.09,.11,.03,.04,.06,.08,.08,.11s.06,.08,.08,.12c.03,.04,.05,.08,.08,.12,.03,.04,.05,.08,.08,.11,.03,.04,.05,.08,.08,.12,.05,.08,.1,.16,.14,.24,.04,.08,.09,.16,.13,.24v.02h.01c.03,.06,.06,.12,.08,.18,0,.02,.02,.04,.03,.06v.02c.03,.05,.06,.1,.08,.16,.02,.05,.05,.11,.07,.16,.02,.05,.04,.11,.06,.16,.01,.04,.03,.07,.04,.11,.03,.07,.05,.14,.07,.22Z"/><path class="cls-10" d="M71.23,40.99c.09,0,.19,0,.28,0h0c.09,0,.18,0,.27,.02h.02c.08,0,.15,.02,.23,.02,.02,0,.04,0,.06,0,.07,0,.14,.02,.21,.03,.03,0,.05,0,.08,.01,.01,0,.02,0,.04,0,.06,0,.12,.02,.17,.03,0,0,.02,0,.03,0,.06,.01,.12,.02,.18,.04l.07,.02h0c.05,.01,.1,.03,.15,.04,.04,0,.07,.02,.11,.03,.09,.02,.17,.05,.26,.08,.07,.02,.14,.05,.21,.07h.01l.04,.02c.08,.03,.16,.06,.25,.1s.16,.07,.24,.11c.06,.02,.11,.05,.16,.08,.03,.01,.05,.03,.08,.04,.08,.04,.15,.08,.23,.12,.08,.04,.16,.09,.24,.14,.08,.05,.16,.1,.23,.15,.06,.04,.13,.08,.19,.13l.02,.02h.02s.1,.08,.14,.12c.04,.03,.08,.06,.13,.1,.04,.03,.07,.06,.11,.09,.04,.03,.08,.06,.11,.1,.02,.01,.03,.03,.05,.04,.04,.03,.08,.07,.12,.11h0c.06,.06,.12,.12,.18,.17,.06,.06,.12,.12,.18,.19,0,0,.02,.02,.03,.03h0c.06,.07,.12,.14,.18,.2,.06,.07,.12,.14,.17,.21,.03,.04,.06,.07,.09,.11,.03,.04,.06,.07,.08,.11,.03,.04,.06,.08,.08,.12,.03,.04,.05,.08,.08,.12,.03,.04,.05,.08,.08,.11,.03,.04,.05,.08,.08,.12,.05,.08,.1,.16,.14,.24,.04,.08,.09,.16,.13,.24v.02h.01c.03,.06,.06,.12,.08,.18,0,.02,.02,.04,.03,.06v.02c.03,.05,.06,.1,.08,.16,.02,.05,.05,.11,.07,.16,.02,.05,.04,.11,.06,.16,.01,.04,.03,.07,.04,.11,.03,.07,.05,.14,.07,.22h-1.02c-.23-.59-.8-1.01-1.47-1.01s-1.24,.42-1.47,1.01h-2.34c-.23-.59-.8-1.01-1.47-1.01s-1.24,.42-1.47,1.01h-1.09l-4.9,7.05,.7-5.48s1.78-3.07,1.86-3.21h0c1.06-1.67,2.8-2.87,4.83-3.19,.36-.06,.74-.09,1.12-.09h0Zm0-1.16c-.44,0-.88,.04-1.31,.1-2.31,.37-4.36,1.72-5.62,3.71l-.03,.05v.02c-.23,.38-1.24,2.12-1.86,3.18l-.12,.2-.03,.23-.7,5.48-.6,4.71,2.71-3.9,4.55-6.55h1.29l.29-.75c.05-.13,.19-.26,.38-.26s.33,.13,.38,.26l.29,.75h3.95l.29-.75c.05-.13,.19-.26,.38-.26s.33,.13,.38,.26l.29,.75h3.4l-.46-1.51c-.03-.1-.06-.18-.09-.27-.02-.05-.03-.09-.05-.13-.02-.06-.05-.13-.07-.19-.02-.05-.05-.11-.07-.16-.03-.06-.05-.13-.08-.19h0v-.09l-.15-.23-.31-.61h-.04l-.03-.04-.02-.04c-.03-.05-.07-.11-.12-.18l-.02-.03s-.03-.05-.05-.07c-.03-.05-.07-.1-.11-.15-.03-.04-.06-.08-.09-.12-.04-.05-.07-.09-.11-.14-.06-.08-.13-.16-.19-.23-.03-.04-.06-.07-.1-.11v-.02l-.13-.12-.04-.04c-.07-.07-.13-.14-.2-.21-.06-.06-.12-.12-.19-.18l-.07-.07-.03-.02s-.05-.05-.08-.07l-.05-.04s-.1-.08-.14-.12c-.04-.04-.09-.07-.13-.1-.05-.04-.1-.07-.14-.11-.04-.03-.08-.06-.13-.1l-.03-.02h-.02s-.03-.04-.05-.05c-.07-.05-.14-.09-.2-.14h-.01c-.09-.06-.18-.12-.27-.18h-.01c-.09-.06-.18-.11-.27-.16-.08-.04-.17-.09-.25-.13-.04-.02-.07-.04-.11-.06l-.04-.02s-.09-.05-.14-.07c-.09-.04-.18-.08-.27-.12-.09-.04-.19-.07-.28-.11h-.03l-.02-.02h-.04c-.07-.04-.15-.06-.22-.09-.1-.03-.21-.06-.29-.09-.05-.01-.1-.03-.15-.04h-.04v-.02l-.11-.02h0l-.14-.04h-.01s-.1-.02-.15-.03c-.03,0-.05-.01-.07-.01-.05-.01-.11-.02-.16-.03-.03,0-.05,0-.07-.01-.03,0-.06,0-.09-.01-.07-.01-.15-.02-.22-.03h-.08c-.09-.02-.18-.03-.28-.04h-.04c-.09-.01-.19-.02-.28-.02h-.04c-.1,0-.2,0-.31,0h0Z"/></g><g><path class="cls-10" d="M75.91,46.46c0,.25-.2,.45-.45,.45-.19,0-.36-.12-.42-.29-.02-.05-.03-.11-.03-.17,0-.25,.2-.45,.45-.45,.2,0,.37,.13,.43,.3,.02,.05,.03,.1,.03,.15Z"/><path class="cls-10" d="M75.45,46.01c.2,0,.37,.13,.43,.3,.02,.05,.03,.1,.03,.15,0,.25-.2,.45-.45,.45-.19,0-.36-.12-.42-.29-.02-.05-.03-.11-.03-.17,0-.25,.2-.45,.45-.45h0Zm0-1.16c-.89,0-1.62,.73-1.62,1.62,0,.2,.04,.4,.11,.59,.25,.63,.84,1.03,1.51,1.03,.89,0,1.62-.73,1.62-1.62,0-.18-.03-.36-.09-.54-.23-.65-.84-1.08-1.53-1.08h0Z"/></g><g><path class="cls-10" d="M68.06,59.32s0,.03,0,.05c0,.01,0,.03,0,.04,0,0,0,.02,0,.02,0,.01,0,.02,0,.03h0s0,.02-.01,.03c0,.02-.02,.04-.03,.06,0,0-.01,.02-.02,.03,0,.01-.02,.02-.03,.03h-.01s-.04,.05-.07,.07c-.02,0-.03,.02-.05,.03-.02,0-.03,.02-.05,.02-.01,0-.03,0-.04,.01,0,0-.02,0-.03,0-.01,0-.03,0-.04,0-.02,0-.03,0-.05,0-.25,0-.45-.2-.45-.45,0-.02,0-.03,0-.05,0-.01,0-.03,0-.04,0,0,0-.02,0-.02,0-.01,0-.02,0-.03h0s0-.02,.01-.03c0-.02,.02-.04,.03-.06,0,0,.01-.02,.02-.03,0-.01,.02-.02,.03-.03h.01s.04-.05,.07-.07c.02,0,.03-.02,.05-.03,.01,0,.03-.01,.05-.02h0s.03,0,.04-.01c0,0,.02,0,.02,0,.01,0,.03,0,.04,0,.02,0,.03,0,.05,0,.02,0,.03,0,.05,0,.01,0,.02,0,.03,0,.01,0,.03,0,.04,0,.02,0,.03,0,.05,.02,.02,0,.03,.01,.04,.02,0,0,.02,.01,.03,.02,.02,.01,.05,.03,.07,.05,.01,.01,.03,.02,.04,.04,.04,.04,.06,.09,.08,.14,0,0,0,.02,0,.03,.01,.04,.02,.08,.02,.12Z"/><path class="cls-10" d="M67.61,58.87s.03,0,.05,0c.01,0,.02,0,.03,0,.01,0,.03,0,.04,0,.02,0,.03,0,.05,.02,.02,0,.03,.01,.04,.02,0,0,.02,.01,.03,.02,.02,.01,.05,.03,.07,.05,.01,.01,.03,.02,.04,.04,.04,.04,.06,.09,.08,.14,0,0,0,.02,0,.03,.01,.04,.02,.08,.02,.12,0,.02,0,.03,0,.05,0,.01,0,.03,0,.04,0,0,0,.02,0,.02,0,.01,0,.02,0,.03h0s0,.02-.01,.03c0,.02-.02,.04-.03,.06,0,0-.01,.02-.02,.03,0,.01-.02,.02-.03,.03h-.01s-.04,.05-.07,.07c-.02,0-.03,.02-.05,.03-.02,0-.03,.02-.05,.02-.01,0-.03,0-.04,.01,0,0-.02,0-.03,0-.01,0-.03,0-.04,0-.02,0-.03,0-.05,0-.25,0-.45-.2-.45-.45,0-.02,0-.03,0-.05,0-.01,0-.03,0-.04,0,0,0-.02,0-.02,0-.01,0-.02,0-.03h0s0-.02,.01-.03c0-.02,.02-.04,.03-.06,0,0,.01-.02,.02-.03,0-.01,.02-.02,.03-.03h.01s.04-.05,.07-.07c.02,0,.03-.02,.05-.03,.01,0,.03-.01,.05-.02h0s.03,0,.04-.01c0,0,.02,0,.02,0,.01,0,.03,0,.04,0,.02,0,.03,0,.05,0h0Zm0-1.16c-.05,0-.1,0-.15,0-.04,0-.09,0-.15,.02h-.11l-.22,.1s-.08,.03-.12,.06c-.04,.02-.08,.05-.13,.07-.1,.06-.18,.13-.26,.21l-.06,.06-.02,.02s-.04,.05-.05,.07c-.04,.04-.07,.09-.1,.14-.03,.05-.06,.11-.09,.17-.02,.05-.04,.09-.06,.13l-.07,.2v.08s-.01,.08-.02,.11h0c0,.06,0,.11,0,.16,0,.89,.73,1.62,1.62,1.62,.05,0,.1,0,.15,0,.04,0,.1-.01,.18-.03,.04,0,.08-.02,.12-.03,.03,0,.06-.02,.07-.02,.07-.02,.15-.06,.22-.09,.06-.03,.11-.06,.13-.08h.02c.1-.08,.17-.14,.22-.19l.07-.07,.03-.04s.05-.06,.08-.09c.03-.04,.06-.08,.08-.12,.03-.05,.06-.11,.09-.16,.03-.05,.04-.1,.06-.13l.07-.2v-.08c0-.05,.01-.09,.02-.11h0c0-.06,0-.11,0-.16,0-.14-.02-.27-.05-.4-.01-.06-.03-.12-.05-.17-.06-.17-.16-.33-.27-.46-.04-.05-.08-.09-.13-.14-.07-.07-.15-.13-.23-.18-.02-.02-.05-.03-.07-.04-.07-.04-.14-.07-.21-.1-.05-.02-.09-.03-.14-.05-.05-.02-.11-.03-.17-.04-.04,0-.07-.01-.09-.01h-.05s-.1-.01-.15-.01h0Z"/></g><g><path class="cls-10" d="M68.06,66.6c0,.1-.04,.2-.09,.28-.02,.02-.04,.05-.06,.06,0,0-.02,.02-.03,.03l-.02,.02s-.02,.01-.03,.02c-.06,.04-.14,.05-.21,.05-.25,0-.45-.2-.45-.45,0-.1,.04-.2,.09-.28,.08-.11,.21-.18,.36-.18,.25,0,.45,.2,.45,.45Z"/><path class="cls-10" d="M67.61,66.15c.25,0,.45,.2,.45,.45,0,.1-.04,.2-.09,.28-.02,.02-.04,.05-.06,.06,0,0-.02,.02-.03,.03l-.02,.02s-.02,.01-.03,.02c-.06,.04-.14,.05-.21,.05-.25,0-.45-.2-.45-.45,0-.1,.04-.2,.09-.28,.08-.11,.21-.18,.36-.18h0Zm0-1.16c-.5,0-.96,.23-1.27,.62-.22,.29-.34,.64-.34,1,0,.89,.73,1.62,1.62,1.62,.26,0,.51-.06,.74-.18,.05-.02,.1-.05,.14-.08,.02-.02,.05-.03,.07-.05,.04-.03,.07-.06,.1-.08,.1-.08,.17-.17,.21-.22h0v-.02c.23-.28,.35-.63,.35-.99,0-.89-.73-1.62-1.62-1.62h0Z"/></g></g><g><path class="cls-5" d="M76.03,46.29s0-.03-.02-.04c0-.02-.02-.05-.03-.07,.02,.04,.04,.07,.05,.11Z"/><path class="cls-5" d="M91.45,34.3c-.57-2.03-4.71-1.85-4.71-1.85h-1.5l-1.35-1.43c-.36-.38-.86-.6-1.37-.6h-16.75l5.65,3.83-4.12,4.22,3.04-.12-2.23,2.18c1-.43,2.1-.66,3.23-.66,1.79,0,3.44,.58,4.79,1.56h6.57l2.14,2.14h2.3c-.89-.96-2.72-2.09-3.32-3.52-.31-.72-.07-1.55,.57-2.01,.35-.25,.8-.5,1.36-.67,1.37-.42,2.89,0,3.78,1.18,.29,.38,.5,.81,.5,1.26,0,0,2-3.48,1.43-5.51Zm-9.3-.42h0c-.32-.15-1.18-.51-1.96-.8-.79-.3-1.89-.64-1.89-.64,2.04,.02,2.51,.03,2.6,.03h.02s.2,0,.62,0c.42,0,1.11,.01,2.23,.03l-.17,.1c-.57,.32-1.06,.76-1.45,1.28Z"/><path class="cls-5" d="M76.03,46.29s0-.03-.02-.04c0-.02-.02-.05-.03-.07,.02,.04,.04,.07,.05,.11Z"/><path class="cls-5" d="M84.54,74.01h-15.91l8.11-9.74,.26-.31v-10.05c1.6-1.54,2.51-3.65,2.51-5.89,0-2.1-.8-4.02-2.11-5.47h4.8l2.16,2.16h3.34c.03,.07,.08,.15,.13,.25,.47,.96,1.5,3.01,1.46,7.58-.08,8.52-4.76,11.24-4.74,21.47Z"/><path class="cls-5" d="M90.4,89.8h-28.23c-1.51,0-2.73,1.25-2.73,2.8h33.7c0-1.55-1.22-2.8-2.73-2.8Z"/><path class="cls-5" d="M89.88,84.76c0-1.07-.59-2.01-1.46-2.48h-.02c-2.29-1.3-3.89-4.32-3.89-7.12h-16.45c0,2.8-1.6,5.82-3.89,7.11h-.02c-.87,.48-1.46,1.41-1.46,2.49h27.18Z"/><path class="cls-5" d="M91.51,88.68c0-1.55-1.22-2.8-2.73-2.8h-24.98c-1.51,0-2.73,1.25-2.73,2.8h30.44Z"/><polygon class="cls-5" points="65.75 50.71 65.75 53.87 62.1 58.7 62.52 55.35 62.52 55.35 65.75 50.71"/><path class="cls-5" d="M70.74,46.46c0,.25-.2,.45-.45,.45s-.45-.2-.45-.45,.2-.45,.45-.45,.45,.2,.45,.45Z"/><path class="cls-5" d="M75.31,48.01v.02c0,1.67-1.06,3.18-2.63,3.74l-.37,.13v15.93l-4.13,4.95-9.4,11.97,.87-6.83,7.61-9.83c.14,.04,.3,.07,.46,.07,.03,0,.06,0,.09,0,.04,0,.07,0,.11,0,.02,0,.04,0,.06,0,.03,0,.06,0,.08-.02,.04,0,.08-.02,.12-.03h0s.08-.03,.11-.04h.03s.06-.04,.09-.06c.05-.02,.09-.05,.14-.08,.03-.02,.06-.04,.09-.07h0s.06-.05,.09-.08h0l.02-.02s.06-.05,.08-.08c.03-.03,.06-.06,.09-.1,.02-.03,.05-.06,.07-.09,.02-.03,.04-.06,.06-.08,.01-.02,.03-.04,.04-.07,.01-.02,.02-.05,.04-.07,.01-.02,.02-.05,.03-.07,0-.02,.02-.05,.03-.07,0-.02,.01-.03,.02-.05,0-.03,.02-.06,.02-.08,0-.01,0-.02,0-.04,0-.02,0-.03,.01-.05,0-.02,0-.04,.01-.06,0-.03,0-.06,.01-.09,0-.02,0-.04,0-.06,0-.03,0-.07,0-.1,0-.03,0-.06,0-.09h0s0-.05,0-.07c0-.03,0-.05,0-.08,0-.03,0-.05-.01-.08,0-.02,0-.05-.02-.07,0-.03-.01-.06-.02-.08,0-.02-.02-.05-.03-.07,0-.02-.02-.05-.03-.07,0-.02-.02-.04-.02-.06h0c-.02-.06-.04-.1-.07-.14-.08-.14-.19-.26-.3-.37-.01-.01-.03-.03-.05-.04-.02-.02-.04-.03-.06-.05-.02-.02-.04-.03-.06-.04-.03-.02-.06-.04-.09-.06-.03-.02-.06-.04-.09-.05h-.01s-.05-.03-.08-.04c-.03-.01-.07-.03-.1-.04-.02,0-.04-.01-.06-.02-.02,0-.04-.01-.06-.02-.02,0-.04,0-.07-.01-.03,0-.05,0-.08-.01-.05,0-.09-.01-.14-.01-.03,0-.06,0-.09,0-.87,0-1.57,.7-1.57,1.57,0,.3,.08,.58,.23,.82l-6.45,8.33,.8-6.32h0l6.54-8.6c.14,.04,.29,.06,.44,.06,.02,0,.04,0,.06,0,.02,0,.04,0,.06,0,.04,0,.08,0,.11-.01h0s.1-.02,.14-.03c.03,0,.05-.01,.08-.02,.02,0,.04-.01,.05-.02,.02,0,.04-.02,.07-.02,.03-.01,.06-.03,.09-.04,.02,0,.05-.02,.07-.03,.02-.01,.04-.03,.07-.04,.02-.01,.04-.03,.07-.04,.02-.01,.04-.03,.06-.04h0s.07-.06,.1-.09h0s.06-.07,.09-.09c.02-.02,.05-.05,.07-.08h0s.02-.03,.03-.05c.02-.03,.05-.06,.07-.09,.02-.04,.05-.07,.07-.11,.01-.02,.02-.04,.04-.07,.01-.02,.02-.05,.03-.07,.02-.04,.03-.08,.05-.12,.02-.06,.03-.11,.05-.17,0-.03,0-.05,.01-.08s0-.05,0-.08c0-.05,0-.11,0-.16,0-.04,0-.08,0-.13,0-.04,0-.08-.01-.11h0s0-.06-.01-.08c0-.03-.01-.06-.02-.09,0-.02,0-.04-.02-.06h0s-.02-.06-.02-.08c0-.02-.02-.05-.03-.07,0-.02-.02-.05-.03-.07,0-.02-.02-.05-.04-.07l-.03-.05s-.06-.1-.1-.14c-.03-.03-.05-.07-.08-.1l-.02-.02s-.03-.04-.05-.05c-.02-.02-.04-.04-.06-.05-.02-.02-.04-.03-.06-.05l-.06-.05s-.08-.06-.13-.08c-.02-.01-.04-.02-.06-.04-.06-.03-.13-.06-.19-.09-.02,0-.05-.02-.07-.02-.04-.01-.07-.02-.11-.03-.02,0-.04,0-.07-.01-.04,0-.07-.01-.11-.02-.04,0-.08,0-.11-.01-.03,0-.06,0-.09,0-.87,0-1.57,.7-1.57,1.57,0,.3,.09,.59,.24,.83l-5.37,7.06,.8-6.28,5.05-6.68v-5.14l.93-1.34,.52-.75h.51c.23,.59,.8,1.01,1.47,1.01s1.24-.42,1.47-1.01h2.34c.2,.52,.66,.9,1.22,.99Z"/><path class="cls-5" d="M78.38,48.03c0,2.16-.98,4.1-2.51,5.39v10.14l-2.44,2.93v-13.82c1.81-.82,3-2.63,3-4.64,0-.08,0-.17,0-.25,.28-.18,.49-.44,.61-.76h1.28c.05,.33,.07,.67,.07,1.01Z"/><path class="cls-5" d="M70.74,46.46c0,.25-.2,.45-.45,.45s-.45-.2-.45-.45,.2-.45,.45-.45,.45,.2,.45,.45Z"/><path class="cls-5" d="M70.74,46.46c0,.25-.2,.45-.45,.45s-.45-.2-.45-.45,.2-.45,.45-.45,.45,.2,.45,.45Z"/><polygon class="cls-5" points="58.59 77.48 58.58 77.53 58.56 77.52 58.59 77.48"/><path class="cls-5" d="M78.06,45.9h-1.02c-.23-.59-.8-1.01-1.47-1.01s-1.24,.42-1.47,1.01h-2.34c-.23-.59-.8-1.01-1.47-1.01s-1.24,.42-1.47,1.01h-1.09l-4.9,7.05,.7-5.48h0v-.02l.02-.02v-.02l.04-.05s.02-.04,.03-.06c.36-.62,1.69-2.92,1.78-3.05h0c1.06-1.67,2.8-2.87,4.83-3.19,.36-.06,.74-.09,1.12-.09,.09,0,.19,0,.28,0h0c.09,0,.18,0,.27,.02h.02c.08,0,.15,.02,.23,.02,.02,0,.04,0,.06,0,.07,0,.14,.02,.21,.03,.03,0,.05,0,.08,.01,.01,0,.02,0,.04,0,.06,0,.12,.02,.17,.03,0,0,.02,0,.03,0,.06,.01,.12,.02,.18,.04l.07,.02h0c.05,.01,.1,.03,.15,.04,.04,0,.07,.02,.11,.03,.09,.02,.17,.05,.26,.08,.07,.02,.14,.05,.21,.07h.01l.04,.02c.08,.03,.16,.06,.25,.1,.08,.03,.16,.07,.24,.11,.06,.02,.11,.05,.16,.08,.03,.01,.05,.03,.08,.04,.08,.04,.15,.08,.23,.12,.08,.04,.16,.09,.24,.14,.08,.05,.16,.1,.23,.15,.06,.04,.13,.08,.19,.13l.02,.02h.02s.1,.08,.14,.12c.04,.03,.08,.06,.13,.1,.04,.03,.07,.06,.11,.09,.04,.03,.08,.06,.11,.1,.02,.01,.03,.03,.05,.04,.04,.03,.08,.07,.12,.11h0c.06,.06,.12,.12,.18,.17,.06,.06,.12,.12,.18,.19,0,0,.02,.02,.03,.03h0c.06,.07,.12,.14,.18,.2,.06,.07,.12,.14,.17,.21,.03,.04,.06,.07,.09,.11,.03,.04,.06,.08,.08,.11s.06,.08,.08,.12c.03,.04,.05,.08,.08,.12,.03,.04,.05,.08,.08,.11,.03,.04,.05,.08,.08,.12,.05,.08,.1,.16,.14,.24,.04,.08,.09,.16,.13,.24v.02h.01c.03,.06,.06,.12,.08,.18,0,.02,.02,.04,.03,.06v.02c.03,.05,.06,.1,.08,.16,.02,.05,.05,.11,.07,.16,.02,.05,.04,.11,.06,.16,.01,.04,.03,.07,.04,.11,.03,.07,.05,.14,.07,.22Z"/><path class="cls-5" d="M76.02,46.46c0,.25-.2,.45-.45,.45-.19,0-.36-.12-.42-.29-.02-.05-.03-.11-.03-.17,0-.25,.2-.45,.45-.45,.2,0,.37,.13,.43,.3,.02,.05,.03,.1,.03,.15Z"/><path class="cls-5" d="M68.18,59.32s0,.03,0,.05c0,.01,0,.03,0,.04,0,0,0,.02,0,.02,0,.01,0,.02,0,.03h0s0,.02-.01,.03c0,.02-.02,.04-.03,.06,0,0-.01,.02-.02,.03,0,.01-.02,.02-.03,.03h-.01s-.04,.05-.07,.07c-.02,0-.03,.02-.05,.03-.02,0-.03,.02-.05,.02-.01,0-.03,0-.04,.01,0,0-.02,0-.03,0-.01,0-.03,0-.04,0-.02,0-.03,0-.05,0-.25,0-.45-.2-.45-.45,0-.02,0-.03,0-.05,0-.01,0-.03,0-.04,0,0,0-.02,0-.02,0-.01,0-.02,0-.03h0s0-.02,.01-.03c0-.02,.02-.04,.03-.06,0,0,.01-.02,.02-.03,0-.01,.02-.02,.03-.03h.01s.04-.05,.07-.07c.02,0,.03-.02,.05-.03,.01,0,.03-.01,.05-.02h0s.03,0,.04-.01c0,0,.02,0,.02,0,.01,0,.03,0,.04,0,.02,0,.03,0,.05,0,.02,0,.03,0,.05,0,.01,0,.02,0,.03,0,.01,0,.03,0,.04,0,.02,0,.03,0,.05,.02,.02,0,.03,.01,.04,.02,0,0,.02,.01,.03,.02,.02,.01,.05,.03,.07,.05,.01,.01,.03,.02,.04,.04,.04,.04,.06,.09,.08,.14,0,0,0,.02,0,.03,.01,.04,.02,.08,.02,.12Z"/><path class="cls-5" d="M68.18,66.6c0,.1-.04,.2-.09,.28-.02,.02-.04,.05-.06,.06,0,0-.02,.02-.03,.03l-.02,.02s-.02,.01-.03,.02c-.06,.04-.14,.05-.21,.05-.25,0-.45-.2-.45-.45,0-.1,.04-.2,.09-.28,.08-.11,.21-.18,.36-.18,.25,0,.45,.2,.45,.45Z"/></g></g><path class="cls-6" d="M88.03,62.83c-.05,.13-.13,.25-.2,.36v.11c0,.06-.02,.12-.05,.17l-.05,.07s-.04,.04-.07,.05c-.16,.66-.36,1.31-.67,1.95-.02,.04-.03,.07-.05,.1-.01,.1-.03,.2-.06,.3-.15,.56-.23,1.14-.44,1.67,4.49,3.14,7.14,6.97,7.14,11.1,0,9.55-14.11,17.49-32.67,19.09-2.24,.19-4.54,.29-6.89,.29-5.12,0-10.01-.48-14.5-1.34-5.86-1.13-11.04-2.93-15.15-5.21-2.88-1.6-5.24-3.43-6.93-5.43,.83,4.15,2.09,8.15,3.74,11.94,.65,1.49,1.35,2.94,2.12,4.37,.53,.99,1.09,1.96,1.67,2.92,.43,.71,.87,1.4,1.33,2.08,4.7,1.36,9.85,2.38,15.31,3.01,4.05,.47,8.27,.71,12.61,.71,30.43,0,55.1-12.09,55.1-27,0-8.67-8.34-16.37-21.3-21.31Z"/><g><g><path class="cls-10" d="M113.93,72.57s.08,.09,.09,.14l2.72,6.53c.05,.11,.01,.18-.08,.19l-3.08-.04c-.1,0-.23-.1-.3-.22l-2.17-4.03c-.05-.08-.05-.16,0-.2l2.54-2.46s.11-.03,.2,.01c.04,.02,.07,.04,.09,.07Z"/><path class="cls-10" d="M116.92,79.65c-.07,.05-.15,.08-.25,.08l-3.1-.04c-.25,0-.47-.2-.57-.39l-2.17-4.03c-.11-.21-.1-.43,.05-.57l2.54-2.46c.14-.14,.37-.15,.58-.03,.05,.03,.1,.07,.16,.12h0c.05,.05,.12,.14,.16,.25l2.72,6.52c.07,.15,.06,.31-.02,.44-.03,.04-.06,.08-.1,.1Zm-3.31-.58l2.74,.03-2.62-6.27-2.3,2.23,2.13,3.95s.04,.04,.05,.06Zm0,0h0Zm-.04,0h0Z"/></g><polygon class="cls-11" points="116.27 78.98 113.8 73.07 111.53 75.26 113.52 78.94 116.27 78.98"/><g><path class="cls-10" d="M113.93,72.57s.03,.03,.04,.05c.07,.1,.09,.2,.04,.25l-2.54,2.46s-.1,.03-.17,0l-4.28-2.02c-.1-.05-.19-.14-.22-.24s0-.17,.07-.17l6.82-.44c.07-.01,.16,.04,.23,.11Z"/><path class="cls-10" d="M111.65,75.58c-.12,.09-.3,.11-.47,.03l-4.3-2.02c-.17-.08-.32-.24-.38-.42-.05-.15-.04-.3,.04-.42,.07-.11,.19-.17,.32-.17l6.8-.44c.16-.02,.34,.05,.49,.2,.02,.02,.05,.05,.08,.09,.16,.22,.17,.49,0,.65l-2.54,2.46s-.03,.02-.04,.03Zm-.4-.49h0Zm-3.78-1.92l3.88,1.82,2.3-2.23-6.17,.4Zm-.58,.04h0Z"/></g><polygon class="cls-12" points="111.16 74.88 113.15 72.94 107.77 73.29 111.16 74.88"/><g><path class="cls-10" d="M111.4,75.03s.06,.06,.07,.1l2.17,4.03c.05,.09,.04,.17,0,.21l-7.16,4.54c-.06,.03-.15,0-.25-.07-.09-.07-.15-.19-.14-.26l.7-10.59c0-.09,.09-.12,.2-.06l4.28,2.02s.09,.05,.13,.09Z"/><path class="cls-10" d="M113.83,79.62h0l-7.18,4.56c-.19,.11-.42,.07-.62-.1-.13-.11-.28-.32-.25-.54l.7-10.57c0-.14,.08-.26,.2-.33,.08-.04,.23-.1,.45,0l4.28,2.01c.09,.04,.16,.09,.22,.16h0c.06,.06,.1,.12,.13,.18l2.17,4.01c.14,.27,.06,.5-.09,.61Zm-7.42,3.96l6.9-4.38-2.12-3.92,.2-.25-.23,.22s-.02-.02-.04-.03l-4.05-1.91-.67,10.25h0Zm.69-10.56h0Z"/></g><polygon class="cls-11" points="113.2 79.01 111.18 75.27 107.21 73.4 106.56 83.23 113.2 79.01"/><g><g><path class="cls-10" d="M116.65,79.1l.03,.03c.07,.08,.1,.18,.08,.24l-1.33,3.27s-.04,.05-.07,.05l-8.92,1.23c-.08,.01-.2-.06-.28-.17-.08-.11-.09-.21-.03-.26l7.16-4.54s.04-.02,.06-.02l3.08,.04c.07,0,.15,.05,.22,.12Z"/><path class="cls-10" d="M115.6,82.92c-.06,.04-.13,.07-.21,.08l-8.91,1.23c-.22,.04-.45-.12-.58-.29-.11-.14-.15-.3-.12-.44,.02-.11,.08-.21,.18-.27l7.15-4.54c.06-.05,.14-.07,.23-.07l3.1,.04c.17,0,.31,.08,.44,.21h0l-.23,.22,.24-.21,.03,.03c.16,.19,.2,.4,.12,.58l-1.32,3.25c-.02,.06-.06,.12-.12,.16Zm-.46-.41s0,.02-.01,.03v-.03Zm.18-.13h0Zm-8.72,1.21l8.61-1.19,1.25-3.09h-.01s-.02,0-.03-.01l-3-.04-6.82,4.33Zm9.87-4.29s0,.01,0,.02l.2-.22-.2,.2Zm.01-.05v0Zm-10.08,4.36h0Z"/></g><polygon class="cls-12" points="115.03 82.26 116.18 79.41 113.61 79.38 107.42 83.31 115.03 82.26"/></g></g><g><g><path class="cls-10" d="M110.02,94.8s.07,.08,.08,.13l1.79,7.14c.03,.12-.03,.24-.15,.29l-3.84,1.54c-.12,.05-.26-.01-.32-.14l-1.72-4.15c-.04-.09-.02-.18,.04-.25l3.78-4.53c.06-.07,.15-.1,.24-.08,.04,0,.07,.02,.1,.05Z"/><path class="cls-10" d="M107.81,104.28c-.24,0-.47-.14-.56-.38l-1.72-4.15c-.09-.2-.06-.45,.09-.63l3.78-4.53c.15-.18,.38-.26,.6-.2,.07,.01,.17,.05,.25,.12h0c.11,.09,.18,.22,.21,.35l1.78,7.11c.07,.29-.07,.59-.36,.71l-3.86,1.55c-.07,.03-.15,.04-.22,.04Zm-.05-.72h0Zm-1.53-4.02l1.65,3.97,3.64-1.46-1.7-6.8-3.58,4.29Zm5.31,2.62h0Zm-5.34-2.69h0Zm3.55-4.45h0Z"/></g><polygon class="cls-11" points="111.37 101.97 109.74 95.51 106.37 99.56 107.94 103.34 111.37 101.97"/><g><path class="cls-10" d="M110.02,94.8s.03,.02,.04,.04c.07,.09,.06,.22,0,.3l-3.78,4.53c-.05,.06-.13,.09-.21,.09l-4.85-.43c-.11,0-.2-.09-.22-.2s.03-.22,.14-.26l8.64-4.1c.09-.05,.19-.03,.26,.03Z"/><path class="cls-10" d="M106.07,100.12h-.02l-4.87-.43c-.27-.02-.49-.23-.54-.5-.05-.28,.09-.55,.35-.66l8.62-4.1c.19-.11,.45-.09,.65,.07h0l-.24,.28,.24-.27s.07,.06,.11,.12c.15,.21,.14,.52-.04,.73l-3.78,4.53c-.12,.14-.29,.22-.48,.22Zm-.08-.69h0Zm-4.3-.43l4.34,.38,3.38-4.05-7.72,3.67Zm-.4,.19h0Zm8.66-4.11h-.02s.02,0,.02,0Z"/></g><polygon class="cls-12" points="105.99 99.26 108.96 95.68 102.15 98.92 105.99 99.26"/><g><path class="cls-10" d="M106.25,99.32s.05,.05,.07,.09l1.72,4.15c.04,.1,.01,.2-.05,.27l-10.07,9.64c-.08,.07-.2,.09-.29,.04-.09-.05-.14-.17-.11-.27l3.49-14.22c.03-.12,.14-.2,.26-.18l4.85,.43c.05,0,.1,.02,.14,.05Z"/><path class="cls-10" d="M97.74,113.91c-.1,0-.2-.03-.3-.08-.24-.13-.37-.42-.29-.69l3.49-14.2c.07-.3,.35-.49,.66-.46l4.85,.43c.14,.01,.25,.06,.34,.13h0c.09,.07,.14,.15,.18,.25l1.71,4.13c.09,.23,.04,.49-.13,.67l-10.08,9.65c-.12,.11-.27,.17-.43,.17Zm.12-.59h0Zm3.46-14.1l-3.37,13.71,9.71-9.3-1.66-4-4.69-.41Zm4.66,.34h0Zm-4.76-.35h0Zm.13-.1h0Z"/></g><polygon class="cls-11" points="107.52 103.6 105.92 99.75 101.42 99.35 98.18 112.55 107.52 103.6"/><g><g><path class="cls-10" d="M111.81,101.93l.03,.02c.07,.07,.09,.18,.03,.28l-2.47,4.97s-.06,.08-.1,.1l-11.44,6.21c-.1,.06-.24,.03-.31-.07-.07-.1-.06-.23,.03-.32l10.07-9.64s.05-.04,.08-.05l3.84-1.54c.09-.03,.18-.02,.25,.04Z"/><path class="cls-10" d="M97.74,113.91c-.19,0-.37-.09-.49-.25-.18-.24-.15-.59,.07-.8l10.06-9.63c.05-.05,.11-.1,.19-.13l3.85-1.55c.22-.08,.44-.04,.62,.1l.03,.02,.04,.03c.17,.19,.21,.47,.08,.69l-2.46,4.95c-.03,.07-.11,.19-.27,.27l-11.44,6.21c-.09,.05-.19,.08-.29,.08Zm-.06-.72h0Zm10.2-9.43l-9.4,9,10.62-5.77,2.31-4.65-3.53,1.42Zm1.2,3.27v0Zm.05-.05h0Zm2.42-4.91h0Z"/></g><polygon class="cls-12" points="109 106.91 111.15 102.58 107.95 103.87 99.23 112.21 109 106.91"/></g></g><g><g><polygon class="cls-10" points="70.15 118.44 67.99 123.2 59.21 120.57 65.1 116.08 70.15 118.44"/><polygon class="cls-10" points="71.48 118.27 71.23 118.83 69.32 123.02 69.31 123.03 71.22 118.83 71.46 118.29 71.46 118.28 71.48 118.27"/><path class="cls-10" d="M64.26,115.23l-.02-.41-4.76,3.63-.43,.81,5.22-3.97v-.07Zm1.5-.54l-.39-.18h0l.02,.44h0l.39,.19h0l4.92,2.3,.31-.29-5.24-2.45Zm6.14,3.17l-.42,.4h-.01v.02l-.25,.54-1.91,4.2h.01l.54-.24,1.94-4.27,.06-.13c.08-.17,.09-.35,.04-.51Zm-14.66,2.41s.03-.06,.05-.09l.02-.03s-.05,.08-.07,.12Z"/></g><polygon class="cls-12" points="70.15 118.44 67.99 123.2 59.21 120.57 65.1 116.08 70.15 118.44"/><g><path class="cls-10" d="M64.27,115.3l-5.22,3.97,.43-.81,4.55-8.57,.21,4.94,.02,.41v.07Z"/><path class="cls-10" d="M65.77,114.7l-.29-6.63-.38,.08,.27,6.37h0l.02,.44h0l.39,.19-.02-.44Zm-8.58,5.95s0,.03,0,.05c0,.03,0,.06,.01,.08,0-.04-.02-.09-.02-.13Z"/><path class="cls-10" d="M87.11,103.37h0s-.02-.07-.03-.1c0-.02-.02-.04-.03-.06h0s-.02-.05-.03-.06c0-.01-.02-.03-.03-.04l-.04-.06c-.04-.05-.1-.1-.15-.14l-.03-.02s-.02-.02-.03-.02c-.02-.01-.04-.02-.07-.03-.03-.01-.06-.02-.09-.03-.01,0-.02,0-.04,0-.02,0-.03,0-.05,0-.01,0-.03,0-.04,0h-.03s-.03,0-.05,0c-.03,0-.05,0-.08,0-.02,0-.04,0-.07,.01l-.12,.02h0l-21.47,4.27h-.07s-.05,.03-.08,.03c-.01,0-.03,0-.04,0-.03,0-.05,.02-.08,.03-.02,0-.04,.02-.07,.03-.03,.01-.05,.03-.07,.05-.02,.01-.04,.03-.06,.05-.02,.02-.03,.03-.04,.05-.01,.01-.02,.03-.03,.04h0v.02s-.03,.03-.03,.04c0,.01-.02,.03-.02,.04l-.06,.11-6.67,12.57-.02,.03s-.03,.06-.05,.09h0s-.02,.05-.02,.07c0,.02-.01,.03-.02,.05,0,.03-.01,.06-.02,.08,0,.03,0,.06,0,.08,0,.03,0,.05,0,.07,0,.02,0,.03,0,.05,0,.03,0,.06,.01,.08,0,.03,.02,.07,.03,.1,.01,.03,.03,.06,.04,.09,.02,.03,.03,.05,.05,.07,.03,.03,.06,.07,.09,.1,.01,0,.02,.02,.03,.03,.02,.02,.04,.03,.07,.05,.05,.04,.11,.07,.17,.08,.01,0,.02,0,.03,0l10.55,3.15,.09,.03h0c.1,.03,.21,.04,.31,.03,.03,0,.06,0,.09-.02l.06-.02s.04-.02,.06-.03l.04-.02,7.6-3.36c.15-.06,.28-.17,.36-.32l10.1-16.77,.03-.06s.03-.04,.03-.07c0-.01,.01-.03,.02-.04,.01-.02,.02-.04,.03-.07,0-.03,.02-.05,.02-.08,.02-.1,.02-.2,0-.31Zm-21.63,4.7l18.99-3.78-13.46,12.86-.31,.29-4.92-2.3h0l-.39-.19h0l-.02-.45h0l-.27-6.36,.38-.08Zm-6,10.39l4.55-8.57,.21,4.94,.02,.41v.07l-5.21,3.97,.43-.81Zm8.51,4.74l-8.78-2.62,5.9-4.49,5.05,2.36-2.16,4.76Zm8-3.12l-6.12,2.71-.54,.24h-.01l1.91-4.2,.24-.54h.01v-.02h0l.42-.41h0l12.72-12.16h0l-.77,1.29-7.87,13.08Z"/></g><path class="cls-11" d="M64.27,115.3l-5.22,3.97,.43-.81,4.55-8.57,.21,4.94,.02,.41v.07Z"/><g><polygon class="cls-10" points="84.47 104.29 71.01 117.15 70.7 117.44 65.78 115.14 65.78 115.14 65.39 114.95 65.38 114.95 65.36 114.51 65.37 114.51 65.1 108.15 65.48 108.07 84.47 104.29"/><polygon class="cls-10" points="71.48 118.27 71.46 118.29 71.46 118.28 71.48 118.27"/><polygon class="cls-10" points="71.9 117.87 71.48 118.27 71.48 118.27 71.9 117.87"/><polygon class="cls-10" points="84.63 105.71 84.62 105.71 84.62 105.71 71.9 117.87 71.9 117.86 84.63 105.71"/><path class="cls-10" d="M63.98,107.59l.06-.11s.01-.03,.02-.04c-.03,.05-.06,.1-.08,.15Zm7.92,10.28h0l-.42,.41h-.01v.02l-.25,.54h0c.16-.02,.32-.09,.46-.2l.12-.11,12.05-11.51,.77-1.28h0l-12.72,12.15Z"/></g><polygon class="cls-12" points="84.47 104.29 71.01 117.15 70.7 117.44 65.78 115.14 65.39 114.95 65.37 114.51 65.1 108.15 65.48 108.07 84.47 104.29"/><g><g><polygon class="cls-10" points="84.63 105.71 84.62 105.71 84.62 105.71 83.85 106.99 75.98 120.08 69.86 122.78 69.32 123.02 69.31 123.03 71.22 118.83 71.46 118.29 71.46 118.28 71.48 118.27 71.48 118.27 71.48 118.27 71.9 117.87 71.9 117.86 84.63 105.71"/><path class="cls-10" d="M68.36,124.49h0l-.09-.03s.06,.02,.09,.03c.1,.03,.21,.04,.31,.02-.1,.01-.21,0-.31-.03Zm18.75-21.12c.02,.1,.02,.21,0,.31,.02-.1,.02-.21,0-.31Zm-.26-.43s-.03-.02-.05-.03c.06,.04,.11,.09,.15,.14-.03-.04-.07-.08-.1-.11Zm-.63-.14s.05-.01,.07-.01c-.06,0-.12,.01-.18,.04l.12-.02Z"/></g><polygon class="cls-11" points="84.63 105.71 84.62 105.71 84.62 105.71 83.85 106.99 75.98 120.08 69.86 122.78 69.32 123.02 69.31 123.03 71.22 118.83 71.46 118.29 71.46 118.28 71.48 118.27 71.48 118.27 71.48 118.27 71.9 117.87 71.9 117.86 84.63 105.71"/></g></g><path class="cls-5" d="M45.78,107.86l1.04,1.67c.23,.37,.56,.67,.96,.86l1.77,.84c.18,.08,.19,.33,.02,.44l-1.67,1.04c-.37,.23-.67,.56-.86,.96l-.84,1.77c-.08,.18-.33,.19-.44,.02l-1.04-1.67c-.23-.37-.56-.67-.96-.86l-1.77-.84c-.18-.08-.19-.33-.02-.44l1.67-1.04c.37-.23,.67-.56,.86-.96l.84-1.77c.08-.18,.33-.19,.44-.02Z"/><path class="cls-5" d="M89.17,124.61l.8,1.28c.18,.29,.43,.51,.74,.66l1.36,.65c.14,.06,.15,.25,.02,.33l-1.28,.8c-.29,.18-.51,.43-.66,.74l-.65,1.36c-.06,.14-.25,.15-.33,.02l-.8-1.28c-.18-.29-.43-.51-.74-.66l-1.36-.65c-.14-.06-.15-.25-.02-.33l1.28-.8c.29-.18,.51-.43,.66-.74l.65-1.36c.06-.14,.25-.15,.33-.02Z"/><path class="cls-5" d="M55.99,103.37l.52,.83c.11,.18,.28,.33,.48,.43l.88,.42c.09,.04,.1,.17,.01,.22l-.83,.52c-.18,.11-.33,.28-.43,.48l-.42,.88c-.04,.09-.17,.1-.22,.01l-.52-.83c-.11-.18-.28-.33-.48-.43l-.88-.42c-.09-.04-.1-.17-.01-.22l.83-.52c.18-.11,.33-.28,.43-.48l.42-.88c.04-.09,.17-.1,.22-.01Z"/><path class="cls-5" d="M102.64,112.9l.46,.75c.1,.17,.25,.3,.43,.38l.79,.38c.08,.04,.09,.15,.01,.19l-.75,.46c-.17,.1-.3,.25-.38,.43l-.38,.79c-.04,.08-.15,.09-.19,.01l-.46-.75c-.1-.17-.25-.3-.43-.38l-.79-.38c-.08-.04-.09-.15-.01-.19l.75-.46c.17-.1,.3-.25,.38-.43l.38-.79c.04-.08,.15-.09,.19-.01Z"/><path class="cls-5" d="M94.12,105.3l.3,.48c.07,.11,.16,.19,.28,.25l.51,.24c.05,.02,.06,.1,0,.13l-.48,.3c-.11,.07-.19,.16-.25,.28l-.24,.51c-.02,.05-.1,.06-.13,0l-.3-.48c-.07-.11-.16-.19-.28-.25l-.51-.24c-.05-.02-.06-.1,0-.13l.48-.3c.11-.07,.19-.16,.25-.28l.24-.51c.02-.05,.1-.06,.13,0Z"/><path class="cls-5" d="M120.9,79.06l.3,.48c.07,.11,.16,.19,.28,.25l.51,.24c.05,.02,.06,.1,0,.13l-.48,.3c-.11,.07-.19,.16-.25,.28l-.24,.51c-.02,.05-.1,.06-.13,0l-.3-.48c-.07-.11-.16-.19-.28-.25l-.51-.24c-.05-.02-.06-.1,0-.13l.48-.3c.11-.07,.19-.16,.25-.28l.24-.51c.02-.05,.1-.06,.13,0Z"/><path class="cls-5" d="M113.58,94.24l.3,.48c.07,.11,.16,.19,.28,.25l.51,.24c.05,.02,.06,.1,0,.13l-.48,.3c-.11,.07-.19,.16-.25,.28l-.24,.51c-.02,.05-.1,.06-.13,0l-.3-.48c-.07-.11-.16-.19-.28-.25l-.51-.24c-.05-.02-.06-.1,0-.13l.48-.3c.11-.07,.19-.16,.25-.28l.24-.51c.02-.05,.1-.06,.13,0Z"/><path class="cls-5" d="M104.27,72.12l.19,.31c.04,.07,.11,.13,.18,.16l.33,.16s.04,.06,0,.08l-.31,.19c-.07,.04-.13,.11-.16,.18l-.16,.33s-.06,.04-.08,0l-.19-.31c-.04-.07-.11-.13-.18-.16l-.33-.16s-.04-.06,0-.08l.31-.19c.07-.04,.13-.11,.16-.18l.16-.33s.06-.04,.08,0Z"/><path class="cls-5" d="M106.83,69.92l.13,.2s.07,.08,.12,.1l.22,.1s.02,.04,0,.05l-.2,.13s-.08,.07-.1,.12l-.1,.22s-.04,.02-.05,0l-.13-.2s-.07-.08-.12-.1l-.22-.1s-.02-.04,0-.05l.2-.13s.08-.07,.1-.12l.1-.22s.04-.02,.05,0Z"/><path class="cls-5" d="M97.6,80.17l.21,.34c.05,.08,.12,.14,.2,.18l.36,.17s.04,.07,0,.09l-.34,.21c-.08,.05-.14,.12-.18,.2l-.17,.36s-.07,.04-.09,0l-.21-.34c-.05-.08-.12-.14-.2-.18l-.36-.17s-.04-.07,0-.09l.34-.21c.08-.05,.14-.12,.18-.2l.17-.36s.07-.04,.09,0Z"/><path class="cls-5" d="M97.98,63.82l.13,.2s.07,.08,.12,.1l.22,.1s.02,.04,0,.05l-.2,.13s-.08,.07-.1,.12l-.1,.22s-.04,.02-.05,0l-.13-.2s-.07-.08-.12-.1l-.22-.1s-.02-.04,0-.05l.2-.13s.08-.07,.1-.12l.1-.22s.04-.02,.05,0Z"/><g><path class="cls-3" d="M17.77,46.3l1.7,.85-.54,1.09-4.69-2.34,1.97-3.94c.55-1.09,1.21-1.28,1.89-.94l.73,.36c.67,.34,.93,.98,.38,2.07l-1.42,2.85Zm-.21-4.19c-.18-.09-.36-.05-.47,.17l-1.47,2.95,1.29,.65,1.48-2.96c.11-.21,.06-.36-.12-.45l-.71-.36Z"/><path class="cls-3" d="M26.1,36.08l-2.58-.39-1.44,2.05,1.91,1.34-.7,.99-4.29-3.02,2.63-3.73c.7-1,1.4-1.09,2.01-.65l.31,.22c.51,.36,.75,.89,.31,1.73l2.6,.39-.75,1.07Zm-3.18-2.42c-.17-.12-.34-.04-.52,.21l-1.93,2.73,.83,.59,1.93-2.73c.18-.26,.22-.42,.01-.56l-.33-.23Z"/><path class="cls-3" d="M29,32.45l-3.8-3.62,3.81-4,.68,.65-2.98,3.12,.76,.72,2.82-2.96,.69,.66-2.82,2.96,.97,.93,2.98-3.12,.69,.66-3.81,4Z"/><path class="cls-3" d="M35.32,26.17l-.58-.75,3.69-2.86c.27-.21,.34-.34,.18-.54l-.46-.59c-.15-.19-.31-.17-.57,.04l-2.48,1.92c-.97,.75-1.66,.64-2.12,.04l-.22-.28c-.47-.6-.41-1.29,.56-2.05l3.59-2.78,.58,.75-3.59,2.78c-.25,.2-.33,.36-.19,.55l.23,.29c.14,.18,.31,.17,.58-.04l2.48-1.92c.97-.75,1.66-.64,2.12-.04l.45,.58c.47,.6,.41,1.3-.56,2.05l-3.69,2.86Z"/><path class="cls-3" d="M43.21,20.49l-2.71-4.49,1.04-.63,2.71,4.49-1.04,.63Z"/><path class="cls-3" d="M47.29,18.08l-2.14-4.79,4.49-2.01c1.39-.62,2.02-.34,2.44,.6l.9,2.01c.4,.9,.19,1.56-1.2,2.18l-4.49,2.01Zm3.68-5.7c-.21-.47-.39-.49-.94-.24l-3.39,1.52,1.37,3.05,3.39-1.52c.55-.25,.66-.39,.47-.82l-.89-1.99Z"/><path class="cls-3" d="M56.82,14.16l-1.38-5.06,5.34-1.45,.25,.91-4.16,1.13,.28,1.01,3.94-1.07,.25,.92-3.94,1.07,.35,1.29,4.16-1.13,.25,.92-5.34,1.45Z"/><path class="cls-3" d="M71.88,11.34l-5.84-3.21,.41,3.8-1.05,.11-.57-5.21,1.04-.11,5.36,3.03-.39-3.57,1.06-.12,.57,5.21-.59,.06Z"/><path class="cls-3" d="M78.3,11.34l.22-4.29-2.7-.14,.05-.95,6.56,.33-.05,.95-2.64-.13-.22,4.29-1.22-.06Z"/><path class="cls-3" d="M85.89,8.34l.25-1.49,1.23,.2-.07,.41-.94,.96-.47-.08Z"/><path class="cls-3" d="M89.84,12.83l.26-.92,4.48,1.28c.33,.09,.47,.07,.54-.17l.21-.72c.07-.23-.05-.35-.37-.44l-3.02-.86c-1.18-.34-1.49-.96-1.28-1.69l.1-.34c.21-.73,.8-1.1,1.98-.76l4.36,1.25-.26,.91-4.36-1.25c-.31-.09-.49-.05-.55,.17l-.1,.36c-.06,.21,.05,.35,.38,.44l3.02,.86c1.18,.34,1.49,.96,1.28,1.69l-.2,.7c-.21,.73-.8,1.1-1.99,.77l-4.48-1.28Z"/><path class="cls-3" d="M106.16,19.26c-1.05-.62-1.19-1.3-.8-1.95l1.38-2.33c.38-.65,1.04-.85,2.09-.23l3.72,2.21-.48,.81-3.72-2.21c-.26-.16-.45-.16-.56,.02l-1.39,2.35c-.11,.19-.01,.35,.25,.5l3.72,2.21-.49,.82-3.72-2.21Z"/><path class="cls-3" d="M120.18,22.81l.94,.77-2.53,3.07c-.48,.58-1.16,.68-2.1-.1l-2.58-2.13c-.94-.78-.97-1.47-.49-2.05l2.53-3.07,.94,.77-2.54,3.07c-.14,.17-.07,.34,.17,.53l2.58,2.13c.24,.19,.42,.23,.56,.06l2.54-3.07Z"/><path class="cls-3" d="M122.43,29.68l-1.42,1.26-.8-.91,3.93-3.48,2.92,3.3c.81,.91,.73,1.6,.17,2.1l-.61,.54c-.56,.5-1.25,.49-2.06-.42l-2.11-2.39Zm3.96,1.38c.15-.13,.18-.32,.02-.5l-2.19-2.47-1.08,.96,2.19,2.48c.16,.18,.32,.19,.46,.06l.6-.53Z"/><path class="cls-3" d="M129.55,42.54l4.58-2.56,.59,1.06-4.58,2.56-.59-1.06Z"/><path class="cls-3" d="M132.96,49.49l3.53-5.22,.52,1.28-2.71,3.91,4.65,.85,.51,1.25-6.17-1.23-.33-.82Z"/></g><g><path class="cls-3" d="M17.78,111.9c-.67-1.02-.49-1.69,.14-2.1l2.27-1.49c.63-.41,1.31-.31,1.98,.71l2.37,3.62-.79,.52-2.37-3.62c-.17-.26-.34-.34-.51-.23l-2.29,1.5c-.18,.12-.17,.3,0,.56l2.37,3.62-.8,.52-2.37-3.62Z"/><path class="cls-3" d="M30.29,119.44l.81,.9-2.95,2.67c-.56,.5-1.25,.51-2.07-.4l-2.24-2.48c-.82-.91-.75-1.59-.19-2.1l2.95-2.67,.81,.9-2.96,2.67c-.16,.14-.12,.33,.09,.55l2.24,2.48c.2,.23,.38,.29,.54,.14l2.96-2.67Z"/><path class="cls-3" d="M30.39,126.83l3.3-4.08,3.4,2.75c.93,.75,1.01,1.37,.57,1.92l-.3,.37c-.32,.39-.66,.43-.98,.33,.2,.27,.31,.6-.05,1.05l-.49,.61c-.37,.46-1,.65-2.03-.19l-3.41-2.76Zm4.95,1.63c.18-.22,.14-.4-.14-.62l-2.46-1.99-.81,1,2.47,1.99c.25,.21,.44,.22,.61,.01l.33-.41Zm1.28-1.7c.16-.2,.11-.33-.12-.52l-2.46-1.99-.69,.86,2.46,1.99c.27,.22,.39,.2,.57-.03l.25-.31Z"/><path class="cls-3" d="M38.66,133.08l2.67-4.52,4.76,2.81-.48,.81-3.72-2.19-.53,.9,3.52,2.08-.48,.82-3.52-2.08-.68,1.16,3.72,2.19-.48,.82-4.76-2.81Z"/><path class="cls-3" d="M59.42,142l-1.35-4.54-3.58,3.13-1.3-.37,4.79-4.09,.86,.24,1.91,5.99-1.32-.37Z"/><path class="cls-3" d="M64.32,143.03l.12-.95,4.63,.56c.34,.04,.48,0,.51-.25l.09-.75c.03-.24-.1-.34-.43-.38l-3.11-.38c-1.22-.15-1.62-.72-1.53-1.47l.04-.35c.09-.75,.62-1.21,1.84-1.06l4.5,.55-.11,.94-4.5-.55c-.32-.04-.49,.02-.52,.26l-.04,.37c-.03,.22,.1,.34,.44,.38l3.11,.38c1.22,.15,1.62,.72,1.53,1.47l-.09,.72c-.09,.75-.62,1.22-1.84,1.07l-4.63-.56Z"/><path class="cls-3" d="M76.47,143.9c-1.22,.04-1.7-.46-1.72-1.22l-.08-2.71c-.02-.75,.42-1.28,1.64-1.32l4.33-.13,.03,.95-4.33,.13c-.31,0-.47,.11-.46,.32l.08,2.73c0,.22,.17,.3,.48,.29l4.33-.13,.03,.95-4.33,.13Z"/><path class="cls-3" d="M84.96,143.32l-.91-5.16,5.44-.96,.16,.93-4.25,.75,.18,1.03,4.02-.71,.17,.94-4.02,.71,.23,1.32,4.25-.75,.17,.94-5.44,.96Z"/><path class="cls-3" d="M100.7,139.23l-6.41-1.84,1.24,3.61-1,.34-1.71-4.96,.99-.34,5.9,1.77-1.17-3.4,1.01-.35,1.71,4.96-.56,.19Z"/><path class="cls-3" d="M105.34,137.21l-.45-.84,4.11-2.21c.3-.16,.39-.28,.27-.5l-.36-.66c-.11-.21-.28-.21-.57-.06l-2.76,1.49c-1.08,.58-1.74,.35-2.1-.32l-.17-.31c-.36-.67-.19-1.34,.89-1.93l3.99-2.15,.45,.83-3.99,2.15c-.28,.15-.39,.3-.27,.51l.18,.33c.11,.2,.28,.21,.58,.05l2.76-1.49c1.08-.58,1.74-.35,2.1,.32l.35,.64c.36,.67,.19,1.35-.89,1.93l-4.11,2.21Z"/><path class="cls-3" d="M114.32,131.92l-3.01-4.3,.99-.7,3.01,4.3-1,.7Z"/><path class="cls-3" d="M119.97,127.62c-.91,.82-1.6,.74-2.1,.18l-1.81-2.02c-.5-.56-.5-1.25,.41-2.07l2.65-2.37c.91-.82,1.6-.74,2.1-.18l1.81,2.02c.5,.56,.5,1.25-.41,2.07l-2.65,2.37Zm.33-5.66c-.14-.16-.33-.12-.55,.09l-2.65,2.37c-.23,.2-.28,.39-.15,.54l1.83,2.04c.14,.16,.33,.12,.55-.09l2.65-2.37c.23-.2,.29-.38,.15-.54l-1.83-2.04Z"/><path class="cls-3" d="M130.95,115.83l-6.39,1.88,2.99,2.38-.66,.83-4.1-3.27,.66-.82,5.92-1.67-2.81-2.24,.66-.83,4.1,3.27-.37,.47Z"/></g><g class="cls-14"><path class="cls-13" d="M16.22,75.36c-.04-2.84,.71-5.61,.64-8.45-.01-.5,.08-.97,.24-1.41L.3,70.8c.22,.61,.37,1.24,.47,1.85,.26,1.61,.18,3.13,.03,4.74-.07,.72-.1,1.43-.1,2.15,0,.11,0,.21,.01,.27,.07,.34,.18,.67,.29,1.01,.23,.67,.23,1.36,.05,2.01,.07,.33,.12,.66,.16,.99l15.7-4.95c-.45-1.1-.68-2.33-.69-3.52Z"/></g><g class="cls-14"><path class="cls-13" d="M148.92,78.92c.24-4.44,.52-8.88,0-13.32l-13.95,4.4c.19,1.04,.16,2.13,.15,3.18,0,.71-.19,1.36-.5,1.93,.08,.5,.15,1,.15,1.5-.01,2.24,.04,4.77-.66,6.98l14.82-4.68Z"/></g><circle class="cls-2" cx="75.59" cy="74.44" r="59.27"/><path class="cls-9" d="M75,1.4c40.65,0,73.6,32.95,73.6,73.6s-32.95,73.6-73.6,73.6S1.4,115.65,1.4,75,34.35,1.4,75,1.4m0-1.4c-10.12,0-19.95,1.98-29.19,5.89-8.93,3.78-16.95,9.19-23.84,16.07-6.89,6.89-12.3,14.91-16.07,23.84C1.98,55.05,0,64.88,0,75s1.98,19.95,5.89,29.19c3.78,8.93,9.19,16.95,16.07,23.84,6.89,6.89,14.91,12.3,23.84,16.07,9.25,3.91,19.07,5.89,29.19,5.89s19.95-1.98,29.19-5.89c8.93-3.78,16.95-9.19,23.84-16.07s12.29-14.91,16.07-23.84c3.91-9.25,5.89-19.07,5.89-29.19s-1.98-19.95-5.89-29.19c-3.78-8.93-9.19-16.95-16.07-23.84-6.89-6.89-14.91-12.29-23.84-16.07C94.95,1.98,85.12,0,75,0h0Z"/></svg>