<svg 
 xmlns="http://www.w3.org/2000/svg"
 xmlns:xlink="http://www.w3.org/1999/xlink"
 width="1191px" height="143px">
<path fill-rule="evenodd"  fill="rgb(255, 255, 255)"
 d="M1188.865,23.175 C1189.363,23.359 1189.810,23.422 1189.752,19.170 C1189.883,18.173 1189.690,16.072 1189.377,13.363 C1189.213,11.965 1189.031,10.408 1188.838,8.760 C1188.628,6.218 1188.407,3.536 1188.182,0.817 C1182.994,1.013 1177.712,1.213 1172.699,1.402 C1169.184,1.497 1165.853,1.515 1162.971,1.404 C1166.047,1.682 1169.100,1.960 1162.077,2.401 C1151.303,2.795 1132.896,1.784 1123.199,3.141 C1121.825,3.079 1121.305,2.999 1121.245,2.912 C1118.175,3.095 1113.670,3.301 1108.972,3.525 C1108.591,3.453 1107.429,3.396 1104.966,3.370 L1103.616,3.488 C1097.556,3.471 1090.152,3.140 1087.906,2.941 C1089.959,3.379 1092.031,3.706 1096.734,4.092 C1098.123,3.971 1099.273,3.693 1103.795,3.645 C1104.528,3.662 1104.922,3.684 1105.185,3.708 C1098.529,4.036 1092.148,4.398 1089.543,4.782 C1081.857,2.724 1038.360,7.143 1038.476,5.066 L1013.138,5.805 L1013.793,5.578 C997.590,5.841 991.879,6.480 986.201,7.118 C982.451,7.070 985.179,6.809 985.485,6.693 C982.551,6.713 979.949,6.734 977.596,6.757 C977.567,6.003 973.084,5.100 967.728,4.559 C967.441,4.815 967.448,5.045 957.660,5.625 C961.101,5.852 979.425,5.816 971.175,6.537 C958.206,7.152 960.534,6.599 954.214,6.452 C958.783,6.943 943.795,7.641 940.870,8.437 C940.454,8.470 940.074,8.498 939.642,8.531 L937.556,7.910 C934.239,8.234 921.920,8.080 907.524,8.235 C908.479,8.144 909.360,8.030 910.093,7.877 L900.393,7.504 C910.228,6.816 922.372,5.576 934.619,5.552 C929.021,4.817 931.800,5.722 923.071,4.916 C930.651,5.1000 891.761,5.637 903.915,6.673 C894.953,5.709 888.455,6.553 876.756,5.831 C877.127,6.113 880.906,6.286 870.628,6.397 C870.167,6.493 869.076,6.630 868.381,6.710 C868.068,6.708 867.957,6.707 867.687,6.705 C867.893,6.713 868.048,6.718 868.255,6.726 C867.811,6.780 867.772,6.790 868.467,6.732 C870.918,6.799 872.906,6.904 873.716,7.046 C868.637,7.842 852.298,8.225 846.785,8.708 C840.684,8.721 849.324,8.311 845.986,8.082 L837.750,8.805 C836.911,8.177 821.518,8.130 835.867,7.395 L822.939,7.687 C815.318,7.512 804.843,7.627 798.397,8.059 C792.297,8.070 783.021,9.157 788.316,8.519 L768.056,9.422 L767.863,9.265 C747.859,9.678 726.723,11.357 703.817,10.755 C697.087,11.085 690.135,11.458 678.864,11.553 L676.649,11.047 C668.012,11.457 650.667,11.129 646.971,11.805 C637.595,10.529 604.999,12.516 589.786,12.625 L589.234,13.371 C578.767,13.588 568.738,14.044 555.755,14.659 L556.575,15.286 C545.391,16.094 527.762,15.540 510.047,16.044 C511.243,15.768 515.739,15.721 518.924,15.792 C497.710,14.856 474.300,17.960 455.068,17.372 C450.292,17.725 446.825,17.731 443.465,17.651 C443.911,17.639 444.309,17.617 444.651,17.588 C444.160,17.598 443.432,17.614 442.686,17.630 C440.569,17.572 438.384,17.513 436.030,17.450 C438.038,17.557 439.960,17.639 441.631,17.658 C437.943,17.762 432.349,17.981 426.870,18.279 L424.511,17.642 C424.065,17.661 423.708,17.675 423.244,17.694 C417.853,17.571 418.927,18.130 421.815,18.581 C419.058,18.763 416.531,18.963 414.575,19.179 C410.166,18.167 400.197,19.913 394.191,18.866 C390.786,19.490 370.090,19.921 364.750,21.012 C358.680,21.023 352.620,21.038 347.191,21.516 L344.568,20.698 L331.255,22.215 C323.127,21.878 319.755,21.649 327.785,20.771 C308.372,22.297 312.019,21.555 295.513,22.999 L296.302,22.409 C290.391,22.577 280.965,23.576 277.385,23.192 C264.125,22.435 211.944,24.664 177.965,24.496 C184.605,26.013 162.162,24.134 160.859,25.469 C158.869,25.121 154.130,25.014 159.617,24.532 C142.305,25.352 133.567,24.547 121.642,25.941 C119.646,25.591 125.331,25.267 123.559,25.075 C122.171,25.194 118.066,25.556 116.255,25.363 C114.483,25.171 118.781,24.967 121.518,24.726 C103.824,25.232 102.073,26.501 100.824,27.681 C91.838,27.359 87.365,27.548 80.913,28.462 C77.779,28.163 72.558,27.899 83.550,27.491 C77.429,27.588 46.471,27.871 45.222,28.784 L44.431,28.777 C43.957,28.762 43.394,28.756 42.745,28.763 L40.239,28.742 L41.151,28.795 C38.644,28.864 35.843,29.017 34.867,29.105 C27.926,29.239 24.149,29.312 20.404,29.384 C16.151,29.497 11.935,29.609 4.192,29.815 L9.331,29.838 C6.964,30.291 4.767,30.491 2.047,30.588 C2.143,32.335 2.104,34.189 2.085,36.458 C2.063,38.641 2.037,40.495 2.182,43.035 L2.011,42.821 C1.429,60.370 2.810,50.372 2.059,67.691 L3.022,66.726 C5.213,68.285 2.260,82.073 3.405,92.084 L3.855,88.448 C4.766,93.909 1.447,103.836 1.360,109.346 C1.213,110.550 0.999,107.459 0.807,105.789 C0.016,120.226 2.171,107.623 2.824,118.350 C2.186,120.348 0.954,115.844 1.059,123.072 C0.926,124.130 1.127,126.365 1.449,129.245 C1.618,130.731 1.806,132.386 2.006,134.138 C2.223,136.841 2.453,139.691 2.686,142.582 C7.976,142.379 13.362,142.172 18.474,141.977 C22.058,141.879 25.455,141.863 28.394,141.985 C25.257,141.685 22.144,141.386 29.304,140.926 C40.291,140.519 59.064,141.613 68.950,140.181 C70.351,140.249 70.882,140.334 70.943,140.427 C79.334,139.913 98.229,139.241 103.269,138.472 C111.110,140.668 155.461,136.017 155.346,138.225 L181.184,137.466 L180.516,137.708 C197.038,137.445 202.862,136.772 208.652,136.100 C212.475,136.155 209.694,136.430 209.381,136.553 C233.532,136.399 235.928,136.246 256.128,134.648 L258.256,135.310 C263.727,134.759 293.187,135.566 316.831,134.146 C316.602,134.233 316.117,134.384 314.239,134.532 C340.845,133.033 378.065,134.934 387.739,132.090 L405.294,131.013 C382.549,131.375 408.643,129.800 399.275,129.601 C408.213,129.226 422.420,129.812 411.436,130.218 L409.712,130.130 C405.719,131.587 437.983,129.911 437.401,130.850 C482.143,129.675 525.777,129.346 567.690,128.366 L562.828,127.431 L577.449,127.129 C581.294,127.280 582.626,127.827 572.195,128.041 C577.699,128.503 589.669,127.107 589.960,126.871 C610.395,126.792 582.023,128.298 588.287,128.168 L596.789,127.879 L594.868,127.803 C601.747,127.201 602.343,126.730 614.881,126.471 C622.820,126.486 618.971,127.020 622.094,126.984 C622.079,127.059 623.134,127.069 626.884,126.896 L645.306,126.529 L637.914,125.880 C646.064,125.267 655.235,125.494 646.705,124.761 C659.228,125.906 715.428,123.582 723.103,123.843 C734.517,122.953 745.803,122.685 759.787,122.412 C756.305,122.325 754.195,121.440 766.257,121.256 C761.911,123.296 788.366,121.547 798.157,122.695 C789.418,121.990 832.433,121.619 818.723,120.649 C828.791,120.555 819.358,121.356 827.007,121.622 C850.931,120.280 879.801,120.801 909.396,119.816 C909.848,119.551 904.879,119.286 911.216,118.751 L926.887,119.632 C932.728,119.362 932.221,118.035 942.931,118.650 C941.416,118.474 939.154,118.209 943.072,118.030 C1001.105,117.829 1061.541,114.083 1120.510,114.945 C1112.517,114.652 1117.832,114.472 1123.923,114.302 C1119.958,114.283 1123.992,113.674 1123.203,113.349 L1147.889,113.693 C1152.352,112.629 1174.322,112.974 1176.866,111.998 L1169.064,112.355 C1178.978,111.078 1156.553,110.382 1155.942,109.079 L1184.107,108.381 L1184.061,106.976 C1184.854,106.956 1185.678,106.933 1186.559,106.911 L1184.059,106.902 L1184.047,106.539 C1185.497,106.366 1186.975,106.239 1188.663,106.180 C1188.571,104.537 1188.612,102.794 1188.633,100.657 C1188.657,98.604 1188.686,96.859 1188.547,94.470 L1188.715,94.672 C1189.307,78.160 1187.940,87.569 1188.700,71.274 L1187.754,72.183 C1185.607,70.719 1188.520,57.744 1187.411,48.326 L1186.965,51.747 C1186.242,47.557 1188.262,40.597 1189.090,35.350 C1189.277,38.016 1189.410,40.643 1189.325,42.928 L1189.029,44.179 L1190.331,47.554 C1190.091,43.062 1189.687,37.919 1189.360,33.077 C1189.386,32.747 1189.434,32.387 1189.439,32.083 C1189.585,30.951 1189.790,33.859 1189.976,35.430 C1190.487,26.707 1189.791,28.464 1189.062,28.174 C1188.966,26.388 1188.895,24.700 1188.865,23.175 ZM581.991,16.484 C575.597,16.831 577.384,16.616 579.152,16.383 L581.991,16.484 ZM787.296,12.412 C791.421,12.379 796.708,12.279 802.574,12.152 C804.330,12.455 792.568,13.290 799.263,13.421 C794.605,13.613 788.521,13.550 785.428,13.391 C784.947,13.330 784.490,13.260 783.802,13.186 L783.776,13.259 C782.918,13.134 783.691,12.985 787.339,12.851 L789.029,12.932 C789.862,12.640 789.028,12.488 787.296,12.412 ZM892.902,7.635 L895.502,8.449 C895.496,8.449 895.491,8.449 895.485,8.449 C895.012,8.204 886.442,8.157 882.610,8.519 C885.227,8.275 889.876,8.391 894.741,8.468 C889.794,8.599 884.836,8.786 880.115,9.063 C880.339,8.980 880.816,8.838 882.657,8.699 C882.160,8.726 881.636,8.744 881.131,8.769 C881.488,8.670 881.927,8.586 882.502,8.529 C881.820,8.598 881.353,8.680 881.059,8.773 C874.496,9.097 867.365,9.241 860.186,9.310 C859.797,9.291 859.237,9.276 858.312,9.270 C868.108,8.587 879.081,7.625 892.902,7.635 ZM812.975,8.342 C812.840,8.359 812.746,8.371 812.633,8.384 C805.473,8.290 808.013,8.335 812.975,8.342 ZM761.973,11.779 C791.936,11.250 787.424,9.023 812.327,9.284 C816.434,9.504 817.199,9.806 816.868,10.119 C814.235,10.350 812.051,10.651 810.578,11.067 L801.688,11.599 C796.104,11.577 791.495,11.423 786.264,11.571 L797.117,11.670 C792.993,12.030 784.327,12.440 779.594,12.332 C779.879,12.350 780.297,12.358 780.659,12.370 C772.479,12.458 761.539,12.806 761.878,12.283 C751.316,12.560 740.824,12.787 730.397,12.990 C736.248,12.409 743.766,11.856 752.270,11.406 C768.209,10.709 759.210,12.021 761.973,11.779 ZM591.878,16.475 C590.685,16.512 589.349,16.546 587.833,16.578 C582.080,16.573 582.636,16.296 582.085,16.166 C585.548,16.258 589.045,16.364 591.878,16.475 ZM578.820,16.082 C578.131,16.103 577.246,16.137 576.063,16.190 L566.316,16.385 C566.750,16.166 567.278,15.972 567.971,15.836 C568.667,15.852 573.357,15.946 578.820,16.082 ZM492.719,18.066 L506.895,17.175 C504.141,17.634 499.827,18.268 494.785,18.963 C488.406,19.121 483.579,19.216 481.705,19.157 C477.192,19.498 472.691,19.743 468.037,19.934 C474.309,19.001 481.565,18.131 489.154,17.680 L492.719,18.066 ZM444.767,21.149 C444.261,21.229 443.714,21.367 443.241,21.534 C442.161,21.576 440.887,21.610 439.384,21.633 C439.654,21.512 439.799,21.404 439.838,21.310 C441.357,21.244 442.958,21.187 444.767,21.149 ZM364.721,21.018 C364.306,21.103 363.958,21.191 363.750,21.285 C363.561,21.134 362.048,21.096 364.721,21.018 ZM329.615,22.506 C329.398,22.509 329.178,22.512 328.960,22.515 L329.823,22.391 C329.726,22.427 329.683,22.467 329.615,22.506 ZM90.321,28.677 C90.515,28.872 88.809,29.212 89.347,29.424 L80.750,29.318 C80.305,29.293 79.861,29.267 79.483,29.251 L90.321,28.677 ZM6.583,37.105 C6.597,36.527 6.663,35.868 6.747,35.193 L6.894,39.715 C6.661,39.184 6.570,38.222 6.583,37.105 ZM623.734,126.687 L620.838,126.577 C627.358,126.215 625.536,126.441 623.734,126.687 ZM656.245,122.153 C652.847,122.224 649.840,121.983 646.072,121.708 L675.480,120.979 C674.772,121.414 663.030,122.108 656.245,122.153 ZM705.799,120.781 C709.606,120.516 709.460,120.362 708.377,120.228 C709.230,120.186 710.081,120.145 710.932,120.101 L720.747,119.858 C717.717,120.214 715.107,120.447 705.799,120.781 ZM728.020,119.888 L726.541,119.715 L730.744,119.611 C729.938,119.696 729.035,119.788 728.020,119.888 ZM1143.458,109.388 L1152.994,109.152 C1150.132,109.360 1146.936,109.421 1143.458,109.388 ZM1184.224,100.054 C1184.201,100.862 1184.075,101.832 1183.924,102.778 L1183.717,96.425 C1183.745,96.720 1183.774,97.014 1183.801,97.357 C1184.129,97.759 1184.240,98.825 1184.224,100.054 ZM1188.015,23.614 C1188.136,23.251 1188.280,23.119 1188.430,23.088 C1188.383,24.331 1188.423,25.767 1188.508,27.316 C1188.309,26.659 1188.134,25.541 1188.015,23.614 Z"/>
</svg>